<?xml version="1.0" encoding="utf-8"?>
<!-- Generator: Adobe Illustrator 19.2.1, SVG Export Plug-In . SVG Version: 6.00 Build 0)  -->
<svg version="1.1" id="layer" xmlns="http://www.w3.org/2000/svg" xmlns:xlink="http://www.w3.org/1999/xlink" x="0px" y="0px"
	 viewBox="0 0 652 652" style="enable-background:new 0 0 652 652;" xml:space="preserve">
<style type="text/css">
	.st0{fill:#ffffff;}
</style>
<path class="st0" d="M228.1,282.8h19.4v-22.7l26.3-15.5v38.2h27.5v23.6h-27.5v43.1c0,11,4.7,14.9,11.4,14.9c3.7,0,6.6-1.2,9.7-3.9
	l12.2,20.9c-6.8,5-15.3,7.9-25,7.9c-21.9,0-34.7-10.5-34.7-39v-44h-19.4V282.8z M394.6,334.7c0-16.3-12.8-29.3-28.7-29.3
	c-16.1,0-28.7,13-28.7,29.3c0,16.3,12.6,29.3,28.7,29.3C381.9,364,394.6,351,394.6,334.7L394.6,334.7z M310.6,334.9
	c0-30.2,23.8-54.5,55.2-54.5c31.2,0,55.4,24.2,55.4,54.5c0,30.1-23.8,54.5-55.4,54.5C334.4,389.4,310.6,365,310.6,334.9L310.6,334.9
	z M426.7,363.4l25.8-10.1c4.7,9.3,13,14.1,24,14.1c10.8,0,16.7-5.2,16.7-11.4c0-7.6-11.2-9.3-24.6-12c-17.6-3.7-37.2-9.1-37.2-31.2
	c0-17.6,17-33,42.8-32.8c22.1,0,35.3,8.3,44.9,22.3l-24.4,9.9c-4.3-7-10.9-11.1-20.5-11.1c-10.5,0-15.5,4.3-15.5,10.1
	c0,6.6,8.5,8.3,23.8,11.6c17.4,3.5,38,9.5,38,32c0,16.3-14.5,34.7-44.9,34.5C450.7,389.4,435,380.1,426.7,363.4L426.7,363.4z
	 M527.4,363.4l25.8-10.1c4.7,9.3,13,14.1,24,14.1c10.9,0,16.7-5.2,16.7-11.4c0-7.6-11.2-9.3-24.6-12c-17.6-3.7-37.2-9.1-37.2-31.2
	c0-17.6,17.1-33,42.8-32.8c22.1,0,35.3,8.3,45,22.3l-24.4,9.9c-4.3-7-10.8-11.1-20.5-11.1c-10.5,0-15.5,4.3-15.5,10.1
	c0,6.6,8.5,8.3,23.8,11.6c17.4,3.5,38,9.5,38,32c0,16.3-14.5,34.7-45,34.5C551.4,389.4,535.7,380.1,527.4,363.4L527.4,363.4z
	 M193.6,325.9c0,19.2-7.6,37.7-21.2,51.3c-13.6,13.6-32,21.2-51.2,21.2c-29.1,0-54.2-17.1-65.7-41.9c-12.2,3.4-23.8,8.9-34.3,16.1
	c3.6-20.2,11.1-44.2,23.2-66.1c15-27.1,37.6-50.4,71.9-52.7c4.3-0.3,8.5-0.2,12.8,0.2C165.3,257.6,193.6,288.5,193.6,325.9
	L193.6,325.9z M193.6,325.9"/>
</svg>
