<svg width="429" height="216" viewBox="0 0 429 216" fill="none" xmlns="http://www.w3.org/2000/svg">
<path d="M0 149.46L34.08 81.99L0 27.52V149.46Z" fill="#582A5E"/>
<path d="M15.47 216L100 138.25L45.96 161.54L15.47 216Z" fill="#6E3678"/>
<path d="M82.01 0L0.710022 157.3L53.62 130.48L99.38 75.13L82.01 0Z" fill="#6E3678"/>
<path d="M53.62 130.48L0.710022 157.3L45.96 161.54L100 138.25L53.62 130.48Z" fill="#582A5E"/>
<path d="M232.568 75.968H199.736V162H174.808V75.968H141.824V54.08H232.568V75.968Z" fill="#6E3678"/>
<path d="M226.48 138.136C226.48 132.867 227.949 128.256 230.888 124.304C233.826 120.352 237.88 117.261 243.048 115.032C248.216 112.701 254.144 111.536 260.832 111.536C264.074 111.536 267.266 111.84 270.408 112.448C273.549 112.955 276.285 113.715 278.616 114.728V111.232C278.616 106.875 277.298 103.531 274.664 101.2C272.029 98.8693 268.026 97.704 262.656 97.704C258.197 97.704 253.992 98.464 250.04 99.984C246.189 101.504 242.085 103.683 237.728 106.52L230.432 91.016C235.701 87.5707 241.173 84.9867 246.848 83.264C252.624 81.5413 258.704 80.68 265.088 80.68C277.045 80.68 286.317 83.568 292.904 89.344C299.592 95.0187 302.936 103.277 302.936 114.12V134.944C302.936 137.376 303.29 139.099 304 140.112C304.81 141.024 306.178 141.581 308.104 141.784V162C306.077 162.405 304.152 162.709 302.328 162.912C300.605 163.115 299.085 163.216 297.768 163.216C293.208 163.216 289.712 162.304 287.28 160.48C284.949 158.656 283.48 156.173 282.872 153.032L282.416 149.536C278.869 154.096 274.613 157.592 269.648 160.024C264.784 162.355 259.666 163.52 254.296 163.52C249.026 163.52 244.264 162.405 240.008 160.176C235.853 157.947 232.56 154.907 230.128 151.056C227.696 147.205 226.48 142.899 226.48 138.136ZM274.816 141.176C275.93 140.264 276.842 139.251 277.552 138.136C278.261 137.021 278.616 135.957 278.616 134.944V127.8C276.589 126.989 274.309 126.381 271.776 125.976C269.344 125.469 267.064 125.216 264.936 125.216C260.477 125.216 256.778 126.229 253.84 128.256C250.901 130.181 249.432 132.765 249.432 136.008C249.432 137.832 249.938 139.504 250.952 141.024C251.965 142.544 253.333 143.76 255.056 144.672C256.88 145.584 259.008 146.04 261.44 146.04C263.872 146.04 266.304 145.584 268.736 144.672C271.168 143.76 273.194 142.595 274.816 141.176Z" fill="#6E3678"/>
<path d="M338.19 82.2L352.326 104.696L353.846 107.584L355.366 104.696L369.502 82.2H394.582L367.83 121.872L395.19 162H370.11L355.214 139.656L353.846 136.768L352.478 139.656L337.582 162H312.502L339.862 122.328L313.11 82.2H338.19Z" fill="#6E3678"/>
<path d="M403.853 162V82.2H428.173V162H403.853ZM403.853 73.08V51.04H428.173V73.08H403.853Z" fill="#6E3678"/>
</svg>
