<svg width="53" height="57" viewBox="0 0 53 57" fill="none" xmlns="http://www.w3.org/2000/svg">
<g clip-path="url(#clip0_2_241)">
<path d="M42.2951 44.9313C40.9635 46.8463 37.6452 46.316 35.9683 46.6304C32.5982 47.2696 29.19 47.4654 25.8894 47.1886C21.9134 46.8658 16.5323 45.2462 11.7577 42.4783C6.9831 39.7105 3.25697 36.1572 0.87603 32.6884C-0.15211 31.1981 -1.07225 29.609 -1.87894 27.9437L-1.88049 27.9428C-2.54923 26.5646 -3.13813 25.1343 -3.64526 23.6665C-4.20572 22.0551 -6.31506 19.4391 -5.31499 17.3318C-4.21205 15.0275 -2.56799 15.2643 -0.153673 14.3277C1.3729 13.7388 6.60356 10.7221 13.0765 10.0816C15.4458 9.84767 21.0445 9.544 28.2075 13.6964C35.3705 17.8487 39.3313 25.0862 40.1887 27.4763C40.2203 27.5609 40.2501 27.6454 40.278 27.733C42.0606 32.8445 42.1211 37.5467 42.3361 38.9579C42.7231 41.5183 43.7472 42.8283 42.2955 44.9305L42.2951 44.9313Z" fill="#FAC78A"/>
<path opacity="0.07" d="M42.2952 44.9313C40.9636 46.8463 37.6454 46.316 35.9684 46.6304C32.5983 47.2696 29.1902 47.4654 25.8895 47.1886C21.9135 46.8658 16.5325 45.2462 11.7578 42.4783C6.98326 39.7105 3.25712 36.1572 0.876182 32.6884C-0.151957 31.1981 -1.0721 29.609 -1.87879 27.9437C6.58644 38.5488 28.6096 48.2189 36.8595 32.3001C36.8595 32.3001 36.7528 34.4481 37.5717 34.5874C38.9272 34.8236 41.0795 33.0354 40.2777 27.7338C42.0603 32.8453 42.1208 37.5474 42.3357 38.9587C42.7228 41.5191 43.7469 42.8291 42.2952 44.9313Z" fill="#231F20"/>
<path d="M19.6826 20.3284C19.8468 21.9235 17.1364 23.5102 13.6272 23.8731C10.121 24.2347 7.14348 23.2342 6.97966 21.6384C6.81463 20.0429 9.526 18.4547 13.0318 18.0939C16.5393 17.732 19.5172 18.7317 19.6821 20.3292L19.6826 20.3284Z" fill="#F7DDBC"/>
<path d="M38.0753 40.6518C38.1285 38.7709 39.1601 29.6228 32.841 22.3214C31.4739 20.7413 29.9249 19.3402 28.1878 18.1697C27.6511 17.8079 26.0856 16.891 25.8638 16.7666C23.6806 15.5424 21.3358 14.7162 18.8985 14.239C9.42328 12.3845 1.99653 17.8253 0.391539 18.8067C-1.21421 19.7876 -2.23735 18.4368 -2.5658 17.6874C-2.87962 18.7662 -1.95491 19.9958 -1.09251 20.3115C-0.229337 20.6276 1.04283 20.065 2.66728 18.9376C5.91291 16.683 11.1969 14.5833 18.1473 15.9813C20.5232 16.4591 22.7327 17.3042 24.7386 18.4453C24.9309 18.5547 26.1395 19.2553 26.3469 19.3776C28.3104 20.5469 30.1229 22.0323 31.703 23.8385C36.3702 29.1751 37.1738 34.8039 36.8303 38.7408C36.6594 40.7108 36.8032 42.0942 37.5065 42.6862C38.21 43.2782 39.736 43.4683 40.5157 42.6606C39.702 42.7489 38.0213 42.5323 38.0749 40.6505L38.0753 40.6518Z" fill="#E6B273"/>
</g>
<defs>
<clipPath id="clip0_2_241">
<rect width="55.125" height="33.32" fill="white" transform="translate(4.71069) rotate(30.1007)"/>
</clipPath>
</defs>
</svg>
