<svg width="27" height="17" viewBox="0 0 27 17" fill="none" xmlns="http://www.w3.org/2000/svg">
<g clip-path="url(#clip0_2_3696)">
<path d="M26.9633 10.1147C26.8695 11.231 25.3331 11.8098 24.6998 12.3442C23.4287 13.4214 22.0326 14.3235 20.566 15.0034C18.8019 15.8268 16.1238 16.4499 13.4207 16.4499C10.7176 16.4499 8.26585 15.8711 6.40487 15.0034C5.60311 14.6319 4.82285 14.1933 4.07196 13.6958H4.07108C3.44915 13.2842 2.84827 12.8319 2.27282 12.3442C1.63949 11.8098 0.103069 11.231 0.00920875 10.1147C-0.089476 8.89177 0.665356 8.59421 1.45835 7.6237C1.96055 7.01138 3.43598 4.49846 6.02154 2.67354C6.96804 2.00575 9.26586 0.531281 13.3211 0.531281C17.3764 0.531281 20.8326 2.5841 21.783 3.37057C21.8172 3.39808 21.8506 3.42604 21.884 3.45571C23.8949 5.14991 25.0756 7.08878 25.5134 7.62327C26.3063 8.59378 27.0621 8.89134 26.9633 10.1143L26.9633 10.1147Z" fill="#FAC78A"/>
<path opacity="0.07" d="M26.9631 10.1147C26.8693 11.231 25.3329 11.8098 24.6996 12.3442C23.4285 13.4214 22.0325 14.3235 20.5658 15.0034C18.8017 15.8268 16.1237 16.4499 13.4205 16.4499C10.7174 16.4499 8.26567 15.8711 6.40468 15.0034C5.60293 14.6319 4.82266 14.1933 4.07178 13.6958C10.2639 16.0628 21.9715 14.7764 21.557 6.17632C21.557 6.17632 22.0394 7.09438 22.4207 6.95505C23.0531 6.72672 23.5259 5.46553 21.8838 3.45614C23.8947 5.15034 25.0754 7.08921 25.5132 7.62371C26.3061 8.59421 27.0619 8.89177 26.9631 10.1147Z" fill="#231F20"/>
<path d="M11.3377 5.33954C11.7991 5.96261 11.0403 7.27454 9.64247 8.27042C8.24553 9.26501 6.73807 9.56644 6.27665 8.94294C5.81481 8.31987 6.57359 7.00708 7.97054 6.01292C9.36791 5.01789 10.8754 4.71604 11.3377 5.33997L11.3377 5.33954Z" fill="#F7DDBC"/>
<path d="M24.1239 9.35315C23.6845 8.55894 21.8744 4.51006 17.4032 2.99861C16.4358 2.67138 15.4352 2.4624 14.4116 2.39446C14.0953 2.37339 13.2067 2.36952 13.0821 2.37123C11.8563 2.38843 10.6598 2.60989 9.50978 2.99861C5.03913 4.51006 3.2286 8.55894 2.78955 9.35315C2.35008 10.1474 1.58472 9.8326 1.26147 9.6004C1.39349 10.1241 2.08736 10.4122 2.53034 10.3357C2.97377 10.2592 3.37465 9.71908 3.78606 8.85951C4.60755 7.14123 6.33082 4.99639 9.61944 3.90333C10.7436 3.52966 11.8874 3.34863 13.0177 3.3396C13.1261 3.33874 13.8103 3.33874 13.9283 3.3396C15.0475 3.3525 16.1804 3.5331 17.2937 3.9029C20.5823 4.99596 22.3055 7.1408 23.127 8.85908C23.5385 9.71865 23.9393 10.2587 24.3827 10.3353C24.8262 10.4118 25.5195 10.1233 25.6515 9.59996C25.3284 9.8326 24.563 10.1474 24.1235 9.35272L24.1239 9.35315Z" fill="#E6B273"/>
</g>
<defs>
<clipPath id="clip0_2_3696">
<rect width="27" height="16" fill="white" transform="translate(0 0.5)"/>
</clipPath>
</defs>
</svg>
