<svg width="52" height="43" viewBox="0 0 52 43" fill="none" xmlns="http://www.w3.org/2000/svg">
<g clip-path="url(#clip0_2_256)">
<path d="M46.863 14.7155C47.4956 16.4732 45.61 18.3937 45.0377 19.6351C43.8924 22.1314 42.4385 24.4477 40.7264 26.4735C38.6708 28.92 35.1178 31.6817 31.0961 33.5149C27.0741 35.3482 23.0264 36.1324 19.6566 36.0779C18.2067 36.0578 16.7423 35.9214 15.2812 35.6763L15.2799 35.6769C14.0703 35.4734 12.8629 35.1952 11.6688 34.8459C10.3567 34.4642 7.67001 34.6272 6.75812 32.9968C5.76529 31.2078 6.68252 30.2443 7.19129 28.2342C7.5149 26.9643 7.97176 22.15 10.5562 17.6268C11.5032 15.9712 13.902 12.175 19.9358 9.42459C25.9695 6.67419 32.5322 7.44623 34.4902 7.99446C34.5604 8.01369 34.6291 8.03283 34.6991 8.05531C38.8634 9.26251 41.9613 11.4042 42.9827 11.9191C44.8339 12.8542 46.1641 12.7933 46.863 14.7155Z" fill="#E6E7E8"/>
<path opacity="0.07" d="M46.8629 14.7155C47.4956 16.4732 45.6099 18.3937 45.0378 19.635C43.8923 22.1314 42.4385 24.4478 40.7263 26.4735C38.6707 28.92 35.1177 31.6816 31.096 33.5149C27.0741 35.3482 23.0264 36.1324 19.6565 36.0779C18.2067 36.058 16.7422 35.9214 15.2811 35.6763C26.1319 35.0691 42.661 25.1762 36.0949 12.4058C36.0949 12.4058 37.448 13.4718 37.9186 13.0019C38.7018 12.2264 38.5325 9.99105 34.6993 8.05597C38.8636 9.26317 41.9616 11.4049 42.9829 11.9198C44.8342 12.8548 46.1643 12.7939 46.8632 14.7161L46.8629 14.7155Z" fill="#231F20"/>
<path d="M20.3108 18.0663C21.4283 18.6989 21.2069 21.2046 19.8158 23.6633C18.4254 26.1202 16.391 27.6 15.2732 26.9667C14.155 26.3344 14.376 23.8281 15.7668 21.3719C17.1572 18.9134 19.1916 17.4336 20.3108 18.0663Z" fill="#F7F7F7"/>
<path d="M42.1114 15.4856C40.9082 14.5783 35.414 9.66131 27.7161 10.3999C26.0501 10.5595 24.417 10.9209 22.8468 11.5121C22.3618 11.6946 21.037 12.2914 20.8529 12.3785C19.0404 13.2354 17.4137 14.3836 15.9715 15.7535C10.3654 21.0794 10.4732 28.4517 10.3687 29.9551C10.2643 31.4585 8.90845 31.4996 8.26621 31.3668C8.82496 32.072 10.0566 32.0387 10.6635 31.6218C11.2703 31.2049 11.4934 30.114 11.5106 28.5298C11.5442 25.3649 12.6244 20.9411 16.7612 17.0518C18.1753 15.7223 19.752 14.6718 21.4274 13.8915C21.588 13.8167 22.6058 13.352 22.7822 13.274C24.4564 12.5344 26.2664 12.0404 28.1792 11.8463C33.8283 11.2748 37.876 13.3611 40.287 15.4116C41.4942 16.4377 42.4638 16.9849 43.1765 16.8003C43.8894 16.6157 44.7221 15.7072 44.5558 14.8238C44.2352 15.3964 43.3149 16.3928 42.1111 15.485L42.1114 15.4856Z" fill="#D1D3D4"/>
</g>
<defs>
<clipPath id="clip0_2_256">
<rect width="44.1493" height="26.882" fill="white" transform="translate(0 18.3121) rotate(-24.5053)"/>
</clipPath>
</defs>
</svg>
