<svg viewBox="0 0 128 128" fill="none" xmlns="http://www.w3.org/2000/svg">
<g clip-path="url(#clip0_516_5907)">
<path d="M0 0H128V72H0V0Z" fill="url(#paint0_linear_516_5907)"/>
<path d="M41.9863 21.6424C42.4849 24.7112 46.4672 33.5648 48.3959 37.608L55.0035 37.3056C53.7569 29.6337 49.9301 13.7761 44.5954 11.7204C37.927 9.1509 15.1164 35.3847 19.3749 39.3606C23.6334 43.3365 39.2358 27.4472 41.9863 21.6424Z" fill="#EBDFB0"/>
<path d="M41.9863 21.6424C42.4849 24.7112 46.4672 33.5648 48.3959 37.608C48.7776 37.7084 49.9625 37.8568 51.6496 37.6476C51.6694 36.0208 47.0674 20.9386 44.1544 16.5005C43.753 18.027 42.5417 20.5645 41.9863 21.6424Z" fill="#EEA294"/>
<path d="M87.434 23.049C85.3316 25.7208 74.6248 33.4819 69.5342 37.0285C68.9599 36.2969 67.1146 34.4159 64.3271 32.7447C64.7604 31.1276 72.6446 21.1081 84.6578 15.0836C97.6574 10.7677 115.325 10.5911 115.984 15.6783C116.643 20.7654 96.9391 25.307 87.434 23.049Z" fill="#EBE1B4"/>
<path d="M87.434 23.049C85.3316 25.7208 74.6248 33.4819 69.5342 37.0285C69.2054 36.459 68.1849 35.1649 66.7334 34.5449C74.5261 25.9452 83.4637 21.6962 84.8306 20.907C86.1975 20.1179 101.406 17.2604 107.032 16.7459C111.533 16.3343 112.881 18.3785 112.886 19.4389C106.2 23.2989 96.0055 24.4792 87.434 23.049Z" fill="#EDA394"/>
<ellipse cx="60.929" cy="68.9798" rx="39.4588" ry="37.4859" fill="#EBE1B4"/>
<path d="M55.4048 61.4825C57.3777 63.0609 62.5074 63.0609 65.6641 61.4825C63.6911 63.8501 57.3777 63.8501 55.4048 61.4825Z" fill="#56555A"/>
<path d="M58.167 62.6663H62.902V63.85C62.902 64.5038 62.3721 65.0338 61.7183 65.0338H59.3508C58.697 65.0338 58.167 64.5038 58.167 63.85V62.6663Z" fill="white"/>
<path d="M60.5347 62.6663V65.0338" stroke="#55545C" stroke-width="0.5"/>
<ellipse cx="47.9074" cy="49.2504" rx="1.18376" ry="2.76212" fill="#545458"/>
<ellipse cx="73.1613" cy="49.2504" rx="1.18376" ry="2.76212" fill="#545458"/>
<path d="M70.481 40.7334C71.8854 39.3476 75.4575 39.2601 76.2925 42.4717C74.8294 40.4984 72.3681 39.9688 70.481 40.7334Z" fill="#545458"/>
<path d="M49.3784 41.5226C47.974 40.1368 44.4019 40.0492 43.5669 43.2608C45.0299 41.2875 47.4913 40.758 49.3784 41.5226Z" fill="#545458"/>
<path d="M60.335 58.0856L57.6218 55.1904C57.3185 54.8668 57.3395 54.3513 57.7054 54.1007C59.9596 52.557 62.6275 52.9513 64.3016 53.9765C64.6859 54.2118 64.7078 54.7355 64.3955 55.0603L61.4798 58.0929C61.1665 58.4188 60.6441 58.4154 60.335 58.0856Z" fill="#FF908C"/>
<path d="M0 72H128V120C128 124.418 124.418 128 120 128H8C3.58172 128 0 124.418 0 120V72Z" fill="#A97C50"/>
<circle cx="102.755" cy="70.1635" r="7.89176" fill="#F8ECBE"/>
<circle cx="19.8918" cy="70.9526" r="7.89176" fill="#F8ECBE"/>
<rect width="128" height="128" fill="url(#paint1_linear_516_5907)"/>
</g>
<defs>
<linearGradient id="paint0_linear_516_5907" x1="64" y1="0" x2="64" y2="72" gradientUnits="userSpaceOnUse">
<stop stop-color="#203F76"/>
<stop offset="1" stop-color="#797F6C"/>
</linearGradient>
<linearGradient id="paint1_linear_516_5907" x1="64" y1="0" x2="64" y2="128" gradientUnits="userSpaceOnUse">
<stop stop-opacity="0"/>
<stop offset="1" stop-opacity="0.6"/>
</linearGradient>
<clipPath id="clip0_516_5907">
<rect width="128" height="128" fill="white"/>
</clipPath>
</defs>
</svg>
