<svg viewBox="0 0 128 128" fill="none" xmlns="http://www.w3.org/2000/svg">
<g clip-path="url(#clip0_516_5872)">
<rect width="128" height="128" fill="url(#paint0_linear_516_5872)"/>
<path d="M113.343 135.356C105.521 140.132 85.0568 144 68.2078 144H68.2042C51.3552 143.996 30.8996 140.132 23.0835 135.356C23.3605 132.057 23.9303 128.515 24.6667 125.019C24.8999 123.88 25.1559 122.749 25.4241 121.634C25.5416 121.129 25.6626 120.631 25.7871 120.13C26.7777 116.176 27.884 112.495 28.8834 109.58C31.6044 101.641 49.8842 97.81 68.2165 97.9811H68.2428C86.5629 97.8173 104.822 101.65 107.543 109.58C108.516 112.421 109.592 115.998 110.565 119.843C110.692 120.338 110.813 120.842 110.928 121.347C111.202 122.46 111.456 123.589 111.698 124.723C112.455 128.314 113.06 131.969 113.341 135.354L113.343 135.356Z" fill="#8C6643"/>
<g style="mix-blend-mode:overlay" opacity="0.3">
<path d="M110.928 121.347C98.4782 126.177 83.6717 129.172 67.7922 129.172C51.9127 129.172 37.6252 126.294 25.4224 121.632C25.5398 121.128 25.6608 120.629 25.7853 120.129C26.7759 116.175 27.8822 112.493 28.8816 109.578C31.6027 101.639 49.8824 97.8082 68.2148 97.9794H68.241C86.5611 97.8156 104.82 101.648 107.541 109.578C108.514 112.419 109.59 115.996 110.564 119.842C110.69 120.337 110.811 120.841 110.927 121.345L110.928 121.347Z" fill="#231F20"/>
</g>
<path d="M150.972 73.2872C146.417 93.5726 113.62 117.183 67.7783 117.183C21.937 117.183 -8.68588 96.4411 -14.6733 72.5291C-14.6733 50.6429 150.973 51.3991 150.973 73.2853L150.972 73.2872Z" fill="#8F6740"/>
<path d="M151.217 70.805C151.217 88.5458 114.054 102.927 68.2129 102.927C22.3716 102.927 -14.791 88.5458 -14.791 70.805C-14.791 53.0643 22.3716 38.6832 68.2129 38.6832C114.054 38.6832 151.217 53.0643 151.217 70.805Z" fill="#CF9D6A"/>
<path d="M146.628 70.8049C146.628 86.2531 111.521 98.7739 68.2128 98.7739C24.9049 98.7739 -10.2046 86.2512 -10.2046 70.8049C-10.2046 55.3585 24.9049 42.834 68.2128 42.834C111.521 42.834 146.628 55.3567 146.628 70.8049Z" fill="#A97C50"/>
<path opacity="0.6" d="M68.2113 88.0694C97.4998 88.0694 121.243 80.3399 121.243 70.8051C121.243 61.2703 97.4998 53.5409 68.2113 53.5409C38.9227 53.5409 15.1797 61.2703 15.1797 70.8051C15.1797 80.3399 38.9227 88.0694 68.2113 88.0694Z" fill="#8F6842"/>
<path d="M68.2111 84.7374C94.8057 84.7374 116.365 78.4998 116.365 70.8054C116.365 63.1109 94.8057 56.8733 68.2111 56.8733C41.6164 56.8733 20.0571 63.1109 20.0571 70.8054C20.0571 78.4998 41.6164 84.7374 68.2111 84.7374Z" fill="#B3855A"/>
<g clip-path="url(#clip1_516_5872)">
<path d="M101.977 56.2129C101.76 58.7712 98.2128 60.0977 96.7505 61.3238C93.8172 63.7923 90.5929 65.8598 87.2068 67.4169C83.1332 69.3043 76.9512 70.7323 70.7107 70.7323C64.4699 70.7323 58.8105 69.4057 54.513 67.4169C52.662 66.5654 50.8605 65.5602 49.127 64.4211H49.1249C47.6901 63.4771 46.3018 62.4412 44.9722 61.3238C43.5101 60.0987 39.9629 58.7712 39.7462 56.2129C39.5184 53.4101 41.2611 52.7281 43.0919 50.5048C44.2513 49.1015 47.6577 43.3422 53.627 39.1598C55.8132 37.6293 61.1182 34.25 70.4808 34.25C79.8432 34.25 87.8224 38.9558 90.0169 40.7573C90.0959 40.8213 90.1729 40.8844 90.2496 40.9524C94.8926 44.8353 97.6185 49.2789 98.6292 50.5048C100.46 52.7291 102.204 53.4111 101.977 56.2129Z" fill="#E6E7E8"/>
<path opacity="0.07" d="M101.977 56.213C101.76 58.7713 98.2128 60.0978 96.7508 61.3239C93.8171 63.7924 90.5929 65.8602 87.2068 67.417C83.1332 69.3045 76.9512 70.7324 70.7107 70.7324C64.4699 70.7324 58.8105 69.4058 54.513 67.417C52.6619 66.5658 50.8605 65.5604 49.127 64.4212C63.4229 69.8464 90.4521 66.8977 89.4952 47.1878C89.4952 47.1878 90.6092 49.2918 91.4891 48.9725C92.9494 48.4492 94.041 45.5578 90.2496 40.9535C94.8926 44.8364 97.6185 49.28 98.6292 50.5059C100.46 52.7302 102.204 53.4122 101.977 56.214V56.213Z" fill="#231F20"/>
<path d="M65.9016 45.2689C66.9668 46.6969 65.215 49.7037 61.9879 51.9851C58.7627 54.2646 55.2824 54.9554 54.2172 53.5264C53.1509 52.0984 54.9027 49.0907 58.1278 46.8122C61.354 44.5308 64.8343 43.8399 65.9016 45.2689Z" fill="#F7F7F7"/>
<path d="M95.421 54.4676C94.4065 52.6474 90.2275 43.3679 79.905 39.9039C77.6712 39.1539 75.3615 38.675 72.998 38.5193C72.268 38.471 70.2165 38.4621 69.9289 38.466C67.0986 38.5045 64.3362 39.013 61.6812 39.9039C51.3597 43.3679 47.1807 52.6474 46.1661 54.4676C45.1515 56.2878 43.3855 55.5665 42.6382 55.0343C42.943 56.2346 44.5449 56.8949 45.5687 56.7195C46.5924 56.5441 47.5179 55.3073 48.4678 53.3363C50.3644 49.3982 54.3429 44.4825 61.9354 41.9774C64.5306 41.121 67.1715 40.7061 69.781 40.6854C70.0311 40.6834 71.6108 40.6824 71.8832 40.6854C74.4672 40.7149 77.0819 41.1289 79.6529 41.9764C87.2454 44.4815 91.2237 49.3972 93.1204 53.3353C94.0704 55.3063 94.9957 56.5431 96.0194 56.7185C97.0434 56.8939 98.6452 56.2326 98.9489 55.0333C98.2017 55.5665 96.4358 56.2878 95.421 54.4666V54.4676Z" fill="#D1D3D4"/>
</g>
<g clip-path="url(#clip2_516_5872)">
<path d="M70.7461 61.8981C70.5295 64.4752 66.9825 65.8115 65.5202 67.0455C62.5866 69.5324 59.3626 71.6151 55.9765 73.1837C51.9026 75.0847 45.7209 76.5232 39.4801 76.5232C33.2394 76.5232 27.58 75.1869 23.2825 73.1837C21.4315 72.326 19.6301 71.3134 17.8965 70.1655H17.8945C16.4596 69.2146 15.0713 68.1714 13.7418 67.0455C12.2796 65.8115 8.73244 64.4752 8.51574 61.8981C8.28791 59.0747 10.0306 58.3877 11.8614 56.1471C13.0208 54.7334 16.4272 48.9318 22.3965 44.7186C24.5827 43.1759 29.8877 39.7717 39.2502 39.7717C48.6127 39.7717 56.5921 44.5121 58.7863 46.3268C58.8653 46.3914 58.9423 46.4549 59.0193 46.5234C63.6621 50.4348 66.3879 54.9111 67.3986 56.1461C69.2293 58.3867 70.9741 59.0737 70.7461 61.8971V61.8981Z" fill="#F5BDBD"/>
<path opacity="0.07" d="M70.7461 61.8981C70.5295 64.4753 66.9825 65.8115 65.5202 67.0455C62.5866 69.5324 59.3626 71.6152 55.9765 73.1837C51.9026 75.0848 45.7209 76.5232 39.4801 76.5232C33.2394 76.5232 27.58 75.1872 23.2825 73.1837C21.4315 72.326 19.6301 71.3134 17.8965 70.1658C32.1924 75.6307 59.2218 72.6606 58.2649 52.8055C58.2649 52.8055 59.3787 54.925 60.2588 54.6034C61.7189 54.0762 62.8104 51.1635 59.0193 46.5244C63.6621 50.4358 66.3879 54.9121 67.3986 56.1471C69.2293 58.3878 70.9741 59.0747 70.7461 61.8981Z" fill="#231F20"/>
<path d="M34.6711 50.8726C35.7364 52.3111 33.9846 55.341 30.7574 57.6392C27.5323 59.9354 24.052 60.6303 22.9867 59.1909C21.9204 57.7524 23.6722 54.7225 26.8973 52.4273C30.1235 50.1301 33.6038 49.4332 34.6711 50.8726Z" fill="#F7D4D4"/>
<path d="M64.1907 60.1389C63.1759 58.3053 58.9969 48.9576 48.6745 45.468C46.4406 44.7126 44.1309 44.2301 41.7674 44.0732C41.0374 44.0246 38.9859 44.0157 38.6983 44.0196C35.8681 44.0583 33.1058 44.5706 30.4507 45.468C20.1293 48.9576 15.9503 58.3053 14.9356 60.1389C13.921 61.9725 12.155 61.2458 11.4077 60.7097C11.7125 61.9189 13.3145 62.584 14.3382 62.4073C15.3619 62.2306 16.2875 60.9847 17.2373 58.9992C19.1339 55.0322 23.1124 50.0804 30.7049 47.5568C33.3002 46.6941 35.9411 46.2761 38.5507 46.2553C38.8006 46.2533 40.3803 46.2523 40.6526 46.2553C43.2369 46.2841 45.8514 46.702 48.4224 47.5558C56.0148 50.0794 59.9934 55.0312 61.8901 58.9982C62.8398 60.9837 63.7654 62.2296 64.7891 62.4063C65.8128 62.583 67.4147 61.9169 67.7186 60.7087C66.9711 61.2458 65.2052 61.9725 64.1907 60.1379V60.1389Z" fill="#EDA6A6"/>
</g>
<g clip-path="url(#clip3_516_5872)">
<path d="M119.228 69.9778C119.012 72.555 115.464 73.8912 114.002 75.1251C111.068 77.6109 107.844 79.6948 104.458 81.2633C100.385 83.1643 94.2027 84.6028 87.9619 84.6028C81.7213 84.6028 76.0609 83.2667 71.7644 81.2633C69.9134 80.4056 68.112 79.393 66.3784 78.2454H66.3764C64.9405 77.2942 63.5532 76.251 62.2247 75.1251C60.7625 73.8912 57.2153 72.555 56.9987 69.9778C56.7708 67.1544 58.5135 66.4674 60.3443 64.2268C61.5037 62.8131 64.9101 57.0115 70.8794 52.7983C73.0646 51.2565 78.3696 47.8524 87.7323 47.8524C97.0947 47.8524 105.074 52.5928 107.268 54.4075C107.347 54.4711 107.424 54.5356 107.501 54.6041C112.144 58.5155 114.87 62.9918 115.88 64.2268C117.711 66.4674 119.456 67.1544 119.228 69.9778Z" fill="#A3C2AA"/>
<path opacity="0.07" d="M119.228 69.9778C119.012 72.555 115.464 73.8912 114.002 75.1251C111.068 77.611 107.844 79.6948 104.458 81.2633C100.386 83.1644 94.2027 84.6028 87.9619 84.6028C81.7214 84.6028 76.0609 83.2668 71.7644 81.2633C69.9134 80.4056 68.112 79.393 66.3784 78.2454C80.6743 83.7106 107.704 80.7402 106.747 60.8852C106.747 60.8852 107.861 63.0047 108.741 62.6831C110.201 62.156 111.292 59.2432 107.501 54.6051C112.144 58.5165 114.87 62.9928 115.88 64.2278C117.711 66.4684 119.456 67.1554 119.228 69.9788V69.9778Z" fill="#231F20"/>
<path d="M83.153 58.9533C84.2183 60.3918 82.4665 63.4217 79.2393 65.7199C76.0142 68.0161 72.5339 68.712 71.4686 67.2725C70.4023 65.834 72.1541 62.8042 75.3793 60.5089C78.6054 58.2117 82.0858 57.5148 83.153 58.9543V58.9533Z" fill="#BCD6C2"/>
<path d="M112.672 68.2186C111.658 66.385 107.479 57.0373 97.1565 53.5478C94.9227 52.7923 92.613 52.3098 90.2495 52.153C89.5195 52.1043 87.4679 52.0954 87.1804 52.0993C84.3501 52.1381 81.5877 52.6503 78.9327 53.5478C68.6112 57.0373 64.4312 66.385 63.4176 68.2186C62.403 70.0522 60.6359 69.3255 59.8896 68.7894C60.1945 69.9986 61.7964 70.6637 62.8191 70.487C63.8429 70.3103 64.7684 69.0634 65.7182 67.0789C67.6148 63.1119 71.5933 58.1611 79.1858 55.6365C81.7811 54.7738 84.422 54.3559 87.0313 54.335C87.2815 54.333 88.8612 54.333 89.1335 54.335C91.7178 54.3648 94.3334 54.7818 96.9033 55.6355C104.496 58.1591 108.474 63.1109 110.371 67.0779C111.321 69.0634 112.246 70.3093 113.27 70.486C114.294 70.6627 115.895 69.9966 116.2 68.7884C115.453 69.3255 113.686 70.0522 112.672 68.2176L112.672 68.2186Z" fill="#8BB396"/>
</g>
<g clip-path="url(#clip4_516_5872)">
<path d="M84.5986 79.2848C84.382 81.8619 80.835 83.1982 79.3727 84.4322C76.4382 86.9191 73.2151 89.0018 69.829 90.5714C65.7562 92.4725 59.5734 93.9109 53.3326 93.9109C47.0919 93.9109 41.4315 92.5746 37.135 90.5714C35.284 89.7137 33.4826 88.7011 31.749 87.5525H31.747C30.3111 86.6024 28.9238 85.558 27.5953 84.4322C26.1331 83.1982 22.586 81.8619 22.3693 79.2848C22.1414 76.4614 23.8841 75.7744 25.7149 73.5338C26.8743 72.1201 30.2807 66.3185 36.25 62.1053C38.4352 60.5636 43.7402 57.1594 53.1027 57.1594C62.4652 57.1594 70.4446 61.8988 72.6388 63.7145C72.7178 63.7781 72.7948 63.8426 72.8718 63.9111C77.5146 67.8225 80.2404 72.2988 81.2511 73.5328C83.0818 75.7734 84.8266 76.4604 84.5986 79.2838V79.2848Z" fill="#FAC78A"/>
<path opacity="0.07" d="M84.5987 79.2847C84.382 81.8618 80.835 83.1981 79.3727 84.4321C76.4383 86.919 73.2151 89.0017 69.8291 90.5713C65.7562 92.4724 59.5734 93.9108 53.3327 93.9108C47.092 93.9108 41.4315 92.5745 37.135 90.5713C35.284 89.7136 33.4826 88.701 31.749 87.5524C46.0449 93.0172 73.0744 90.0471 72.1175 70.1921C72.1175 70.1921 73.2312 72.3116 74.1114 71.99C75.5714 71.4628 76.663 68.5511 72.8719 63.912C77.5146 67.8234 80.2405 72.2997 81.2511 73.5337C83.0818 75.7743 84.8267 76.4613 84.5987 79.2847Z" fill="#231F20"/>
<path d="M48.5237 68.2603C49.5889 69.6988 47.8371 72.7277 44.6099 75.0269C41.3848 77.3231 37.9045 78.019 36.8392 76.5796C35.773 75.1411 37.5248 72.1102 40.7499 69.815C43.9761 67.5177 47.4564 66.8208 48.5237 68.2613V68.2603Z" fill="#F7DDBC"/>
<path d="M78.0431 77.5266C77.0286 75.693 72.8496 66.3453 62.5269 62.8558C60.2934 62.1003 57.9834 61.6178 55.6202 61.4609C54.8899 61.4123 52.8384 61.4034 52.5508 61.4073C49.7207 61.447 46.9583 61.9583 44.3032 62.8558C33.9818 66.3453 29.8018 75.693 28.7882 77.5266C27.7735 79.3602 26.0065 78.6335 25.2603 78.0974C25.565 79.3066 27.167 79.9717 28.1897 79.795C29.2134 79.6183 30.139 78.3714 31.0888 76.3869C32.9854 72.4199 36.9639 67.4681 44.5564 64.9445C47.1517 64.0818 49.7926 63.6639 52.402 63.643C52.6522 63.641 54.2319 63.641 54.5042 63.643C57.0882 63.6728 59.7038 64.0898 62.274 64.9435C69.8664 67.4671 73.8448 72.4189 75.7415 76.3859C76.6914 78.3704 77.6168 79.6173 78.6405 79.794C79.6644 79.9707 81.2652 79.3046 81.5699 78.0964C80.8239 78.6335 79.0569 79.3602 78.042 77.5256L78.0431 77.5266Z" fill="#E6B273"/>
</g>
<rect width="128" height="128" fill="url(#paint1_linear_516_5872)"/>
</g>
<defs>
<linearGradient id="paint0_linear_516_5872" x1="64" y1="0" x2="64" y2="128" gradientUnits="userSpaceOnUse">
<stop stop-color="#203F76"/>
<stop offset="1" stop-color="#797F6C"/>
</linearGradient>
<linearGradient id="paint1_linear_516_5872" x1="64" y1="0" x2="64" y2="128" gradientUnits="userSpaceOnUse">
<stop stop-opacity="0"/>
<stop offset="1" stop-opacity="0.6"/>
</linearGradient>
<clipPath id="clip0_516_5872">
<rect width="128" height="128" fill="white"/>
</clipPath>
<clipPath id="clip1_516_5872">
<rect width="62.3353" height="36.9394" fill="white" transform="translate(39.6636 34)"/>
</clipPath>
<clipPath id="clip2_516_5872">
<rect width="62.3353" height="36.9394" fill="white" transform="translate(8.49561 39.7717)"/>
</clipPath>
<clipPath id="clip3_516_5872">
<rect width="62.3353" height="36.9394" fill="white" transform="translate(56.9785 47.8524)"/>
</clipPath>
<clipPath id="clip4_516_5872">
<rect width="62.3353" height="36.9394" fill="white" transform="translate(22.3481 57.0872)"/>
</clipPath>
</defs>
</svg>
