<svg width="64" height="38" viewBox="0 0 64 38" fill="none" xmlns="http://www.w3.org/2000/svg">
<g clip-path="url(#clip0_2_243)">
<path d="M55.8922 24.8924C54.807 26.9571 51.4487 26.8401 49.8233 27.3591C46.5585 28.4095 43.1999 29.024 39.8906 29.1555C35.9043 29.3252 30.3654 28.3822 25.2858 26.2245C20.2063 24.0669 16.0711 21.0007 13.2796 17.8518C12.0754 16.4997 10.9663 15.0362 9.96004 13.4839L9.95839 13.4832C9.12586 12.1976 8.3638 10.8515 7.67864 9.45711C6.92369 7.92704 4.50775 5.59128 5.24024 3.37673C6.05047 0.953932 7.71119 0.986097 9.99152 -0.241135C11.4338 -1.01392 16.2524 -4.65281 22.5968 -6.0869C24.9203 -6.61183 30.4388 -7.60384 38.0593 -4.36685C45.6798 -1.12984 50.503 5.56455 51.6489 7.82983C51.6904 7.91068 51.7307 7.99006 51.7693 8.07356C54.1688 12.9261 54.8089 17.5849 55.196 18.9596C55.8959 21.4528 57.0738 22.6264 55.8925 24.8916L55.8922 24.8924Z" fill="#F5BDBD"/>
<path opacity="0.07" d="M55.8923 24.8924C54.8071 26.9571 51.4488 26.8402 49.8234 27.3591C46.5586 28.4095 43.2 29.024 39.8907 29.1555C35.9044 29.3252 30.3655 28.3822 25.2859 26.2245C20.2064 24.0669 16.0711 21.0009 13.2797 17.8518C12.0755 16.4997 10.9664 15.0362 9.96005 13.4841C19.6689 22.9639 42.7167 29.8432 48.9399 13.0283C48.9399 13.0283 49.0989 15.173 49.9288 15.2103C51.3031 15.2774 53.2187 13.2366 51.769 8.07439C54.1685 12.9269 54.8086 17.5857 55.1957 18.9604C55.8956 21.4536 57.0736 22.6272 55.8923 24.8924Z" fill="#231F20"/>
<path d="M30.4174 3.26622C30.7772 4.8288 28.2828 6.7386 24.8456 7.53085C21.4108 8.32215 18.3329 7.6958 17.9735 6.13241C17.6129 4.56949 20.1073 2.65969 23.5418 1.86922C26.9778 1.07743 30.0564 1.70214 30.4174 3.26622Z" fill="#F7D4D4"/>
<path d="M51.1769 21.1654C50.9975 19.2922 50.8926 10.0867 43.7213 3.62076C42.1696 2.22123 40.4597 1.02208 38.5913 0.0747028C38.0143 -0.218081 36.3476 -0.934776 36.1121 -1.03091C33.7949 -1.97729 31.3658 -2.50707 28.8883 -2.67995C19.2566 -3.35144 12.5586 2.96435 11.0861 4.13585C9.61359 5.30735 8.43246 4.09346 8.01326 3.39001C7.83493 4.49928 8.90424 5.60536 9.79982 5.8126C10.6954 6.01984 11.8881 5.30547 13.3614 3.98546C16.3041 1.34768 21.2887 -1.38788 28.3585 -0.857968C30.7752 -0.676901 33.0721 -0.110811 35.2035 0.774121C35.4076 0.858875 36.6937 1.40424 36.9144 1.50085C39.0077 2.41825 40.9883 3.66919 42.7799 5.2669C48.0697 9.98704 49.5618 15.4737 49.7066 19.423C49.7794 21.3997 50.0934 22.7541 50.8643 23.2548C51.6352 23.7554 53.174 23.7562 53.8474 22.8582C53.0496 23.0457 51.356 23.0385 51.1772 21.1646L51.1769 21.1654Z" fill="#EDA6A6"/>
</g>
<defs>
<clipPath id="clip0_2_243">
<rect width="55.125" height="33.32" fill="white" transform="translate(13.0269 -15) rotate(23.0146)"/>
</clipPath>
</defs>
</svg>
