<svg width="84" height="57" viewBox="0 0 84 57" fill="none" xmlns="http://www.w3.org/2000/svg">
<g clip-path="url(#clip0_2_242)">
<path d="M80.9094 28.1153C81.0349 31.4212 76.8226 33.6519 75.191 35.439C71.9182 39.0376 68.2242 42.169 64.2483 44.6705C59.4682 47.6975 51.9898 50.4543 44.2186 51.3928C36.4475 52.3312 29.194 51.4854 23.5366 49.5868C21.1 48.7757 18.7015 47.7604 16.3668 46.5636L16.3642 46.5639C14.4303 45.5716 12.5429 44.4551 10.7158 43.2249C8.70579 41.8775 4.0838 40.7137 3.41867 37.4729C2.70191 33.9211 4.76661 32.7865 6.7027 29.6652C7.92965 27.6953 11.2816 19.8142 18.0685 13.5652C20.5531 11.2784 26.6371 6.15689 38.2958 4.74901C49.9543 3.34114 60.6174 8.16223 63.6281 10.1373C63.7365 10.2061 63.8419 10.2765 63.9483 10.3519C70.3296 14.6219 74.4108 19.8975 75.8584 21.3141C78.4821 23.8847 80.7599 24.4949 80.9094 28.1153Z" fill="#A3C2AA"/>
<path opacity="0.07" d="M80.9092 28.1153C81.0348 31.4212 76.8225 33.6519 75.1909 35.439C71.918 39.0376 68.2241 42.1691 64.2482 44.6705C59.4681 47.6975 51.9896 50.4543 44.2184 51.3928C36.4474 52.3312 29.1939 51.4854 23.5365 49.5868C21.0999 48.7757 18.7014 47.7605 16.3667 46.5636C35.0067 51.3554 68.2092 43.5181 63.9722 18.4433C63.9722 18.4433 65.6845 20.9679 66.7309 20.427C68.4681 19.5379 69.3806 15.6742 63.9484 10.3532C70.3296 14.6231 74.4109 19.8987 75.8585 21.3154C78.4822 23.886 80.7599 24.4962 80.9094 28.1166L80.9092 28.1153Z" fill="#231F20"/>
<path d="M34.2963 19.5373C35.8435 21.2042 34.1268 25.316 30.4607 28.7203C26.7968 32.1219 22.5697 33.5291 21.0224 31.8609C19.474 30.1942 21.1907 26.0824 24.8548 22.6822C28.5197 19.2793 32.7467 17.8707 34.2965 19.5386L34.2963 19.5373Z" fill="#BCD6C2"/>
<path d="M72.4761 26.8667C70.9315 24.6903 64.294 13.4458 50.9048 10.5658C48.0073 9.94216 45.0571 9.67668 42.09 9.83285C41.1735 9.88084 38.6175 10.178 38.26 10.2263C34.7415 10.7011 31.3803 11.7671 28.2118 13.3062C15.8943 19.2905 12.1229 31.792 11.142 34.2733C10.1598 36.7548 7.84795 36.0975 6.83643 35.5289C7.40144 37.0188 9.49825 37.6228 10.7447 37.2446C11.9924 36.8662 12.9536 35.1433 13.832 32.4798C15.5853 27.156 19.7801 20.2694 28.8474 15.9211C31.9468 14.4351 35.1712 13.5072 38.4173 13.0883C38.7285 13.0482 40.6956 12.8106 41.0351 12.7722C44.2577 12.4214 47.5787 12.5577 50.9097 13.2557C60.7512 15.3193 66.4651 21.0105 69.4353 25.764C70.9225 28.143 72.2662 29.5863 73.568 29.6568C74.8699 29.7273 76.7614 28.6405 76.9556 27.0601C76.1085 27.8545 74.0197 29.0432 72.4749 26.8656L72.4761 26.8667Z" fill="#8BB396"/>
</g>
<defs>
<clipPath id="clip0_2_242">
<rect width="78.1863" height="47.2593" fill="white" transform="translate(0 9.37354) rotate(-6.8856)"/>
</clipPath>
</defs>
</svg>
