<svg xmlns="http://www.w3.org/2000/svg" width="335" height="60" viewBox="0 0 335 60" fill="none">
  <path d="M20.1307 54.6C20.1307 36.4 20.1307 18.2 20.1307 0C22.6769 0 25.217 0 27.7633 0C27.7633 6.8375 27.7633 13.675 27.7633 20.5063C28.3891 20.45 29.0211 20.3938 29.6469 20.3375C29.6469 13.5563 29.6469 6.78125 29.6469 0C32.1931 0 34.7394 0 37.2795 0C37.2795 16.85 37.2795 33.7 37.2795 50.55C34.7394 51.1187 32.1931 51.7 29.6469 52.2937C29.6469 45.1437 29.6469 37.9937 29.6469 30.8438C29.0211 30.9312 28.3891 31.0188 27.7633 31.1063C27.7633 38.3187 27.7633 45.525 27.7633 52.7375C25.217 53.35 22.6769 53.9688 20.1307 54.6ZM0 60C1.40504 39.7313 2.81007 19.7375 4.20897 0C7.7185 0 11.228 0 14.7375 0C16.1426 18.5375 17.5415 36.8375 18.9465 54.9C16.3757 55.5562 13.7988 56.225 11.228 56.9062C10.6451 43.75 10.0561 30.525 9.47326 17.225C8.89038 30.6937 8.30137 44.2312 7.7185 57.85C5.14771 58.5562 2.57079 59.2687 0 60ZM41.9118 49.5437C41.9118 33.025 41.9118 16.5125 41.9118 0C49.4953 0 57.085 0 64.6746 0C64.6746 2.75625 64.6746 5.5125 64.6746 8.26875C60.0055 8.41875 55.3425 8.58125 50.6795 8.74375C50.6795 12.225 50.6795 15.7063 50.6795 19.1812C55.0541 18.8375 59.4226 18.5125 63.7973 18.1938C63.7973 20.9563 63.7973 23.725 63.7973 26.4875C59.4226 26.95 55.0541 27.4312 50.6795 27.925C50.6795 31.6125 50.6795 35.3 50.6795 38.9875C57.042 37.9813 60.7663 37.0375 65.7668 35.1C65.7668 38.375 65.7668 41.65 65.7668 44.925C57.8151 46.3562 49.8635 47.8937 41.9118 49.5437ZM65.5459 26.3062C65.5459 23.5625 65.5459 20.8188 65.5459 18.0688C66.8773 17.975 68.2087 17.8875 69.5401 17.7937C69.5401 11.8625 69.5401 5.93125 69.5401 0C72.4668 0 75.3873 0 78.3139 0C78.3139 14.2938 78.3139 28.5875 78.3139 42.8875C75.3873 43.3375 72.4668 43.8 69.5401 44.2812C69.5401 38.1562 69.5401 32.0312 69.5401 25.9125C68.2087 26.0437 66.8773 26.175 65.5459 26.3062ZM82.9401 23.2437C82.9401 15.4937 82.9401 7.75 82.9401 0C85.8668 0 88.7873 0 91.7139 0C91.7139 1.18125 91.7139 2.35625 91.7139 3.5375C93.9043 3.5125 96.1008 3.4875 98.2912 3.46875C98.2912 2.3125 98.2912 1.15625 98.2912 0C101.218 0 104.138 0 107.065 0C107.065 7.2 107.065 14.4 107.065 21.6063C99.0213 22.0938 90.9838 22.6375 82.9401 23.2437ZM109.255 27.0125C109.255 18.0125 109.255 9.00625 109.255 0C112.182 0 115.103 0 118.029 0C118.029 2.69375 118.029 5.3875 118.029 8.08125C119.342 8.05625 120.661 8.0375 121.974 8.0125C121.974 10.55 121.974 13.0875 121.974 15.625C120.661 15.6687 119.342 15.7125 118.029 15.7562C118.029 19.325 118.029 22.8938 118.029 26.4563C115.103 26.6313 112.182 26.8188 109.255 27.0125ZM95.0026 4.8C94.8676 9.79375 92.1066 12.875 88.683 13.1625C92.1925 13.1625 95.0026 16.2188 95.0026 21.4C95.0026 16.2188 97.8065 12.9375 101.316 12.6688C97.8985 12.65 95.1314 9.78125 95.0026 4.8ZM82.9401 26.1375C85.8668 25.8813 88.7873 25.6375 91.7139 25.3938C91.7139 28.0938 91.7139 30.7938 91.7139 33.4875C94.9289 33.1437 98.144 32.8125 101.359 32.4938C107.065 31.9438 113.207 31 118.25 29.8312C118.25 32.6125 118.25 35.3938 118.25 38.175C106.476 39.2812 94.7081 40.625 82.9401 42.2C82.9401 36.8438 82.9401 31.4937 82.9401 26.1375ZM141.884 6.06875C141.884 6.475 141.884 6.875 141.884 7.28125C145.173 7.25625 148.461 7.23125 151.75 7.2125C151.75 8.775 151.75 10.3313 151.75 11.8938C149.468 12.6438 145.565 13.1687 141.884 13.2188C141.884 13.6375 141.884 14.0562 141.884 14.475C145.565 14.4187 149.511 14.0625 152.407 13.0438C152.407 15.475 152.407 17.9125 152.407 20.3438C146.357 20.4438 140.301 20.5875 134.252 20.7625C134.252 13.8375 134.252 6.91875 134.252 0C140.086 0 145.915 0 151.75 0C151.75 2.00625 151.75 4.00625 151.75 6.0125C148.461 6.025 145.173 6.04375 141.884 6.06875ZM153.505 20.325C153.505 13.55 153.505 6.775 153.505 0C156.051 0 158.591 0 161.137 0C161.137 2.125 161.137 4.24375 161.137 6.36875C161.763 6.3625 162.395 6.3625 163.021 6.3625C163.021 4.24375 163.021 2.11875 163.021 0C165.567 0 168.107 0 170.654 0C170.654 6.74375 170.654 13.4938 170.654 20.2375C168.107 20.2313 165.567 20.2375 163.021 20.2437C163.021 18.0375 163.021 15.8312 163.021 13.625C162.395 13.625 161.763 13.625 161.137 13.6312C161.137 15.8375 161.137 18.0438 161.137 20.25C158.591 20.2688 156.051 20.2938 153.505 20.325ZM170.654 36.1188C167.733 36.1125 164.807 36.1188 161.88 36.1375C161.88 33.3312 161.88 30.5312 161.88 27.725C152.67 27.85 143.461 28.0812 134.252 28.425C134.252 26.3062 134.252 24.1938 134.252 22.075C146.388 21.7375 158.518 21.5562 170.654 21.5187C170.654 26.3875 170.654 31.2563 170.654 36.1188ZM202.914 37.1813C202.914 24.7875 202.914 12.3938 202.914 0C205.835 0 208.761 0 211.688 0C211.688 12.5938 211.688 25.1812 211.688 37.775C208.761 37.5625 205.835 37.3625 202.914 37.1813ZM174.402 36.1562C176.887 24.125 179.378 12.075 181.863 0C185.808 0 189.754 0 193.705 0C196.19 12.2687 198.675 24.625 201.16 37.075C198.092 36.9062 195.018 36.7562 191.95 36.6188C190.557 28.0375 189.171 19.4813 187.784 10.95C186.391 19.425 185.005 27.8875 183.618 36.3312C180.544 36.2563 177.476 36.2 174.402 36.1562ZM235.568 40.0562C235.568 26.7062 235.568 13.35 235.568 0C238.114 0 240.654 0 243.2 0C243.2 5.3125 243.2 10.625 243.2 15.9438C243.826 15.975 244.458 16.0063 245.084 16.0375C245.084 10.6937 245.084 5.34375 245.084 0C247.63 0 250.176 0 252.716 0C252.716 14.1 252.716 28.2 252.716 42.2937C250.176 41.9312 247.63 41.5813 245.084 41.2375C245.084 35.6 245.084 29.9625 245.084 24.325C244.458 24.275 243.826 24.225 243.2 24.1812C243.2 29.7812 243.2 35.3875 243.2 40.9937C240.654 40.6687 238.114 40.3562 235.568 40.0562ZM216.314 38.1437C216.314 25.425 216.314 12.7125 216.314 0C222.161 0 228.009 0 233.856 0C233.856 2.43125 233.856 4.86875 233.856 7.30625C230.862 7.24375 227.861 7.1875 224.867 7.13125C224.867 15.35 224.867 23.5688 224.867 31.7875C228.291 32.0687 231.402 31.9125 234.469 31.2C234.469 34.1125 234.469 37.0187 234.469 39.9313C228.42 39.275 222.364 38.675 216.314 38.1437ZM275.111 8.425C274.51 8.4 273.909 8.38125 273.307 8.3625C273.497 11.5 273.694 14.6437 273.884 17.7937C274.89 17.8625 275.896 17.9312 276.909 18.0063C276.909 12.0062 276.909 6 276.909 0C279.449 0 281.995 0 284.535 0C284.541 15.925 284.541 31.85 284.541 47.775C281.995 47.275 279.449 46.7812 276.909 46.3062C276.909 39.975 276.909 33.6437 276.909 27.3125C276.074 27.2188 275.24 27.1312 274.405 27.0375C274.786 33.3562 275.166 39.6937 275.547 46.05C273.007 45.5875 270.46 45.1375 267.914 44.7C267.386 32.4437 266.865 20.2437 266.337 8.0875C265.81 20.1625 265.282 32.1875 264.76 44.1687C262.214 43.75 259.668 43.3438 257.128 42.95C257.87 31.3438 258.619 19.6688 259.361 7.93125C258.619 7.9125 257.87 7.8875 257.128 7.86875C257.128 5.24375 257.128 2.625 257.128 0C263.122 0 269.117 0 275.111 0C275.111 2.80625 275.111 5.6125 275.111 8.425ZM286.118 48.0938C286.118 32.0625 286.118 16.0312 286.118 0C288.664 0 291.205 0 293.751 0C293.751 16.5625 293.751 33.125 293.751 49.6812C291.205 49.1437 288.664 48.6125 286.118 48.0938ZM321.582 21.3062C321.582 17.6437 321.582 13.9812 321.582 10.3188C320.557 10.2688 319.532 10.225 318.508 10.175C319.765 17.0312 321.023 23.975 322.281 30.9937C319.281 30.5625 316.287 30.1437 313.286 29.7313C312.268 23 311.243 16.3375 310.219 9.73125C309.194 16.1812 308.169 22.5812 307.151 28.9125C304.151 28.525 301.156 28.15 298.156 27.7812C299.414 21.7313 300.672 15.6188 301.929 9.4375C300.672 9.38125 299.414 9.33125 298.156 9.28125C298.156 6.1875 298.156 3.09375 298.156 0C306.2 0 314.237 0 322.281 0C322.281 3.3375 322.281 6.68125 322.281 10.0188C323.52 10.075 324.766 10.1375 326.011 10.1937C326.011 6.8 326.011 3.4 326.011 0C328.932 0 331.859 0 334.779 0C334.779 13.8375 334.779 27.675 334.779 41.5187C331.859 40.9437 328.932 40.3812 326.011 39.8312C326.011 33.8062 326.011 27.775 326.011 21.75C324.533 21.6 323.054 21.45 321.582 21.3062ZM298.377 31.1C301.304 31.5062 304.224 31.9188 307.151 32.3375C307.151 35.9125 307.151 39.4875 307.151 43.0563C310.801 43.7562 314.458 44.475 318.115 45.2063C323.815 46.3563 329.957 47.0188 335 46.8813C335 51.25 335 55.625 335 60C322.79 56.6437 310.587 53.5438 298.377 50.6937C298.377 44.1625 298.377 37.6312 298.377 31.1Z" fill="url(#paint0_linear_229_15523)"/>
  <path d="M20.1307 54.6C20.1307 36.4 20.1307 18.2 20.1307 0C22.6769 0 25.217 0 27.7633 0C27.7633 6.8375 27.7633 13.675 27.7633 20.5063C28.3891 20.45 29.0211 20.3938 29.6469 20.3375C29.6469 13.5563 29.6469 6.78125 29.6469 0C32.1931 0 34.7394 0 37.2795 0C37.2795 16.85 37.2795 33.7 37.2795 50.55C34.7394 51.1187 32.1931 51.7 29.6469 52.2937C29.6469 45.1437 29.6469 37.9937 29.6469 30.8438C29.0211 30.9312 28.3891 31.0188 27.7633 31.1063C27.7633 38.3187 27.7633 45.525 27.7633 52.7375C25.217 53.35 22.6769 53.9688 20.1307 54.6ZM0 60C1.40504 39.7313 2.81007 19.7375 4.20897 0C7.7185 0 11.228 0 14.7375 0C16.1426 18.5375 17.5415 36.8375 18.9465 54.9C16.3757 55.5562 13.7988 56.225 11.228 56.9062C10.6451 43.75 10.0561 30.525 9.47326 17.225C8.89038 30.6937 8.30137 44.2312 7.7185 57.85C5.14771 58.5562 2.57079 59.2687 0 60ZM41.9118 49.5437C41.9118 33.025 41.9118 16.5125 41.9118 0C49.4953 0 57.085 0 64.6746 0C64.6746 2.75625 64.6746 5.5125 64.6746 8.26875C60.0055 8.41875 55.3425 8.58125 50.6795 8.74375C50.6795 12.225 50.6795 15.7063 50.6795 19.1812C55.0541 18.8375 59.4226 18.5125 63.7973 18.1938C63.7973 20.9563 63.7973 23.725 63.7973 26.4875C59.4226 26.95 55.0541 27.4312 50.6795 27.925C50.6795 31.6125 50.6795 35.3 50.6795 38.9875C57.042 37.9813 60.7663 37.0375 65.7668 35.1C65.7668 38.375 65.7668 41.65 65.7668 44.925C57.8151 46.3562 49.8635 47.8937 41.9118 49.5437ZM65.5459 26.3062C65.5459 23.5625 65.5459 20.8188 65.5459 18.0688C66.8773 17.975 68.2087 17.8875 69.5401 17.7937C69.5401 11.8625 69.5401 5.93125 69.5401 0C72.4668 0 75.3873 0 78.3139 0C78.3139 14.2938 78.3139 28.5875 78.3139 42.8875C75.3873 43.3375 72.4668 43.8 69.5401 44.2812C69.5401 38.1562 69.5401 32.0312 69.5401 25.9125C68.2087 26.0437 66.8773 26.175 65.5459 26.3062ZM82.9401 23.2437C82.9401 15.4937 82.9401 7.75 82.9401 0C85.8668 0 88.7873 0 91.7139 0C91.7139 1.18125 91.7139 2.35625 91.7139 3.5375C93.9043 3.5125 96.1008 3.4875 98.2912 3.46875C98.2912 2.3125 98.2912 1.15625 98.2912 0C101.218 0 104.138 0 107.065 0C107.065 7.2 107.065 14.4 107.065 21.6063C99.0213 22.0938 90.9838 22.6375 82.9401 23.2437ZM109.255 27.0125C109.255 18.0125 109.255 9.00625 109.255 0C112.182 0 115.103 0 118.029 0C118.029 2.69375 118.029 5.3875 118.029 8.08125C119.342 8.05625 120.661 8.0375 121.974 8.0125C121.974 10.55 121.974 13.0875 121.974 15.625C120.661 15.6687 119.342 15.7125 118.029 15.7562C118.029 19.325 118.029 22.8938 118.029 26.4563C115.103 26.6313 112.182 26.8188 109.255 27.0125ZM95.0026 4.8C94.8676 9.79375 92.1066 12.875 88.683 13.1625C92.1925 13.1625 95.0026 16.2188 95.0026 21.4C95.0026 16.2188 97.8065 12.9375 101.316 12.6688C97.8985 12.65 95.1314 9.78125 95.0026 4.8ZM82.9401 26.1375C85.8668 25.8813 88.7873 25.6375 91.7139 25.3938C91.7139 28.0938 91.7139 30.7938 91.7139 33.4875C94.9289 33.1437 98.144 32.8125 101.359 32.4938C107.065 31.9438 113.207 31 118.25 29.8312C118.25 32.6125 118.25 35.3938 118.25 38.175C106.476 39.2812 94.7081 40.625 82.9401 42.2C82.9401 36.8438 82.9401 31.4937 82.9401 26.1375ZM141.884 6.06875C141.884 6.475 141.884 6.875 141.884 7.28125C145.173 7.25625 148.461 7.23125 151.75 7.2125C151.75 8.775 151.75 10.3313 151.75 11.8938C149.468 12.6438 145.565 13.1687 141.884 13.2188C141.884 13.6375 141.884 14.0562 141.884 14.475C145.565 14.4187 149.511 14.0625 152.407 13.0438C152.407 15.475 152.407 17.9125 152.407 20.3438C146.357 20.4438 140.301 20.5875 134.252 20.7625C134.252 13.8375 134.252 6.91875 134.252 0C140.086 0 145.915 0 151.75 0C151.75 2.00625 151.75 4.00625 151.75 6.0125C148.461 6.025 145.173 6.04375 141.884 6.06875ZM153.505 20.325C153.505 13.55 153.505 6.775 153.505 0C156.051 0 158.591 0 161.137 0C161.137 2.125 161.137 4.24375 161.137 6.36875C161.763 6.3625 162.395 6.3625 163.021 6.3625C163.021 4.24375 163.021 2.11875 163.021 0C165.567 0 168.107 0 170.654 0C170.654 6.74375 170.654 13.4938 170.654 20.2375C168.107 20.2313 165.567 20.2375 163.021 20.2437C163.021 18.0375 163.021 15.8312 163.021 13.625C162.395 13.625 161.763 13.625 161.137 13.6312C161.137 15.8375 161.137 18.0438 161.137 20.25C158.591 20.2688 156.051 20.2938 153.505 20.325ZM170.654 36.1188C167.733 36.1125 164.807 36.1188 161.88 36.1375C161.88 33.3312 161.88 30.5312 161.88 27.725C152.67 27.85 143.461 28.0812 134.252 28.425C134.252 26.3062 134.252 24.1938 134.252 22.075C146.388 21.7375 158.518 21.5562 170.654 21.5187C170.654 26.3875 170.654 31.2563 170.654 36.1188ZM202.914 37.1813C202.914 24.7875 202.914 12.3938 202.914 0C205.835 0 208.761 0 211.688 0C211.688 12.5938 211.688 25.1812 211.688 37.775C208.761 37.5625 205.835 37.3625 202.914 37.1813ZM174.402 36.1562C176.887 24.125 179.378 12.075 181.863 0C185.808 0 189.754 0 193.705 0C196.19 12.2687 198.675 24.625 201.16 37.075C198.092 36.9062 195.018 36.7562 191.95 36.6188C190.557 28.0375 189.171 19.4813 187.784 10.95C186.391 19.425 185.005 27.8875 183.618 36.3312C180.544 36.2563 177.476 36.2 174.402 36.1562ZM235.568 40.0562C235.568 26.7062 235.568 13.35 235.568 0C238.114 0 240.654 0 243.2 0C243.2 5.3125 243.2 10.625 243.2 15.9438C243.826 15.975 244.458 16.0063 245.084 16.0375C245.084 10.6937 245.084 5.34375 245.084 0C247.63 0 250.176 0 252.716 0C252.716 14.1 252.716 28.2 252.716 42.2937C250.176 41.9312 247.63 41.5813 245.084 41.2375C245.084 35.6 245.084 29.9625 245.084 24.325C244.458 24.275 243.826 24.225 243.2 24.1812C243.2 29.7812 243.2 35.3875 243.2 40.9937C240.654 40.6687 238.114 40.3562 235.568 40.0562ZM216.314 38.1437C216.314 25.425 216.314 12.7125 216.314 0C222.161 0 228.009 0 233.856 0C233.856 2.43125 233.856 4.86875 233.856 7.30625C230.862 7.24375 227.861 7.1875 224.867 7.13125C224.867 15.35 224.867 23.5688 224.867 31.7875C228.291 32.0687 231.402 31.9125 234.469 31.2C234.469 34.1125 234.469 37.0187 234.469 39.9313C228.42 39.275 222.364 38.675 216.314 38.1437ZM275.111 8.425C274.51 8.4 273.909 8.38125 273.307 8.3625C273.497 11.5 273.694 14.6437 273.884 17.7937C274.89 17.8625 275.896 17.9312 276.909 18.0063C276.909 12.0062 276.909 6 276.909 0C279.449 0 281.995 0 284.535 0C284.541 15.925 284.541 31.85 284.541 47.775C281.995 47.275 279.449 46.7812 276.909 46.3062C276.909 39.975 276.909 33.6437 276.909 27.3125C276.074 27.2188 275.24 27.1312 274.405 27.0375C274.786 33.3562 275.166 39.6937 275.547 46.05C273.007 45.5875 270.46 45.1375 267.914 44.7C267.386 32.4437 266.865 20.2437 266.337 8.0875C265.81 20.1625 265.282 32.1875 264.76 44.1687C262.214 43.75 259.668 43.3438 257.128 42.95C257.87 31.3438 258.619 19.6688 259.361 7.93125C258.619 7.9125 257.87 7.8875 257.128 7.86875C257.128 5.24375 257.128 2.625 257.128 0C263.122 0 269.117 0 275.111 0C275.111 2.80625 275.111 5.6125 275.111 8.425ZM286.118 48.0938C286.118 32.0625 286.118 16.0312 286.118 0C288.664 0 291.205 0 293.751 0C293.751 16.5625 293.751 33.125 293.751 49.6812C291.205 49.1437 288.664 48.6125 286.118 48.0938ZM321.582 21.3062C321.582 17.6437 321.582 13.9812 321.582 10.3188C320.557 10.2688 319.532 10.225 318.508 10.175C319.765 17.0312 321.023 23.975 322.281 30.9937C319.281 30.5625 316.287 30.1437 313.286 29.7313C312.268 23 311.243 16.3375 310.219 9.73125C309.194 16.1812 308.169 22.5812 307.151 28.9125C304.151 28.525 301.156 28.15 298.156 27.7812C299.414 21.7313 300.672 15.6188 301.929 9.4375C300.672 9.38125 299.414 9.33125 298.156 9.28125C298.156 6.1875 298.156 3.09375 298.156 0C306.2 0 314.237 0 322.281 0C322.281 3.3375 322.281 6.68125 322.281 10.0188C323.52 10.075 324.766 10.1375 326.011 10.1937C326.011 6.8 326.011 3.4 326.011 0C328.932 0 331.859 0 334.779 0C334.779 13.8375 334.779 27.675 334.779 41.5187C331.859 40.9437 328.932 40.3812 326.011 39.8312C326.011 33.8062 326.011 27.775 326.011 21.75C324.533 21.6 323.054 21.45 321.582 21.3062ZM298.377 31.1C301.304 31.5062 304.224 31.9188 307.151 32.3375C307.151 35.9125 307.151 39.4875 307.151 43.0563C310.801 43.7562 314.458 44.475 318.115 45.2063C323.815 46.3563 329.957 47.0188 335 46.8813C335 51.25 335 55.625 335 60C322.79 56.6437 310.587 53.5438 298.377 50.6937C298.377 44.1625 298.377 37.6312 298.377 31.1Z" fill="url(#paint1_linear_229_15523)"/>
  <path d="M20.1307 54.6C20.1307 36.4 20.1307 18.2 20.1307 0C22.6769 0 25.217 0 27.7633 0C27.7633 6.8375 27.7633 13.675 27.7633 20.5063C28.3891 20.45 29.0211 20.3938 29.6469 20.3375C29.6469 13.5563 29.6469 6.78125 29.6469 0C32.1931 0 34.7394 0 37.2795 0C37.2795 16.85 37.2795 33.7 37.2795 50.55C34.7394 51.1187 32.1931 51.7 29.6469 52.2937C29.6469 45.1437 29.6469 37.9937 29.6469 30.8438C29.0211 30.9312 28.3891 31.0188 27.7633 31.1063C27.7633 38.3187 27.7633 45.525 27.7633 52.7375C25.217 53.35 22.6769 53.9688 20.1307 54.6ZM0 60C1.40504 39.7313 2.81007 19.7375 4.20897 0C7.7185 0 11.228 0 14.7375 0C16.1426 18.5375 17.5415 36.8375 18.9465 54.9C16.3757 55.5562 13.7988 56.225 11.228 56.9062C10.6451 43.75 10.0561 30.525 9.47326 17.225C8.89038 30.6937 8.30137 44.2312 7.7185 57.85C5.14771 58.5562 2.57079 59.2687 0 60ZM41.9118 49.5437C41.9118 33.025 41.9118 16.5125 41.9118 0C49.4953 0 57.085 0 64.6746 0C64.6746 2.75625 64.6746 5.5125 64.6746 8.26875C60.0055 8.41875 55.3425 8.58125 50.6795 8.74375C50.6795 12.225 50.6795 15.7063 50.6795 19.1812C55.0541 18.8375 59.4226 18.5125 63.7973 18.1938C63.7973 20.9563 63.7973 23.725 63.7973 26.4875C59.4226 26.95 55.0541 27.4312 50.6795 27.925C50.6795 31.6125 50.6795 35.3 50.6795 38.9875C57.042 37.9813 60.7663 37.0375 65.7668 35.1C65.7668 38.375 65.7668 41.65 65.7668 44.925C57.8151 46.3562 49.8635 47.8937 41.9118 49.5437ZM65.5459 26.3062C65.5459 23.5625 65.5459 20.8188 65.5459 18.0688C66.8773 17.975 68.2087 17.8875 69.5401 17.7937C69.5401 11.8625 69.5401 5.93125 69.5401 0C72.4668 0 75.3873 0 78.3139 0C78.3139 14.2938 78.3139 28.5875 78.3139 42.8875C75.3873 43.3375 72.4668 43.8 69.5401 44.2812C69.5401 38.1562 69.5401 32.0312 69.5401 25.9125C68.2087 26.0437 66.8773 26.175 65.5459 26.3062ZM82.9401 23.2437C82.9401 15.4937 82.9401 7.75 82.9401 0C85.8668 0 88.7873 0 91.7139 0C91.7139 1.18125 91.7139 2.35625 91.7139 3.5375C93.9043 3.5125 96.1008 3.4875 98.2912 3.46875C98.2912 2.3125 98.2912 1.15625 98.2912 0C101.218 0 104.138 0 107.065 0C107.065 7.2 107.065 14.4 107.065 21.6063C99.0213 22.0938 90.9838 22.6375 82.9401 23.2437ZM109.255 27.0125C109.255 18.0125 109.255 9.00625 109.255 0C112.182 0 115.103 0 118.029 0C118.029 2.69375 118.029 5.3875 118.029 8.08125C119.342 8.05625 120.661 8.0375 121.974 8.0125C121.974 10.55 121.974 13.0875 121.974 15.625C120.661 15.6687 119.342 15.7125 118.029 15.7562C118.029 19.325 118.029 22.8938 118.029 26.4563C115.103 26.6313 112.182 26.8188 109.255 27.0125ZM95.0026 4.8C94.8676 9.79375 92.1066 12.875 88.683 13.1625C92.1925 13.1625 95.0026 16.2188 95.0026 21.4C95.0026 16.2188 97.8065 12.9375 101.316 12.6688C97.8985 12.65 95.1314 9.78125 95.0026 4.8ZM82.9401 26.1375C85.8668 25.8813 88.7873 25.6375 91.7139 25.3938C91.7139 28.0938 91.7139 30.7938 91.7139 33.4875C94.9289 33.1437 98.144 32.8125 101.359 32.4938C107.065 31.9438 113.207 31 118.25 29.8312C118.25 32.6125 118.25 35.3938 118.25 38.175C106.476 39.2812 94.7081 40.625 82.9401 42.2C82.9401 36.8438 82.9401 31.4937 82.9401 26.1375ZM141.884 6.06875C141.884 6.475 141.884 6.875 141.884 7.28125C145.173 7.25625 148.461 7.23125 151.75 7.2125C151.75 8.775 151.75 10.3313 151.75 11.8938C149.468 12.6438 145.565 13.1687 141.884 13.2188C141.884 13.6375 141.884 14.0562 141.884 14.475C145.565 14.4187 149.511 14.0625 152.407 13.0438C152.407 15.475 152.407 17.9125 152.407 20.3438C146.357 20.4438 140.301 20.5875 134.252 20.7625C134.252 13.8375 134.252 6.91875 134.252 0C140.086 0 145.915 0 151.75 0C151.75 2.00625 151.75 4.00625 151.75 6.0125C148.461 6.025 145.173 6.04375 141.884 6.06875ZM153.505 20.325C153.505 13.55 153.505 6.775 153.505 0C156.051 0 158.591 0 161.137 0C161.137 2.125 161.137 4.24375 161.137 6.36875C161.763 6.3625 162.395 6.3625 163.021 6.3625C163.021 4.24375 163.021 2.11875 163.021 0C165.567 0 168.107 0 170.654 0C170.654 6.74375 170.654 13.4938 170.654 20.2375C168.107 20.2313 165.567 20.2375 163.021 20.2437C163.021 18.0375 163.021 15.8312 163.021 13.625C162.395 13.625 161.763 13.625 161.137 13.6312C161.137 15.8375 161.137 18.0438 161.137 20.25C158.591 20.2688 156.051 20.2938 153.505 20.325ZM170.654 36.1188C167.733 36.1125 164.807 36.1188 161.88 36.1375C161.88 33.3312 161.88 30.5312 161.88 27.725C152.67 27.85 143.461 28.0812 134.252 28.425C134.252 26.3062 134.252 24.1938 134.252 22.075C146.388 21.7375 158.518 21.5562 170.654 21.5187C170.654 26.3875 170.654 31.2563 170.654 36.1188ZM202.914 37.1813C202.914 24.7875 202.914 12.3938 202.914 0C205.835 0 208.761 0 211.688 0C211.688 12.5938 211.688 25.1812 211.688 37.775C208.761 37.5625 205.835 37.3625 202.914 37.1813ZM174.402 36.1562C176.887 24.125 179.378 12.075 181.863 0C185.808 0 189.754 0 193.705 0C196.19 12.2687 198.675 24.625 201.16 37.075C198.092 36.9062 195.018 36.7562 191.95 36.6188C190.557 28.0375 189.171 19.4813 187.784 10.95C186.391 19.425 185.005 27.8875 183.618 36.3312C180.544 36.2563 177.476 36.2 174.402 36.1562ZM235.568 40.0562C235.568 26.7062 235.568 13.35 235.568 0C238.114 0 240.654 0 243.2 0C243.2 5.3125 243.2 10.625 243.2 15.9438C243.826 15.975 244.458 16.0063 245.084 16.0375C245.084 10.6937 245.084 5.34375 245.084 0C247.63 0 250.176 0 252.716 0C252.716 14.1 252.716 28.2 252.716 42.2937C250.176 41.9312 247.63 41.5813 245.084 41.2375C245.084 35.6 245.084 29.9625 245.084 24.325C244.458 24.275 243.826 24.225 243.2 24.1812C243.2 29.7812 243.2 35.3875 243.2 40.9937C240.654 40.6687 238.114 40.3562 235.568 40.0562ZM216.314 38.1437C216.314 25.425 216.314 12.7125 216.314 0C222.161 0 228.009 0 233.856 0C233.856 2.43125 233.856 4.86875 233.856 7.30625C230.862 7.24375 227.861 7.1875 224.867 7.13125C224.867 15.35 224.867 23.5688 224.867 31.7875C228.291 32.0687 231.402 31.9125 234.469 31.2C234.469 34.1125 234.469 37.0187 234.469 39.9313C228.42 39.275 222.364 38.675 216.314 38.1437ZM275.111 8.425C274.51 8.4 273.909 8.38125 273.307 8.3625C273.497 11.5 273.694 14.6437 273.884 17.7937C274.89 17.8625 275.896 17.9312 276.909 18.0063C276.909 12.0062 276.909 6 276.909 0C279.449 0 281.995 0 284.535 0C284.541 15.925 284.541 31.85 284.541 47.775C281.995 47.275 279.449 46.7812 276.909 46.3062C276.909 39.975 276.909 33.6437 276.909 27.3125C276.074 27.2188 275.24 27.1312 274.405 27.0375C274.786 33.3562 275.166 39.6937 275.547 46.05C273.007 45.5875 270.46 45.1375 267.914 44.7C267.386 32.4437 266.865 20.2437 266.337 8.0875C265.81 20.1625 265.282 32.1875 264.76 44.1687C262.214 43.75 259.668 43.3438 257.128 42.95C257.87 31.3438 258.619 19.6688 259.361 7.93125C258.619 7.9125 257.87 7.8875 257.128 7.86875C257.128 5.24375 257.128 2.625 257.128 0C263.122 0 269.117 0 275.111 0C275.111 2.80625 275.111 5.6125 275.111 8.425ZM286.118 48.0938C286.118 32.0625 286.118 16.0312 286.118 0C288.664 0 291.205 0 293.751 0C293.751 16.5625 293.751 33.125 293.751 49.6812C291.205 49.1437 288.664 48.6125 286.118 48.0938ZM321.582 21.3062C321.582 17.6437 321.582 13.9812 321.582 10.3188C320.557 10.2688 319.532 10.225 318.508 10.175C319.765 17.0312 321.023 23.975 322.281 30.9937C319.281 30.5625 316.287 30.1437 313.286 29.7313C312.268 23 311.243 16.3375 310.219 9.73125C309.194 16.1812 308.169 22.5812 307.151 28.9125C304.151 28.525 301.156 28.15 298.156 27.7812C299.414 21.7313 300.672 15.6188 301.929 9.4375C300.672 9.38125 299.414 9.33125 298.156 9.28125C298.156 6.1875 298.156 3.09375 298.156 0C306.2 0 314.237 0 322.281 0C322.281 3.3375 322.281 6.68125 322.281 10.0188C323.52 10.075 324.766 10.1375 326.011 10.1937C326.011 6.8 326.011 3.4 326.011 0C328.932 0 331.859 0 334.779 0C334.779 13.8375 334.779 27.675 334.779 41.5187C331.859 40.9437 328.932 40.3812 326.011 39.8312C326.011 33.8062 326.011 27.775 326.011 21.75C324.533 21.6 323.054 21.45 321.582 21.3062ZM298.377 31.1C301.304 31.5062 304.224 31.9188 307.151 32.3375C307.151 35.9125 307.151 39.4875 307.151 43.0563C310.801 43.7562 314.458 44.475 318.115 45.2063C323.815 46.3563 329.957 47.0188 335 46.8813C335 51.25 335 55.625 335 60C322.79 56.6437 310.587 53.5438 298.377 50.6937C298.377 44.1625 298.377 37.6312 298.377 31.1Z" fill="url(#paint2_linear_229_15523)"/>
  <path d="M20.1307 54.6C20.1307 36.4 20.1307 18.2 20.1307 0C22.6769 0 25.217 0 27.7633 0C27.7633 6.8375 27.7633 13.675 27.7633 20.5063C28.3891 20.45 29.0211 20.3938 29.6469 20.3375C29.6469 13.5563 29.6469 6.78125 29.6469 0C32.1931 0 34.7394 0 37.2795 0C37.2795 16.85 37.2795 33.7 37.2795 50.55C34.7394 51.1187 32.1931 51.7 29.6469 52.2937C29.6469 45.1437 29.6469 37.9937 29.6469 30.8438C29.0211 30.9312 28.3891 31.0188 27.7633 31.1063C27.7633 38.3187 27.7633 45.525 27.7633 52.7375C25.217 53.35 22.6769 53.9688 20.1307 54.6ZM0 60C1.40504 39.7313 2.81007 19.7375 4.20897 0C7.7185 0 11.228 0 14.7375 0C16.1426 18.5375 17.5415 36.8375 18.9465 54.9C16.3757 55.5562 13.7988 56.225 11.228 56.9062C10.6451 43.75 10.0561 30.525 9.47326 17.225C8.89038 30.6937 8.30137 44.2312 7.7185 57.85C5.14771 58.5562 2.57079 59.2687 0 60ZM41.9118 49.5437C41.9118 33.025 41.9118 16.5125 41.9118 0C49.4953 0 57.085 0 64.6746 0C64.6746 2.75625 64.6746 5.5125 64.6746 8.26875C60.0055 8.41875 55.3425 8.58125 50.6795 8.74375C50.6795 12.225 50.6795 15.7063 50.6795 19.1812C55.0541 18.8375 59.4226 18.5125 63.7973 18.1938C63.7973 20.9563 63.7973 23.725 63.7973 26.4875C59.4226 26.95 55.0541 27.4312 50.6795 27.925C50.6795 31.6125 50.6795 35.3 50.6795 38.9875C57.042 37.9813 60.7663 37.0375 65.7668 35.1C65.7668 38.375 65.7668 41.65 65.7668 44.925C57.8151 46.3562 49.8635 47.8937 41.9118 49.5437ZM65.5459 26.3062C65.5459 23.5625 65.5459 20.8188 65.5459 18.0688C66.8773 17.975 68.2087 17.8875 69.5401 17.7937C69.5401 11.8625 69.5401 5.93125 69.5401 0C72.4668 0 75.3873 0 78.3139 0C78.3139 14.2938 78.3139 28.5875 78.3139 42.8875C75.3873 43.3375 72.4668 43.8 69.5401 44.2812C69.5401 38.1562 69.5401 32.0312 69.5401 25.9125C68.2087 26.0437 66.8773 26.175 65.5459 26.3062ZM82.9401 23.2437C82.9401 15.4937 82.9401 7.75 82.9401 0C85.8668 0 88.7873 0 91.7139 0C91.7139 1.18125 91.7139 2.35625 91.7139 3.5375C93.9043 3.5125 96.1008 3.4875 98.2912 3.46875C98.2912 2.3125 98.2912 1.15625 98.2912 0C101.218 0 104.138 0 107.065 0C107.065 7.2 107.065 14.4 107.065 21.6063C99.0213 22.0938 90.9838 22.6375 82.9401 23.2437ZM109.255 27.0125C109.255 18.0125 109.255 9.00625 109.255 0C112.182 0 115.103 0 118.029 0C118.029 2.69375 118.029 5.3875 118.029 8.08125C119.342 8.05625 120.661 8.0375 121.974 8.0125C121.974 10.55 121.974 13.0875 121.974 15.625C120.661 15.6687 119.342 15.7125 118.029 15.7562C118.029 19.325 118.029 22.8938 118.029 26.4563C115.103 26.6313 112.182 26.8188 109.255 27.0125ZM95.0026 4.8C94.8676 9.79375 92.1066 12.875 88.683 13.1625C92.1925 13.1625 95.0026 16.2188 95.0026 21.4C95.0026 16.2188 97.8065 12.9375 101.316 12.6688C97.8985 12.65 95.1314 9.78125 95.0026 4.8ZM82.9401 26.1375C85.8668 25.8813 88.7873 25.6375 91.7139 25.3938C91.7139 28.0938 91.7139 30.7938 91.7139 33.4875C94.9289 33.1437 98.144 32.8125 101.359 32.4938C107.065 31.9438 113.207 31 118.25 29.8312C118.25 32.6125 118.25 35.3938 118.25 38.175C106.476 39.2812 94.7081 40.625 82.9401 42.2C82.9401 36.8438 82.9401 31.4937 82.9401 26.1375ZM141.884 6.06875C141.884 6.475 141.884 6.875 141.884 7.28125C145.173 7.25625 148.461 7.23125 151.75 7.2125C151.75 8.775 151.75 10.3313 151.75 11.8938C149.468 12.6438 145.565 13.1687 141.884 13.2188C141.884 13.6375 141.884 14.0562 141.884 14.475C145.565 14.4187 149.511 14.0625 152.407 13.0438C152.407 15.475 152.407 17.9125 152.407 20.3438C146.357 20.4438 140.301 20.5875 134.252 20.7625C134.252 13.8375 134.252 6.91875 134.252 0C140.086 0 145.915 0 151.75 0C151.75 2.00625 151.75 4.00625 151.75 6.0125C148.461 6.025 145.173 6.04375 141.884 6.06875ZM153.505 20.325C153.505 13.55 153.505 6.775 153.505 0C156.051 0 158.591 0 161.137 0C161.137 2.125 161.137 4.24375 161.137 6.36875C161.763 6.3625 162.395 6.3625 163.021 6.3625C163.021 4.24375 163.021 2.11875 163.021 0C165.567 0 168.107 0 170.654 0C170.654 6.74375 170.654 13.4938 170.654 20.2375C168.107 20.2313 165.567 20.2375 163.021 20.2437C163.021 18.0375 163.021 15.8312 163.021 13.625C162.395 13.625 161.763 13.625 161.137 13.6312C161.137 15.8375 161.137 18.0438 161.137 20.25C158.591 20.2688 156.051 20.2938 153.505 20.325ZM170.654 36.1188C167.733 36.1125 164.807 36.1188 161.88 36.1375C161.88 33.3312 161.88 30.5312 161.88 27.725C152.67 27.85 143.461 28.0812 134.252 28.425C134.252 26.3062 134.252 24.1938 134.252 22.075C146.388 21.7375 158.518 21.5562 170.654 21.5187C170.654 26.3875 170.654 31.2563 170.654 36.1188ZM202.914 37.1813C202.914 24.7875 202.914 12.3938 202.914 0C205.835 0 208.761 0 211.688 0C211.688 12.5938 211.688 25.1812 211.688 37.775C208.761 37.5625 205.835 37.3625 202.914 37.1813ZM174.402 36.1562C176.887 24.125 179.378 12.075 181.863 0C185.808 0 189.754 0 193.705 0C196.19 12.2687 198.675 24.625 201.16 37.075C198.092 36.9062 195.018 36.7562 191.95 36.6188C190.557 28.0375 189.171 19.4813 187.784 10.95C186.391 19.425 185.005 27.8875 183.618 36.3312C180.544 36.2563 177.476 36.2 174.402 36.1562ZM235.568 40.0562C235.568 26.7062 235.568 13.35 235.568 0C238.114 0 240.654 0 243.2 0C243.2 5.3125 243.2 10.625 243.2 15.9438C243.826 15.975 244.458 16.0063 245.084 16.0375C245.084 10.6937 245.084 5.34375 245.084 0C247.63 0 250.176 0 252.716 0C252.716 14.1 252.716 28.2 252.716 42.2937C250.176 41.9312 247.63 41.5813 245.084 41.2375C245.084 35.6 245.084 29.9625 245.084 24.325C244.458 24.275 243.826 24.225 243.2 24.1812C243.2 29.7812 243.2 35.3875 243.2 40.9937C240.654 40.6687 238.114 40.3562 235.568 40.0562ZM216.314 38.1437C216.314 25.425 216.314 12.7125 216.314 0C222.161 0 228.009 0 233.856 0C233.856 2.43125 233.856 4.86875 233.856 7.30625C230.862 7.24375 227.861 7.1875 224.867 7.13125C224.867 15.35 224.867 23.5688 224.867 31.7875C228.291 32.0687 231.402 31.9125 234.469 31.2C234.469 34.1125 234.469 37.0187 234.469 39.9313C228.42 39.275 222.364 38.675 216.314 38.1437ZM275.111 8.425C274.51 8.4 273.909 8.38125 273.307 8.3625C273.497 11.5 273.694 14.6437 273.884 17.7937C274.89 17.8625 275.896 17.9312 276.909 18.0063C276.909 12.0062 276.909 6 276.909 0C279.449 0 281.995 0 284.535 0C284.541 15.925 284.541 31.85 284.541 47.775C281.995 47.275 279.449 46.7812 276.909 46.3062C276.909 39.975 276.909 33.6437 276.909 27.3125C276.074 27.2188 275.24 27.1312 274.405 27.0375C274.786 33.3562 275.166 39.6937 275.547 46.05C273.007 45.5875 270.46 45.1375 267.914 44.7C267.386 32.4437 266.865 20.2437 266.337 8.0875C265.81 20.1625 265.282 32.1875 264.76 44.1687C262.214 43.75 259.668 43.3438 257.128 42.95C257.87 31.3438 258.619 19.6688 259.361 7.93125C258.619 7.9125 257.87 7.8875 257.128 7.86875C257.128 5.24375 257.128 2.625 257.128 0C263.122 0 269.117 0 275.111 0C275.111 2.80625 275.111 5.6125 275.111 8.425ZM286.118 48.0938C286.118 32.0625 286.118 16.0312 286.118 0C288.664 0 291.205 0 293.751 0C293.751 16.5625 293.751 33.125 293.751 49.6812C291.205 49.1437 288.664 48.6125 286.118 48.0938ZM321.582 21.3062C321.582 17.6437 321.582 13.9812 321.582 10.3188C320.557 10.2688 319.532 10.225 318.508 10.175C319.765 17.0312 321.023 23.975 322.281 30.9937C319.281 30.5625 316.287 30.1437 313.286 29.7313C312.268 23 311.243 16.3375 310.219 9.73125C309.194 16.1812 308.169 22.5812 307.151 28.9125C304.151 28.525 301.156 28.15 298.156 27.7812C299.414 21.7313 300.672 15.6188 301.929 9.4375C300.672 9.38125 299.414 9.33125 298.156 9.28125C298.156 6.1875 298.156 3.09375 298.156 0C306.2 0 314.237 0 322.281 0C322.281 3.3375 322.281 6.68125 322.281 10.0188C323.52 10.075 324.766 10.1375 326.011 10.1937C326.011 6.8 326.011 3.4 326.011 0C328.932 0 331.859 0 334.779 0C334.779 13.8375 334.779 27.675 334.779 41.5187C331.859 40.9437 328.932 40.3812 326.011 39.8312C326.011 33.8062 326.011 27.775 326.011 21.75C324.533 21.6 323.054 21.45 321.582 21.3062ZM298.377 31.1C301.304 31.5062 304.224 31.9188 307.151 32.3375C307.151 35.9125 307.151 39.4875 307.151 43.0563C310.801 43.7562 314.458 44.475 318.115 45.2063C323.815 46.3563 329.957 47.0188 335 46.8813C335 51.25 335 55.625 335 60C322.79 56.6437 310.587 53.5438 298.377 50.6937C298.377 44.1625 298.377 37.6312 298.377 31.1Z" fill="url(#paint3_linear_229_15523)"/>
  <path d="M20.1307 54.6C20.1307 36.4 20.1307 18.2 20.1307 0C22.6769 0 25.217 0 27.7633 0C27.7633 6.8375 27.7633 13.675 27.7633 20.5063C28.3891 20.45 29.0211 20.3938 29.6469 20.3375C29.6469 13.5563 29.6469 6.78125 29.6469 0C32.1931 0 34.7394 0 37.2795 0C37.2795 16.85 37.2795 33.7 37.2795 50.55C34.7394 51.1187 32.1931 51.7 29.6469 52.2937C29.6469 45.1437 29.6469 37.9937 29.6469 30.8438C29.0211 30.9312 28.3891 31.0188 27.7633 31.1063C27.7633 38.3187 27.7633 45.525 27.7633 52.7375C25.217 53.35 22.6769 53.9688 20.1307 54.6ZM0 60C1.40504 39.7313 2.81007 19.7375 4.20897 0C7.7185 0 11.228 0 14.7375 0C16.1426 18.5375 17.5415 36.8375 18.9465 54.9C16.3757 55.5562 13.7988 56.225 11.228 56.9062C10.6451 43.75 10.0561 30.525 9.47326 17.225C8.89038 30.6937 8.30137 44.2312 7.7185 57.85C5.14771 58.5562 2.57079 59.2687 0 60ZM41.9118 49.5437C41.9118 33.025 41.9118 16.5125 41.9118 0C49.4953 0 57.085 0 64.6746 0C64.6746 2.75625 64.6746 5.5125 64.6746 8.26875C60.0055 8.41875 55.3425 8.58125 50.6795 8.74375C50.6795 12.225 50.6795 15.7063 50.6795 19.1812C55.0541 18.8375 59.4226 18.5125 63.7973 18.1938C63.7973 20.9563 63.7973 23.725 63.7973 26.4875C59.4226 26.95 55.0541 27.4312 50.6795 27.925C50.6795 31.6125 50.6795 35.3 50.6795 38.9875C57.042 37.9813 60.7663 37.0375 65.7668 35.1C65.7668 38.375 65.7668 41.65 65.7668 44.925C57.8151 46.3562 49.8635 47.8937 41.9118 49.5437ZM65.5459 26.3062C65.5459 23.5625 65.5459 20.8188 65.5459 18.0688C66.8773 17.975 68.2087 17.8875 69.5401 17.7937C69.5401 11.8625 69.5401 5.93125 69.5401 0C72.4668 0 75.3873 0 78.3139 0C78.3139 14.2938 78.3139 28.5875 78.3139 42.8875C75.3873 43.3375 72.4668 43.8 69.5401 44.2812C69.5401 38.1562 69.5401 32.0312 69.5401 25.9125C68.2087 26.0437 66.8773 26.175 65.5459 26.3062ZM82.9401 23.2437C82.9401 15.4937 82.9401 7.75 82.9401 0C85.8668 0 88.7873 0 91.7139 0C91.7139 1.18125 91.7139 2.35625 91.7139 3.5375C93.9043 3.5125 96.1008 3.4875 98.2912 3.46875C98.2912 2.3125 98.2912 1.15625 98.2912 0C101.218 0 104.138 0 107.065 0C107.065 7.2 107.065 14.4 107.065 21.6063C99.0213 22.0938 90.9838 22.6375 82.9401 23.2437ZM109.255 27.0125C109.255 18.0125 109.255 9.00625 109.255 0C112.182 0 115.103 0 118.029 0C118.029 2.69375 118.029 5.3875 118.029 8.08125C119.342 8.05625 120.661 8.0375 121.974 8.0125C121.974 10.55 121.974 13.0875 121.974 15.625C120.661 15.6687 119.342 15.7125 118.029 15.7562C118.029 19.325 118.029 22.8938 118.029 26.4563C115.103 26.6313 112.182 26.8188 109.255 27.0125ZM95.0026 4.8C94.8676 9.79375 92.1066 12.875 88.683 13.1625C92.1925 13.1625 95.0026 16.2188 95.0026 21.4C95.0026 16.2188 97.8065 12.9375 101.316 12.6688C97.8985 12.65 95.1314 9.78125 95.0026 4.8ZM82.9401 26.1375C85.8668 25.8813 88.7873 25.6375 91.7139 25.3938C91.7139 28.0938 91.7139 30.7938 91.7139 33.4875C94.9289 33.1437 98.144 32.8125 101.359 32.4938C107.065 31.9438 113.207 31 118.25 29.8312C118.25 32.6125 118.25 35.3938 118.25 38.175C106.476 39.2812 94.7081 40.625 82.9401 42.2C82.9401 36.8438 82.9401 31.4937 82.9401 26.1375ZM141.884 6.06875C141.884 6.475 141.884 6.875 141.884 7.28125C145.173 7.25625 148.461 7.23125 151.75 7.2125C151.75 8.775 151.75 10.3313 151.75 11.8938C149.468 12.6438 145.565 13.1687 141.884 13.2188C141.884 13.6375 141.884 14.0562 141.884 14.475C145.565 14.4187 149.511 14.0625 152.407 13.0438C152.407 15.475 152.407 17.9125 152.407 20.3438C146.357 20.4438 140.301 20.5875 134.252 20.7625C134.252 13.8375 134.252 6.91875 134.252 0C140.086 0 145.915 0 151.75 0C151.75 2.00625 151.75 4.00625 151.75 6.0125C148.461 6.025 145.173 6.04375 141.884 6.06875ZM153.505 20.325C153.505 13.55 153.505 6.775 153.505 0C156.051 0 158.591 0 161.137 0C161.137 2.125 161.137 4.24375 161.137 6.36875C161.763 6.3625 162.395 6.3625 163.021 6.3625C163.021 4.24375 163.021 2.11875 163.021 0C165.567 0 168.107 0 170.654 0C170.654 6.74375 170.654 13.4938 170.654 20.2375C168.107 20.2313 165.567 20.2375 163.021 20.2437C163.021 18.0375 163.021 15.8312 163.021 13.625C162.395 13.625 161.763 13.625 161.137 13.6312C161.137 15.8375 161.137 18.0438 161.137 20.25C158.591 20.2688 156.051 20.2938 153.505 20.325ZM170.654 36.1188C167.733 36.1125 164.807 36.1188 161.88 36.1375C161.88 33.3312 161.88 30.5312 161.88 27.725C152.67 27.85 143.461 28.0812 134.252 28.425C134.252 26.3062 134.252 24.1938 134.252 22.075C146.388 21.7375 158.518 21.5562 170.654 21.5187C170.654 26.3875 170.654 31.2563 170.654 36.1188ZM202.914 37.1813C202.914 24.7875 202.914 12.3938 202.914 0C205.835 0 208.761 0 211.688 0C211.688 12.5938 211.688 25.1812 211.688 37.775C208.761 37.5625 205.835 37.3625 202.914 37.1813ZM174.402 36.1562C176.887 24.125 179.378 12.075 181.863 0C185.808 0 189.754 0 193.705 0C196.19 12.2687 198.675 24.625 201.16 37.075C198.092 36.9062 195.018 36.7562 191.95 36.6188C190.557 28.0375 189.171 19.4813 187.784 10.95C186.391 19.425 185.005 27.8875 183.618 36.3312C180.544 36.2563 177.476 36.2 174.402 36.1562ZM235.568 40.0562C235.568 26.7062 235.568 13.35 235.568 0C238.114 0 240.654 0 243.2 0C243.2 5.3125 243.2 10.625 243.2 15.9438C243.826 15.975 244.458 16.0063 245.084 16.0375C245.084 10.6937 245.084 5.34375 245.084 0C247.63 0 250.176 0 252.716 0C252.716 14.1 252.716 28.2 252.716 42.2937C250.176 41.9312 247.63 41.5813 245.084 41.2375C245.084 35.6 245.084 29.9625 245.084 24.325C244.458 24.275 243.826 24.225 243.2 24.1812C243.2 29.7812 243.2 35.3875 243.2 40.9937C240.654 40.6687 238.114 40.3562 235.568 40.0562ZM216.314 38.1437C216.314 25.425 216.314 12.7125 216.314 0C222.161 0 228.009 0 233.856 0C233.856 2.43125 233.856 4.86875 233.856 7.30625C230.862 7.24375 227.861 7.1875 224.867 7.13125C224.867 15.35 224.867 23.5688 224.867 31.7875C228.291 32.0687 231.402 31.9125 234.469 31.2C234.469 34.1125 234.469 37.0187 234.469 39.9313C228.42 39.275 222.364 38.675 216.314 38.1437ZM275.111 8.425C274.51 8.4 273.909 8.38125 273.307 8.3625C273.497 11.5 273.694 14.6437 273.884 17.7937C274.89 17.8625 275.896 17.9312 276.909 18.0063C276.909 12.0062 276.909 6 276.909 0C279.449 0 281.995 0 284.535 0C284.541 15.925 284.541 31.85 284.541 47.775C281.995 47.275 279.449 46.7812 276.909 46.3062C276.909 39.975 276.909 33.6437 276.909 27.3125C276.074 27.2188 275.24 27.1312 274.405 27.0375C274.786 33.3562 275.166 39.6937 275.547 46.05C273.007 45.5875 270.46 45.1375 267.914 44.7C267.386 32.4437 266.865 20.2437 266.337 8.0875C265.81 20.1625 265.282 32.1875 264.76 44.1687C262.214 43.75 259.668 43.3438 257.128 42.95C257.87 31.3438 258.619 19.6688 259.361 7.93125C258.619 7.9125 257.87 7.8875 257.128 7.86875C257.128 5.24375 257.128 2.625 257.128 0C263.122 0 269.117 0 275.111 0C275.111 2.80625 275.111 5.6125 275.111 8.425ZM286.118 48.0938C286.118 32.0625 286.118 16.0312 286.118 0C288.664 0 291.205 0 293.751 0C293.751 16.5625 293.751 33.125 293.751 49.6812C291.205 49.1437 288.664 48.6125 286.118 48.0938ZM321.582 21.3062C321.582 17.6437 321.582 13.9812 321.582 10.3188C320.557 10.2688 319.532 10.225 318.508 10.175C319.765 17.0312 321.023 23.975 322.281 30.9937C319.281 30.5625 316.287 30.1437 313.286 29.7313C312.268 23 311.243 16.3375 310.219 9.73125C309.194 16.1812 308.169 22.5812 307.151 28.9125C304.151 28.525 301.156 28.15 298.156 27.7812C299.414 21.7313 300.672 15.6188 301.929 9.4375C300.672 9.38125 299.414 9.33125 298.156 9.28125C298.156 6.1875 298.156 3.09375 298.156 0C306.2 0 314.237 0 322.281 0C322.281 3.3375 322.281 6.68125 322.281 10.0188C323.52 10.075 324.766 10.1375 326.011 10.1937C326.011 6.8 326.011 3.4 326.011 0C328.932 0 331.859 0 334.779 0C334.779 13.8375 334.779 27.675 334.779 41.5187C331.859 40.9437 328.932 40.3812 326.011 39.8312C326.011 33.8062 326.011 27.775 326.011 21.75C324.533 21.6 323.054 21.45 321.582 21.3062ZM298.377 31.1C301.304 31.5062 304.224 31.9188 307.151 32.3375C307.151 35.9125 307.151 39.4875 307.151 43.0563C310.801 43.7562 314.458 44.475 318.115 45.2063C323.815 46.3563 329.957 47.0188 335 46.8813C335 51.25 335 55.625 335 60C322.79 56.6437 310.587 53.5438 298.377 50.6937C298.377 44.1625 298.377 37.6312 298.377 31.1Z" fill="url(#paint4_linear_229_15523)"/>
  <path d="M20.1307 54.6C20.1307 36.4 20.1307 18.2 20.1307 0C22.6769 0 25.217 0 27.7633 0C27.7633 6.8375 27.7633 13.675 27.7633 20.5063C28.3891 20.45 29.0211 20.3938 29.6469 20.3375C29.6469 13.5563 29.6469 6.78125 29.6469 0C32.1931 0 34.7394 0 37.2795 0C37.2795 16.85 37.2795 33.7 37.2795 50.55C34.7394 51.1187 32.1931 51.7 29.6469 52.2937C29.6469 45.1437 29.6469 37.9937 29.6469 30.8438C29.0211 30.9312 28.3891 31.0188 27.7633 31.1063C27.7633 38.3187 27.7633 45.525 27.7633 52.7375C25.217 53.35 22.6769 53.9688 20.1307 54.6ZM0 60C1.40504 39.7313 2.81007 19.7375 4.20897 0C7.7185 0 11.228 0 14.7375 0C16.1426 18.5375 17.5415 36.8375 18.9465 54.9C16.3757 55.5562 13.7988 56.225 11.228 56.9062C10.6451 43.75 10.0561 30.525 9.47326 17.225C8.89038 30.6937 8.30137 44.2312 7.7185 57.85C5.14771 58.5562 2.57079 59.2687 0 60ZM41.9118 49.5437C41.9118 33.025 41.9118 16.5125 41.9118 0C49.4953 0 57.085 0 64.6746 0C64.6746 2.75625 64.6746 5.5125 64.6746 8.26875C60.0055 8.41875 55.3425 8.58125 50.6795 8.74375C50.6795 12.225 50.6795 15.7063 50.6795 19.1812C55.0541 18.8375 59.4226 18.5125 63.7973 18.1938C63.7973 20.9563 63.7973 23.725 63.7973 26.4875C59.4226 26.95 55.0541 27.4312 50.6795 27.925C50.6795 31.6125 50.6795 35.3 50.6795 38.9875C57.042 37.9813 60.7663 37.0375 65.7668 35.1C65.7668 38.375 65.7668 41.65 65.7668 44.925C57.8151 46.3562 49.8635 47.8937 41.9118 49.5437ZM65.5459 26.3062C65.5459 23.5625 65.5459 20.8188 65.5459 18.0688C66.8773 17.975 68.2087 17.8875 69.5401 17.7937C69.5401 11.8625 69.5401 5.93125 69.5401 0C72.4668 0 75.3873 0 78.3139 0C78.3139 14.2938 78.3139 28.5875 78.3139 42.8875C75.3873 43.3375 72.4668 43.8 69.5401 44.2812C69.5401 38.1562 69.5401 32.0312 69.5401 25.9125C68.2087 26.0437 66.8773 26.175 65.5459 26.3062ZM82.9401 23.2437C82.9401 15.4937 82.9401 7.75 82.9401 0C85.8668 0 88.7873 0 91.7139 0C91.7139 1.18125 91.7139 2.35625 91.7139 3.5375C93.9043 3.5125 96.1008 3.4875 98.2912 3.46875C98.2912 2.3125 98.2912 1.15625 98.2912 0C101.218 0 104.138 0 107.065 0C107.065 7.2 107.065 14.4 107.065 21.6063C99.0213 22.0938 90.9838 22.6375 82.9401 23.2437ZM109.255 27.0125C109.255 18.0125 109.255 9.00625 109.255 0C112.182 0 115.103 0 118.029 0C118.029 2.69375 118.029 5.3875 118.029 8.08125C119.342 8.05625 120.661 8.0375 121.974 8.0125C121.974 10.55 121.974 13.0875 121.974 15.625C120.661 15.6687 119.342 15.7125 118.029 15.7562C118.029 19.325 118.029 22.8938 118.029 26.4563C115.103 26.6313 112.182 26.8188 109.255 27.0125ZM95.0026 4.8C94.8676 9.79375 92.1066 12.875 88.683 13.1625C92.1925 13.1625 95.0026 16.2188 95.0026 21.4C95.0026 16.2188 97.8065 12.9375 101.316 12.6688C97.8985 12.65 95.1314 9.78125 95.0026 4.8ZM82.9401 26.1375C85.8668 25.8813 88.7873 25.6375 91.7139 25.3938C91.7139 28.0938 91.7139 30.7938 91.7139 33.4875C94.9289 33.1437 98.144 32.8125 101.359 32.4938C107.065 31.9438 113.207 31 118.25 29.8312C118.25 32.6125 118.25 35.3938 118.25 38.175C106.476 39.2812 94.7081 40.625 82.9401 42.2C82.9401 36.8438 82.9401 31.4937 82.9401 26.1375ZM141.884 6.06875C141.884 6.475 141.884 6.875 141.884 7.28125C145.173 7.25625 148.461 7.23125 151.75 7.2125C151.75 8.775 151.75 10.3313 151.75 11.8938C149.468 12.6438 145.565 13.1687 141.884 13.2188C141.884 13.6375 141.884 14.0562 141.884 14.475C145.565 14.4187 149.511 14.0625 152.407 13.0438C152.407 15.475 152.407 17.9125 152.407 20.3438C146.357 20.4438 140.301 20.5875 134.252 20.7625C134.252 13.8375 134.252 6.91875 134.252 0C140.086 0 145.915 0 151.75 0C151.75 2.00625 151.75 4.00625 151.75 6.0125C148.461 6.025 145.173 6.04375 141.884 6.06875ZM153.505 20.325C153.505 13.55 153.505 6.775 153.505 0C156.051 0 158.591 0 161.137 0C161.137 2.125 161.137 4.24375 161.137 6.36875C161.763 6.3625 162.395 6.3625 163.021 6.3625C163.021 4.24375 163.021 2.11875 163.021 0C165.567 0 168.107 0 170.654 0C170.654 6.74375 170.654 13.4938 170.654 20.2375C168.107 20.2313 165.567 20.2375 163.021 20.2437C163.021 18.0375 163.021 15.8312 163.021 13.625C162.395 13.625 161.763 13.625 161.137 13.6312C161.137 15.8375 161.137 18.0438 161.137 20.25C158.591 20.2688 156.051 20.2938 153.505 20.325ZM170.654 36.1188C167.733 36.1125 164.807 36.1188 161.88 36.1375C161.88 33.3312 161.88 30.5312 161.88 27.725C152.67 27.85 143.461 28.0812 134.252 28.425C134.252 26.3062 134.252 24.1938 134.252 22.075C146.388 21.7375 158.518 21.5562 170.654 21.5187C170.654 26.3875 170.654 31.2563 170.654 36.1188ZM202.914 37.1813C202.914 24.7875 202.914 12.3938 202.914 0C205.835 0 208.761 0 211.688 0C211.688 12.5938 211.688 25.1812 211.688 37.775C208.761 37.5625 205.835 37.3625 202.914 37.1813ZM174.402 36.1562C176.887 24.125 179.378 12.075 181.863 0C185.808 0 189.754 0 193.705 0C196.19 12.2687 198.675 24.625 201.16 37.075C198.092 36.9062 195.018 36.7562 191.95 36.6188C190.557 28.0375 189.171 19.4813 187.784 10.95C186.391 19.425 185.005 27.8875 183.618 36.3312C180.544 36.2563 177.476 36.2 174.402 36.1562ZM235.568 40.0562C235.568 26.7062 235.568 13.35 235.568 0C238.114 0 240.654 0 243.2 0C243.2 5.3125 243.2 10.625 243.2 15.9438C243.826 15.975 244.458 16.0063 245.084 16.0375C245.084 10.6937 245.084 5.34375 245.084 0C247.63 0 250.176 0 252.716 0C252.716 14.1 252.716 28.2 252.716 42.2937C250.176 41.9312 247.63 41.5813 245.084 41.2375C245.084 35.6 245.084 29.9625 245.084 24.325C244.458 24.275 243.826 24.225 243.2 24.1812C243.2 29.7812 243.2 35.3875 243.2 40.9937C240.654 40.6687 238.114 40.3562 235.568 40.0562ZM216.314 38.1437C216.314 25.425 216.314 12.7125 216.314 0C222.161 0 228.009 0 233.856 0C233.856 2.43125 233.856 4.86875 233.856 7.30625C230.862 7.24375 227.861 7.1875 224.867 7.13125C224.867 15.35 224.867 23.5688 224.867 31.7875C228.291 32.0687 231.402 31.9125 234.469 31.2C234.469 34.1125 234.469 37.0187 234.469 39.9313C228.42 39.275 222.364 38.675 216.314 38.1437ZM275.111 8.425C274.51 8.4 273.909 8.38125 273.307 8.3625C273.497 11.5 273.694 14.6437 273.884 17.7937C274.89 17.8625 275.896 17.9312 276.909 18.0063C276.909 12.0062 276.909 6 276.909 0C279.449 0 281.995 0 284.535 0C284.541 15.925 284.541 31.85 284.541 47.775C281.995 47.275 279.449 46.7812 276.909 46.3062C276.909 39.975 276.909 33.6437 276.909 27.3125C276.074 27.2188 275.24 27.1312 274.405 27.0375C274.786 33.3562 275.166 39.6937 275.547 46.05C273.007 45.5875 270.46 45.1375 267.914 44.7C267.386 32.4437 266.865 20.2437 266.337 8.0875C265.81 20.1625 265.282 32.1875 264.76 44.1687C262.214 43.75 259.668 43.3438 257.128 42.95C257.87 31.3438 258.619 19.6688 259.361 7.93125C258.619 7.9125 257.87 7.8875 257.128 7.86875C257.128 5.24375 257.128 2.625 257.128 0C263.122 0 269.117 0 275.111 0C275.111 2.80625 275.111 5.6125 275.111 8.425ZM286.118 48.0938C286.118 32.0625 286.118 16.0312 286.118 0C288.664 0 291.205 0 293.751 0C293.751 16.5625 293.751 33.125 293.751 49.6812C291.205 49.1437 288.664 48.6125 286.118 48.0938ZM321.582 21.3062C321.582 17.6437 321.582 13.9812 321.582 10.3188C320.557 10.2688 319.532 10.225 318.508 10.175C319.765 17.0312 321.023 23.975 322.281 30.9937C319.281 30.5625 316.287 30.1437 313.286 29.7313C312.268 23 311.243 16.3375 310.219 9.73125C309.194 16.1812 308.169 22.5812 307.151 28.9125C304.151 28.525 301.156 28.15 298.156 27.7812C299.414 21.7313 300.672 15.6188 301.929 9.4375C300.672 9.38125 299.414 9.33125 298.156 9.28125C298.156 6.1875 298.156 3.09375 298.156 0C306.2 0 314.237 0 322.281 0C322.281 3.3375 322.281 6.68125 322.281 10.0188C323.52 10.075 324.766 10.1375 326.011 10.1937C326.011 6.8 326.011 3.4 326.011 0C328.932 0 331.859 0 334.779 0C334.779 13.8375 334.779 27.675 334.779 41.5187C331.859 40.9437 328.932 40.3812 326.011 39.8312C326.011 33.8062 326.011 27.775 326.011 21.75C324.533 21.6 323.054 21.45 321.582 21.3062ZM298.377 31.1C301.304 31.5062 304.224 31.9188 307.151 32.3375C307.151 35.9125 307.151 39.4875 307.151 43.0563C310.801 43.7562 314.458 44.475 318.115 45.2063C323.815 46.3563 329.957 47.0188 335 46.8813C335 51.25 335 55.625 335 60C322.79 56.6437 310.587 53.5438 298.377 50.6937C298.377 44.1625 298.377 37.6312 298.377 31.1Z" fill="url(#paint5_linear_229_15523)"/>
  <path d="M20.1307 54.6C20.1307 36.4 20.1307 18.2 20.1307 0C22.6769 0 25.217 0 27.7633 0C27.7633 6.8375 27.7633 13.675 27.7633 20.5063C28.3891 20.45 29.0211 20.3938 29.6469 20.3375C29.6469 13.5563 29.6469 6.78125 29.6469 0C32.1931 0 34.7394 0 37.2795 0C37.2795 16.85 37.2795 33.7 37.2795 50.55C34.7394 51.1187 32.1931 51.7 29.6469 52.2937C29.6469 45.1437 29.6469 37.9937 29.6469 30.8438C29.0211 30.9312 28.3891 31.0188 27.7633 31.1063C27.7633 38.3187 27.7633 45.525 27.7633 52.7375C25.217 53.35 22.6769 53.9688 20.1307 54.6ZM0 60C1.40504 39.7313 2.81007 19.7375 4.20897 0C7.7185 0 11.228 0 14.7375 0C16.1426 18.5375 17.5415 36.8375 18.9465 54.9C16.3757 55.5562 13.7988 56.225 11.228 56.9062C10.6451 43.75 10.0561 30.525 9.47326 17.225C8.89038 30.6937 8.30137 44.2312 7.7185 57.85C5.14771 58.5562 2.57079 59.2687 0 60ZM41.9118 49.5437C41.9118 33.025 41.9118 16.5125 41.9118 0C49.4953 0 57.085 0 64.6746 0C64.6746 2.75625 64.6746 5.5125 64.6746 8.26875C60.0055 8.41875 55.3425 8.58125 50.6795 8.74375C50.6795 12.225 50.6795 15.7063 50.6795 19.1812C55.0541 18.8375 59.4226 18.5125 63.7973 18.1938C63.7973 20.9563 63.7973 23.725 63.7973 26.4875C59.4226 26.95 55.0541 27.4312 50.6795 27.925C50.6795 31.6125 50.6795 35.3 50.6795 38.9875C57.042 37.9813 60.7663 37.0375 65.7668 35.1C65.7668 38.375 65.7668 41.65 65.7668 44.925C57.8151 46.3562 49.8635 47.8937 41.9118 49.5437ZM65.5459 26.3062C65.5459 23.5625 65.5459 20.8188 65.5459 18.0688C66.8773 17.975 68.2087 17.8875 69.5401 17.7937C69.5401 11.8625 69.5401 5.93125 69.5401 0C72.4668 0 75.3873 0 78.3139 0C78.3139 14.2938 78.3139 28.5875 78.3139 42.8875C75.3873 43.3375 72.4668 43.8 69.5401 44.2812C69.5401 38.1562 69.5401 32.0312 69.5401 25.9125C68.2087 26.0437 66.8773 26.175 65.5459 26.3062ZM82.9401 23.2437C82.9401 15.4937 82.9401 7.75 82.9401 0C85.8668 0 88.7873 0 91.7139 0C91.7139 1.18125 91.7139 2.35625 91.7139 3.5375C93.9043 3.5125 96.1008 3.4875 98.2912 3.46875C98.2912 2.3125 98.2912 1.15625 98.2912 0C101.218 0 104.138 0 107.065 0C107.065 7.2 107.065 14.4 107.065 21.6063C99.0213 22.0938 90.9838 22.6375 82.9401 23.2437ZM109.255 27.0125C109.255 18.0125 109.255 9.00625 109.255 0C112.182 0 115.103 0 118.029 0C118.029 2.69375 118.029 5.3875 118.029 8.08125C119.342 8.05625 120.661 8.0375 121.974 8.0125C121.974 10.55 121.974 13.0875 121.974 15.625C120.661 15.6687 119.342 15.7125 118.029 15.7562C118.029 19.325 118.029 22.8938 118.029 26.4563C115.103 26.6313 112.182 26.8188 109.255 27.0125ZM95.0026 4.8C94.8676 9.79375 92.1066 12.875 88.683 13.1625C92.1925 13.1625 95.0026 16.2188 95.0026 21.4C95.0026 16.2188 97.8065 12.9375 101.316 12.6688C97.8985 12.65 95.1314 9.78125 95.0026 4.8ZM82.9401 26.1375C85.8668 25.8813 88.7873 25.6375 91.7139 25.3938C91.7139 28.0938 91.7139 30.7938 91.7139 33.4875C94.9289 33.1437 98.144 32.8125 101.359 32.4938C107.065 31.9438 113.207 31 118.25 29.8312C118.25 32.6125 118.25 35.3938 118.25 38.175C106.476 39.2812 94.7081 40.625 82.9401 42.2C82.9401 36.8438 82.9401 31.4937 82.9401 26.1375ZM141.884 6.06875C141.884 6.475 141.884 6.875 141.884 7.28125C145.173 7.25625 148.461 7.23125 151.75 7.2125C151.75 8.775 151.75 10.3313 151.75 11.8938C149.468 12.6438 145.565 13.1687 141.884 13.2188C141.884 13.6375 141.884 14.0562 141.884 14.475C145.565 14.4187 149.511 14.0625 152.407 13.0438C152.407 15.475 152.407 17.9125 152.407 20.3438C146.357 20.4438 140.301 20.5875 134.252 20.7625C134.252 13.8375 134.252 6.91875 134.252 0C140.086 0 145.915 0 151.75 0C151.75 2.00625 151.75 4.00625 151.75 6.0125C148.461 6.025 145.173 6.04375 141.884 6.06875ZM153.505 20.325C153.505 13.55 153.505 6.775 153.505 0C156.051 0 158.591 0 161.137 0C161.137 2.125 161.137 4.24375 161.137 6.36875C161.763 6.3625 162.395 6.3625 163.021 6.3625C163.021 4.24375 163.021 2.11875 163.021 0C165.567 0 168.107 0 170.654 0C170.654 6.74375 170.654 13.4938 170.654 20.2375C168.107 20.2313 165.567 20.2375 163.021 20.2437C163.021 18.0375 163.021 15.8312 163.021 13.625C162.395 13.625 161.763 13.625 161.137 13.6312C161.137 15.8375 161.137 18.0438 161.137 20.25C158.591 20.2688 156.051 20.2938 153.505 20.325ZM170.654 36.1188C167.733 36.1125 164.807 36.1188 161.88 36.1375C161.88 33.3312 161.88 30.5312 161.88 27.725C152.67 27.85 143.461 28.0812 134.252 28.425C134.252 26.3062 134.252 24.1938 134.252 22.075C146.388 21.7375 158.518 21.5562 170.654 21.5187C170.654 26.3875 170.654 31.2563 170.654 36.1188ZM202.914 37.1813C202.914 24.7875 202.914 12.3938 202.914 0C205.835 0 208.761 0 211.688 0C211.688 12.5938 211.688 25.1812 211.688 37.775C208.761 37.5625 205.835 37.3625 202.914 37.1813ZM174.402 36.1562C176.887 24.125 179.378 12.075 181.863 0C185.808 0 189.754 0 193.705 0C196.19 12.2687 198.675 24.625 201.16 37.075C198.092 36.9062 195.018 36.7562 191.95 36.6188C190.557 28.0375 189.171 19.4813 187.784 10.95C186.391 19.425 185.005 27.8875 183.618 36.3312C180.544 36.2563 177.476 36.2 174.402 36.1562ZM235.568 40.0562C235.568 26.7062 235.568 13.35 235.568 0C238.114 0 240.654 0 243.2 0C243.2 5.3125 243.2 10.625 243.2 15.9438C243.826 15.975 244.458 16.0063 245.084 16.0375C245.084 10.6937 245.084 5.34375 245.084 0C247.63 0 250.176 0 252.716 0C252.716 14.1 252.716 28.2 252.716 42.2937C250.176 41.9312 247.63 41.5813 245.084 41.2375C245.084 35.6 245.084 29.9625 245.084 24.325C244.458 24.275 243.826 24.225 243.2 24.1812C243.2 29.7812 243.2 35.3875 243.2 40.9937C240.654 40.6687 238.114 40.3562 235.568 40.0562ZM216.314 38.1437C216.314 25.425 216.314 12.7125 216.314 0C222.161 0 228.009 0 233.856 0C233.856 2.43125 233.856 4.86875 233.856 7.30625C230.862 7.24375 227.861 7.1875 224.867 7.13125C224.867 15.35 224.867 23.5688 224.867 31.7875C228.291 32.0687 231.402 31.9125 234.469 31.2C234.469 34.1125 234.469 37.0187 234.469 39.9313C228.42 39.275 222.364 38.675 216.314 38.1437ZM275.111 8.425C274.51 8.4 273.909 8.38125 273.307 8.3625C273.497 11.5 273.694 14.6437 273.884 17.7937C274.89 17.8625 275.896 17.9312 276.909 18.0063C276.909 12.0062 276.909 6 276.909 0C279.449 0 281.995 0 284.535 0C284.541 15.925 284.541 31.85 284.541 47.775C281.995 47.275 279.449 46.7812 276.909 46.3062C276.909 39.975 276.909 33.6437 276.909 27.3125C276.074 27.2188 275.24 27.1312 274.405 27.0375C274.786 33.3562 275.166 39.6937 275.547 46.05C273.007 45.5875 270.46 45.1375 267.914 44.7C267.386 32.4437 266.865 20.2437 266.337 8.0875C265.81 20.1625 265.282 32.1875 264.76 44.1687C262.214 43.75 259.668 43.3438 257.128 42.95C257.87 31.3438 258.619 19.6688 259.361 7.93125C258.619 7.9125 257.87 7.8875 257.128 7.86875C257.128 5.24375 257.128 2.625 257.128 0C263.122 0 269.117 0 275.111 0C275.111 2.80625 275.111 5.6125 275.111 8.425ZM286.118 48.0938C286.118 32.0625 286.118 16.0312 286.118 0C288.664 0 291.205 0 293.751 0C293.751 16.5625 293.751 33.125 293.751 49.6812C291.205 49.1437 288.664 48.6125 286.118 48.0938ZM321.582 21.3062C321.582 17.6437 321.582 13.9812 321.582 10.3188C320.557 10.2688 319.532 10.225 318.508 10.175C319.765 17.0312 321.023 23.975 322.281 30.9937C319.281 30.5625 316.287 30.1437 313.286 29.7313C312.268 23 311.243 16.3375 310.219 9.73125C309.194 16.1812 308.169 22.5812 307.151 28.9125C304.151 28.525 301.156 28.15 298.156 27.7812C299.414 21.7313 300.672 15.6188 301.929 9.4375C300.672 9.38125 299.414 9.33125 298.156 9.28125C298.156 6.1875 298.156 3.09375 298.156 0C306.2 0 314.237 0 322.281 0C322.281 3.3375 322.281 6.68125 322.281 10.0188C323.52 10.075 324.766 10.1375 326.011 10.1937C326.011 6.8 326.011 3.4 326.011 0C328.932 0 331.859 0 334.779 0C334.779 13.8375 334.779 27.675 334.779 41.5187C331.859 40.9437 328.932 40.3812 326.011 39.8312C326.011 33.8062 326.011 27.775 326.011 21.75C324.533 21.6 323.054 21.45 321.582 21.3062ZM298.377 31.1C301.304 31.5062 304.224 31.9188 307.151 32.3375C307.151 35.9125 307.151 39.4875 307.151 43.0563C310.801 43.7562 314.458 44.475 318.115 45.2063C323.815 46.3563 329.957 47.0188 335 46.8813C335 51.25 335 55.625 335 60C322.79 56.6437 310.587 53.5438 298.377 50.6937C298.377 44.1625 298.377 37.6312 298.377 31.1Z" fill="url(#paint6_linear_229_15523)"/>
  <path d="M20.1307 54.6C20.1307 36.4 20.1307 18.2 20.1307 0C22.6769 0 25.217 0 27.7633 0C27.7633 6.8375 27.7633 13.675 27.7633 20.5063C28.3891 20.45 29.0211 20.3938 29.6469 20.3375C29.6469 13.5563 29.6469 6.78125 29.6469 0C32.1931 0 34.7394 0 37.2795 0C37.2795 16.85 37.2795 33.7 37.2795 50.55C34.7394 51.1187 32.1931 51.7 29.6469 52.2937C29.6469 45.1437 29.6469 37.9937 29.6469 30.8438C29.0211 30.9312 28.3891 31.0188 27.7633 31.1063C27.7633 38.3187 27.7633 45.525 27.7633 52.7375C25.217 53.35 22.6769 53.9688 20.1307 54.6ZM0 60C1.40504 39.7313 2.81007 19.7375 4.20897 0C7.7185 0 11.228 0 14.7375 0C16.1426 18.5375 17.5415 36.8375 18.9465 54.9C16.3757 55.5562 13.7988 56.225 11.228 56.9062C10.6451 43.75 10.0561 30.525 9.47326 17.225C8.89038 30.6937 8.30137 44.2312 7.7185 57.85C5.14771 58.5562 2.57079 59.2687 0 60ZM41.9118 49.5437C41.9118 33.025 41.9118 16.5125 41.9118 0C49.4953 0 57.085 0 64.6746 0C64.6746 2.75625 64.6746 5.5125 64.6746 8.26875C60.0055 8.41875 55.3425 8.58125 50.6795 8.74375C50.6795 12.225 50.6795 15.7063 50.6795 19.1812C55.0541 18.8375 59.4226 18.5125 63.7973 18.1938C63.7973 20.9563 63.7973 23.725 63.7973 26.4875C59.4226 26.95 55.0541 27.4312 50.6795 27.925C50.6795 31.6125 50.6795 35.3 50.6795 38.9875C57.042 37.9813 60.7663 37.0375 65.7668 35.1C65.7668 38.375 65.7668 41.65 65.7668 44.925C57.8151 46.3562 49.8635 47.8937 41.9118 49.5437ZM65.5459 26.3062C65.5459 23.5625 65.5459 20.8188 65.5459 18.0688C66.8773 17.975 68.2087 17.8875 69.5401 17.7937C69.5401 11.8625 69.5401 5.93125 69.5401 0C72.4668 0 75.3873 0 78.3139 0C78.3139 14.2938 78.3139 28.5875 78.3139 42.8875C75.3873 43.3375 72.4668 43.8 69.5401 44.2812C69.5401 38.1562 69.5401 32.0312 69.5401 25.9125C68.2087 26.0437 66.8773 26.175 65.5459 26.3062ZM82.9401 23.2437C82.9401 15.4937 82.9401 7.75 82.9401 0C85.8668 0 88.7873 0 91.7139 0C91.7139 1.18125 91.7139 2.35625 91.7139 3.5375C93.9043 3.5125 96.1008 3.4875 98.2912 3.46875C98.2912 2.3125 98.2912 1.15625 98.2912 0C101.218 0 104.138 0 107.065 0C107.065 7.2 107.065 14.4 107.065 21.6063C99.0213 22.0938 90.9838 22.6375 82.9401 23.2437ZM109.255 27.0125C109.255 18.0125 109.255 9.00625 109.255 0C112.182 0 115.103 0 118.029 0C118.029 2.69375 118.029 5.3875 118.029 8.08125C119.342 8.05625 120.661 8.0375 121.974 8.0125C121.974 10.55 121.974 13.0875 121.974 15.625C120.661 15.6687 119.342 15.7125 118.029 15.7562C118.029 19.325 118.029 22.8938 118.029 26.4563C115.103 26.6313 112.182 26.8188 109.255 27.0125ZM95.0026 4.8C94.8676 9.79375 92.1066 12.875 88.683 13.1625C92.1925 13.1625 95.0026 16.2188 95.0026 21.4C95.0026 16.2188 97.8065 12.9375 101.316 12.6688C97.8985 12.65 95.1314 9.78125 95.0026 4.8ZM82.9401 26.1375C85.8668 25.8813 88.7873 25.6375 91.7139 25.3938C91.7139 28.0938 91.7139 30.7938 91.7139 33.4875C94.9289 33.1437 98.144 32.8125 101.359 32.4938C107.065 31.9438 113.207 31 118.25 29.8312C118.25 32.6125 118.25 35.3938 118.25 38.175C106.476 39.2812 94.7081 40.625 82.9401 42.2C82.9401 36.8438 82.9401 31.4937 82.9401 26.1375ZM141.884 6.06875C141.884 6.475 141.884 6.875 141.884 7.28125C145.173 7.25625 148.461 7.23125 151.75 7.2125C151.75 8.775 151.75 10.3313 151.75 11.8938C149.468 12.6438 145.565 13.1687 141.884 13.2188C141.884 13.6375 141.884 14.0562 141.884 14.475C145.565 14.4187 149.511 14.0625 152.407 13.0438C152.407 15.475 152.407 17.9125 152.407 20.3438C146.357 20.4438 140.301 20.5875 134.252 20.7625C134.252 13.8375 134.252 6.91875 134.252 0C140.086 0 145.915 0 151.75 0C151.75 2.00625 151.75 4.00625 151.75 6.0125C148.461 6.025 145.173 6.04375 141.884 6.06875ZM153.505 20.325C153.505 13.55 153.505 6.775 153.505 0C156.051 0 158.591 0 161.137 0C161.137 2.125 161.137 4.24375 161.137 6.36875C161.763 6.3625 162.395 6.3625 163.021 6.3625C163.021 4.24375 163.021 2.11875 163.021 0C165.567 0 168.107 0 170.654 0C170.654 6.74375 170.654 13.4938 170.654 20.2375C168.107 20.2313 165.567 20.2375 163.021 20.2437C163.021 18.0375 163.021 15.8312 163.021 13.625C162.395 13.625 161.763 13.625 161.137 13.6312C161.137 15.8375 161.137 18.0438 161.137 20.25C158.591 20.2688 156.051 20.2938 153.505 20.325ZM170.654 36.1188C167.733 36.1125 164.807 36.1188 161.88 36.1375C161.88 33.3312 161.88 30.5312 161.88 27.725C152.67 27.85 143.461 28.0812 134.252 28.425C134.252 26.3062 134.252 24.1938 134.252 22.075C146.388 21.7375 158.518 21.5562 170.654 21.5187C170.654 26.3875 170.654 31.2563 170.654 36.1188ZM202.914 37.1813C202.914 24.7875 202.914 12.3938 202.914 0C205.835 0 208.761 0 211.688 0C211.688 12.5938 211.688 25.1812 211.688 37.775C208.761 37.5625 205.835 37.3625 202.914 37.1813ZM174.402 36.1562C176.887 24.125 179.378 12.075 181.863 0C185.808 0 189.754 0 193.705 0C196.19 12.2687 198.675 24.625 201.16 37.075C198.092 36.9062 195.018 36.7562 191.95 36.6188C190.557 28.0375 189.171 19.4813 187.784 10.95C186.391 19.425 185.005 27.8875 183.618 36.3312C180.544 36.2563 177.476 36.2 174.402 36.1562ZM235.568 40.0562C235.568 26.7062 235.568 13.35 235.568 0C238.114 0 240.654 0 243.2 0C243.2 5.3125 243.2 10.625 243.2 15.9438C243.826 15.975 244.458 16.0063 245.084 16.0375C245.084 10.6937 245.084 5.34375 245.084 0C247.63 0 250.176 0 252.716 0C252.716 14.1 252.716 28.2 252.716 42.2937C250.176 41.9312 247.63 41.5813 245.084 41.2375C245.084 35.6 245.084 29.9625 245.084 24.325C244.458 24.275 243.826 24.225 243.2 24.1812C243.2 29.7812 243.2 35.3875 243.2 40.9937C240.654 40.6687 238.114 40.3562 235.568 40.0562ZM216.314 38.1437C216.314 25.425 216.314 12.7125 216.314 0C222.161 0 228.009 0 233.856 0C233.856 2.43125 233.856 4.86875 233.856 7.30625C230.862 7.24375 227.861 7.1875 224.867 7.13125C224.867 15.35 224.867 23.5688 224.867 31.7875C228.291 32.0687 231.402 31.9125 234.469 31.2C234.469 34.1125 234.469 37.0187 234.469 39.9313C228.42 39.275 222.364 38.675 216.314 38.1437ZM275.111 8.425C274.51 8.4 273.909 8.38125 273.307 8.3625C273.497 11.5 273.694 14.6437 273.884 17.7937C274.89 17.8625 275.896 17.9312 276.909 18.0063C276.909 12.0062 276.909 6 276.909 0C279.449 0 281.995 0 284.535 0C284.541 15.925 284.541 31.85 284.541 47.775C281.995 47.275 279.449 46.7812 276.909 46.3062C276.909 39.975 276.909 33.6437 276.909 27.3125C276.074 27.2188 275.24 27.1312 274.405 27.0375C274.786 33.3562 275.166 39.6937 275.547 46.05C273.007 45.5875 270.46 45.1375 267.914 44.7C267.386 32.4437 266.865 20.2437 266.337 8.0875C265.81 20.1625 265.282 32.1875 264.76 44.1687C262.214 43.75 259.668 43.3438 257.128 42.95C257.87 31.3438 258.619 19.6688 259.361 7.93125C258.619 7.9125 257.87 7.8875 257.128 7.86875C257.128 5.24375 257.128 2.625 257.128 0C263.122 0 269.117 0 275.111 0C275.111 2.80625 275.111 5.6125 275.111 8.425ZM286.118 48.0938C286.118 32.0625 286.118 16.0312 286.118 0C288.664 0 291.205 0 293.751 0C293.751 16.5625 293.751 33.125 293.751 49.6812C291.205 49.1437 288.664 48.6125 286.118 48.0938ZM321.582 21.3062C321.582 17.6437 321.582 13.9812 321.582 10.3188C320.557 10.2688 319.532 10.225 318.508 10.175C319.765 17.0312 321.023 23.975 322.281 30.9937C319.281 30.5625 316.287 30.1437 313.286 29.7313C312.268 23 311.243 16.3375 310.219 9.73125C309.194 16.1812 308.169 22.5812 307.151 28.9125C304.151 28.525 301.156 28.15 298.156 27.7812C299.414 21.7313 300.672 15.6188 301.929 9.4375C300.672 9.38125 299.414 9.33125 298.156 9.28125C298.156 6.1875 298.156 3.09375 298.156 0C306.2 0 314.237 0 322.281 0C322.281 3.3375 322.281 6.68125 322.281 10.0188C323.52 10.075 324.766 10.1375 326.011 10.1937C326.011 6.8 326.011 3.4 326.011 0C328.932 0 331.859 0 334.779 0C334.779 13.8375 334.779 27.675 334.779 41.5187C331.859 40.9437 328.932 40.3812 326.011 39.8312C326.011 33.8062 326.011 27.775 326.011 21.75C324.533 21.6 323.054 21.45 321.582 21.3062ZM298.377 31.1C301.304 31.5062 304.224 31.9188 307.151 32.3375C307.151 35.9125 307.151 39.4875 307.151 43.0563C310.801 43.7562 314.458 44.475 318.115 45.2063C323.815 46.3563 329.957 47.0188 335 46.8813C335 51.25 335 55.625 335 60C322.79 56.6437 310.587 53.5438 298.377 50.6937C298.377 44.1625 298.377 37.6312 298.377 31.1Z" fill="url(#paint7_linear_229_15523)"/>
  <defs>
    <linearGradient id="paint0_linear_229_15523" x1="167.822" y1="2.03306" x2="167.822" y2="52.2695" gradientUnits="userSpaceOnUse">
      <stop stop-color="#00B3FF"/>
      <stop offset="0.73" stop-color="#5E35B1"/>
    </linearGradient>
    <linearGradient id="paint1_linear_229_15523" x1="167.822" y1="2.03306" x2="167.822" y2="52.2695" gradientUnits="userSpaceOnUse">
      <stop stop-color="#00B3FF"/>
      <stop offset="0.73" stop-color="#5E35B1"/>
    </linearGradient>
    <linearGradient id="paint2_linear_229_15523" x1="167.822" y1="2.03306" x2="167.822" y2="52.2695" gradientUnits="userSpaceOnUse">
      <stop stop-color="#00B3FF"/>
      <stop offset="0.73" stop-color="#5E35B1"/>
    </linearGradient>
    <linearGradient id="paint3_linear_229_15523" x1="167.822" y1="2.03306" x2="167.822" y2="52.2695" gradientUnits="userSpaceOnUse">
      <stop stop-color="#00B3FF"/>
      <stop offset="0.73" stop-color="#5E35B1"/>
    </linearGradient>
    <linearGradient id="paint4_linear_229_15523" x1="167.822" y1="2.03306" x2="167.822" y2="52.2695" gradientUnits="userSpaceOnUse">
      <stop stop-color="#00B3FF"/>
      <stop offset="0.73" stop-color="#5E35B1"/>
    </linearGradient>
    <linearGradient id="paint5_linear_229_15523" x1="167.822" y1="2.03306" x2="167.822" y2="52.2695" gradientUnits="userSpaceOnUse">
      <stop stop-color="#00B3FF"/>
      <stop offset="0.73" stop-color="#5E35B1"/>
    </linearGradient>
    <linearGradient id="paint6_linear_229_15523" x1="167.822" y1="2.03306" x2="167.822" y2="52.2695" gradientUnits="userSpaceOnUse">
      <stop stop-color="#00B3FF"/>
      <stop offset="0.73" stop-color="#5E35B1"/>
    </linearGradient>
    <linearGradient id="paint7_linear_229_15523" x1="167.822" y1="2.03306" x2="167.822" y2="52.2695" gradientUnits="userSpaceOnUse">
      <stop stop-color="#00B3FF"/>
      <stop offset="0.73" stop-color="#5E35B1"/>
    </linearGradient>
  </defs>
</svg>