<svg width="95" height="27" viewBox="0 0 95 27" fill="none" xmlns="http://www.w3.org/2000/svg">
<g clip-path="url(#clip0_340_1781)">
<path d="M0 18.6824L4.26 10.2487L0 3.43994V18.6824Z" fill="white"/>
<path d="M1.93335 27L12.4996 17.2812L5.7446 20.1925L1.93335 27Z" fill="white"/>
<path d="M10.2511 0L0.088623 19.6625L6.70238 16.31L12.4224 9.39125L10.2511 0Z" fill="white"/>
<path d="M6.70237 16.3099L0.088623 19.6624L5.74487 20.1924L12.4999 17.2812L6.70237 16.3099Z" fill="white"/>
<path d="M27.3863 10.7124C27.2664 10.6004 27.1323 10.5046 26.9875 10.4274C26.712 10.2637 26.4264 10.1176 26.1325 9.98988C25.7677 9.82988 25.3917 9.69661 25.0075 9.59113C24.6119 9.47863 24.2026 9.42101 23.7913 9.41988C22.6763 9.41988 22.1188 9.79488 22.1188 10.5449C22.1113 10.7501 22.1754 10.9516 22.3 11.1149C22.4466 11.2868 22.6276 11.426 22.8313 11.5236C23.1146 11.6624 23.4105 11.7737 23.715 11.8561C24.0717 11.952 24.4846 12.0645 24.9538 12.1936C25.5476 12.3538 26.1319 12.5474 26.7038 12.7736C27.1834 12.9593 27.6293 13.2224 28.0238 13.5524C28.3834 13.8599 28.6692 14.2444 28.86 14.6774C29.0679 15.1832 29.168 15.7269 29.1538 16.2736C29.1538 17.0336 29.0113 17.6765 28.7263 18.2024C28.4584 18.7104 28.0726 19.1468 27.6013 19.4749C27.1112 19.8075 26.5636 20.0461 25.9863 20.1786C25.3699 20.3251 24.7385 20.3985 24.105 20.3974C23.5962 20.396 23.0882 20.3576 22.585 20.2824C22.071 20.2083 21.563 20.0972 21.065 19.9499C20.5743 19.8089 20.0932 19.6361 19.625 19.4324C19.1769 19.238 18.7476 19.0028 18.3425 18.7299L19.71 16.0124C19.86 16.1516 20.0257 16.2729 20.2038 16.3736C20.5346 16.5782 20.8811 16.7562 21.24 16.9061C21.6869 17.0958 22.1463 17.2545 22.615 17.3811C23.1163 17.5194 23.6338 17.5896 24.1538 17.5899C25.2554 17.5899 25.8063 17.254 25.8063 16.5824C25.8092 16.4667 25.7886 16.3516 25.7456 16.2442C25.7026 16.1367 25.6382 16.0391 25.5563 15.9574C25.3562 15.7693 25.1242 15.6182 24.8713 15.5111C24.5362 15.3602 24.1902 15.2349 23.8363 15.1361C23.4379 15.0228 23.0042 14.8978 22.535 14.7611C21.9815 14.5975 21.4415 14.391 20.92 14.1436C20.5061 13.9496 20.1262 13.69 19.795 13.3749C19.5008 13.091 19.2721 12.7463 19.125 12.3649C18.9722 11.9385 18.8985 11.4878 18.9075 11.0349C18.8954 10.3876 19.0318 9.74619 19.3063 9.15988C19.5631 8.62845 19.9325 8.15927 20.3888 7.78488C20.8585 7.40414 21.397 7.11726 21.975 6.93988C22.5933 6.74748 23.2375 6.65135 23.885 6.65488C24.3507 6.65438 24.8154 6.69875 25.2725 6.78738C25.7178 6.87099 26.157 6.98373 26.5875 7.12488C26.9875 7.25636 27.378 7.41506 27.7563 7.59988C28.1171 7.77738 28.4504 7.95446 28.7563 8.13113L27.3863 10.7124Z" fill="white"/>
<path d="M30.9762 20.25V6.76003H36.7337C37.3487 6.75288 37.957 6.88942 38.5099 7.15878C39.0351 7.415 39.5062 7.76976 39.8974 8.20378C40.2839 8.6351 40.5922 9.13041 40.8087 9.66753C41.0267 10.1913 41.1397 10.7527 41.1412 11.32C41.1433 11.9044 41.0374 12.4842 40.8287 13.03C40.6249 13.565 40.3287 14.06 39.9537 14.4925C39.5778 14.9256 39.1154 15.2752 38.5962 15.5188C38.0427 15.7752 37.4386 15.9033 36.8287 15.8938H34.0924V20.25H30.9762ZM34.0924 13.1825H36.6387C36.8228 13.1811 37.0041 13.1376 37.1688 13.0552C37.3335 12.9729 37.4771 12.854 37.5887 12.7075C37.8545 12.39 37.9874 11.9275 37.9874 11.32C37.9931 11.0424 37.9508 10.7658 37.8624 10.5025C37.7905 10.2923 37.6775 10.0986 37.5299 9.93253C37.3992 9.78679 37.2366 9.67303 37.0549 9.60003C36.886 9.53407 36.7063 9.50016 36.5249 9.50003H34.0924V13.1825Z" fill="white"/>
<path d="M45.625 6.76001H48.4375L53.3587 20.25H50.1662L49.125 17.2288H44.9225L43.8962 20.25H40.705L45.625 6.76001ZM48.6087 15.0825L47.0312 10.3125L45.4162 15.0825H48.6087Z" fill="white"/>
<path d="M54.6887 20.2499V6.75993H60.7687C61.3776 6.75428 61.9794 6.89082 62.5262 7.15868C63.0529 7.41668 63.5265 7.77114 63.9225 8.20368C64.3141 8.63299 64.626 9.12866 64.8437 9.66743C65.0612 10.1913 65.1741 10.7527 65.1762 11.3199C65.1817 12.1261 64.9789 12.9201 64.5875 13.6249C64.2115 14.3043 63.6518 14.864 62.9725 15.2399L65.9362 20.2499H62.4212L59.8375 15.8987H57.805V20.2499H54.6887ZM57.805 13.1824H60.655C61.0212 13.1824 61.3387 13.0074 61.605 12.6599C61.882 12.2696 62.0209 11.7981 62 11.3199C62 10.7624 61.8479 10.3191 61.5437 9.98993C61.24 9.66118 60.91 9.48993 60.5562 9.48993H57.8062L57.805 13.1824Z" fill="white"/>
<path d="M66.64 13.3912C66.643 12.5627 66.7972 11.7417 67.095 10.9687C67.3951 10.1709 67.8468 9.43866 68.425 8.81241C69.0261 8.16534 69.748 7.64217 70.55 7.27241C71.4446 6.86735 72.4181 6.66625 73.4 6.68366C74.6658 6.68366 75.7646 6.95616 76.6963 7.50116C77.5789 7.99549 78.3009 8.7331 78.7763 9.62616L76.3863 11.3012C76.2516 10.9723 76.0551 10.6723 75.8075 10.4174C75.581 10.1898 75.3214 9.9976 75.0375 9.84741C74.7687 9.70531 74.4807 9.603 74.1825 9.54366C73.901 9.48713 73.6146 9.45825 73.3275 9.45741C72.7862 9.44502 72.2506 9.56927 71.77 9.81866C71.3407 10.0475 70.9649 10.3649 70.6675 10.7499C70.3732 11.1366 70.154 11.575 70.0213 12.0424C69.8836 12.516 69.8133 13.0067 69.8125 13.4999C69.8118 14.023 69.8963 14.5427 70.0625 15.0387C70.2172 15.5159 70.4587 15.9605 70.775 16.3499C71.082 16.7269 71.4654 17.0345 71.9 17.2524C72.3575 17.4784 72.8623 17.5924 73.3725 17.5849C73.6639 17.5834 73.9542 17.5482 74.2375 17.4799C74.5356 17.4109 74.8231 17.3025 75.0925 17.1574C75.3709 17.008 75.624 16.8156 75.8425 16.5874C76.0812 16.338 76.2685 16.0441 76.3938 15.7224L78.94 17.2224C78.733 17.7227 78.4259 18.1753 78.0375 18.5524C77.6321 18.95 77.1684 19.2834 76.6625 19.5412C75.6198 20.0694 74.4689 20.3488 73.3 20.3574C72.3696 20.3681 71.4493 20.1632 70.6113 19.7587C69.8113 19.373 69.0949 18.834 68.5025 18.1724C67.9117 17.5152 67.4457 16.7557 67.1275 15.9312C66.8092 15.122 66.6439 14.2607 66.64 13.3912Z" fill="white"/>
<path d="M88.5837 10.7124C88.4644 10.5997 88.3302 10.5039 88.185 10.4274C87.9098 10.2632 87.6242 10.1171 87.33 9.98989C86.9653 9.82949 86.5893 9.69622 86.205 9.59114C85.813 9.47946 85.4076 9.42184 85 9.41989C83.885 9.41989 83.3275 9.79489 83.3275 10.5449C83.319 10.7478 83.3798 10.9475 83.5 11.1111C83.6471 11.283 83.8285 11.4222 84.0325 11.5199C84.3157 11.6589 84.6117 11.7702 84.9162 11.8524C85.2696 11.9541 85.6812 12.0678 86.1512 12.1936C86.7451 12.3535 87.3294 12.5472 87.9012 12.7736C88.3814 12.959 88.8277 13.2221 89.2225 13.5524C89.5813 13.8603 89.8667 14.2447 90.0575 14.6774C90.2658 15.1831 90.3663 15.7268 90.3525 16.2736C90.3525 17.0336 90.21 17.6766 89.925 18.2024C89.6568 18.7102 89.2711 19.1465 88.8 19.4749C88.3099 19.8075 87.7623 20.0461 87.185 20.1786C86.5707 20.3245 85.9414 20.3979 85.31 20.3974C84.8012 20.3961 84.2932 20.3576 83.79 20.2824C83.276 20.2084 82.768 20.0973 82.27 19.9499C81.7809 19.8069 81.3016 19.6323 80.835 19.4274C80.3869 19.233 79.9576 18.9978 79.5525 18.7249L80.9212 16.0074C81.0731 16.147 81.241 16.2683 81.4212 16.3686C81.7518 16.573 82.0978 16.751 82.4562 16.9011C82.9032 17.0906 83.3626 17.2493 83.8312 17.3761C84.3325 17.5144 84.85 17.5846 85.37 17.5849C86.4725 17.5849 87.0237 17.2491 87.0237 16.5774C87.0269 16.4617 87.0063 16.3465 86.9633 16.239C86.9204 16.1316 86.8558 16.034 86.7737 15.9524C86.5741 15.7643 86.3426 15.6132 86.09 15.5061C85.7549 15.3552 85.4089 15.2299 85.055 15.1311C84.655 15.0178 84.2208 14.8928 83.7525 14.7561C83.1949 14.5937 82.6507 14.3881 82.125 14.1411C81.7112 13.9468 81.3314 13.6872 81 13.3724C80.7075 13.0891 80.4805 12.7452 80.335 12.3649C80.1811 11.9387 80.107 11.4879 80.1162 11.0349C80.1046 10.3877 80.241 9.74637 80.515 9.15989C80.7723 8.62841 81.1421 8.15923 81.5987 7.78489C82.0684 7.40415 82.607 7.11727 83.185 6.93989C83.8032 6.74729 84.4475 6.65117 85.095 6.65489C85.5603 6.65447 86.0245 6.69884 86.4812 6.78739C86.9231 6.87133 87.3591 6.98407 87.7862 7.12489C88.1861 7.25659 88.5766 7.41529 88.955 7.59989C89.3158 7.77739 89.6492 7.95447 89.955 8.13114L88.5837 10.7124Z" fill="white"/>
</g>
<defs>
<clipPath id="clip0_340_1781">
<rect width="94" height="27" fill="white" transform="translate(0.5)"/>
</clipPath>
</defs>
</svg>
