<svg width="128" height="128" viewBox="0 0 128 128" fill="none" xmlns="http://www.w3.org/2000/svg">
<g clip-path="url(#clip0_166_487)">
<rect width="128" height="128" fill="url(#paint0_linear_166_487)"/>
<path d="M81.121 20.7878C83.0241 24.7204 81.8451 30.1082 77.5678 35.8852C73.3404 41.5949 66.3267 47.3077 57.4977 51.5801C48.6688 55.8526 39.8368 57.8079 32.7361 57.5801C25.5517 57.3496 20.595 54.931 18.6919 50.9984C16.7888 47.0657 17.9679 41.6779 22.2452 35.9009C26.4726 30.1912 33.4863 24.4785 42.3152 20.206C51.1441 15.9335 59.9762 13.9782 67.0768 14.206C74.2613 14.4365 79.2179 16.8551 81.121 20.7878Z" fill="#FFC107" stroke="black" stroke-width="3.14534"/>
<circle cx="35.2791" cy="42.9714" r="7" transform="rotate(-25.8232 35.2791 42.9714)" fill="white"/>
<circle cx="35.2791" cy="42.9714" r="4.5" transform="rotate(-25.8232 35.2791 42.9714)" fill="black"/>
<circle cx="64.5338" cy="28.8146" r="7" transform="rotate(-25.8232 64.5338 28.8146)" fill="white"/>
<circle cx="64.5338" cy="28.8146" r="4.5" transform="rotate(-25.8232 64.5338 28.8146)" fill="black"/>
<path d="M116.872 50.7199C117.156 53.1613 115.534 55.8062 112.193 58.0854C108.892 60.3379 104.109 62.0772 98.6279 62.7155C93.1469 63.3539 88.0925 62.7605 84.3615 61.327C80.5866 59.8766 78.3998 57.6753 78.1155 55.2339C77.8311 52.7925 79.4534 50.1475 82.794 47.8684C86.0956 45.6158 90.8783 43.8766 96.3594 43.2382C101.84 42.5998 106.895 43.1933 110.626 44.6268C114.401 46.0772 116.588 48.2785 116.872 50.7199Z" fill="#FFC107" stroke="black" stroke-width="1.76954"/>
<circle cx="88.413" cy="54.0345" r="3.93815" transform="rotate(-6.64335 88.413 54.0345)" fill="white"/>
<circle cx="88.413" cy="54.0345" r="2.53167" transform="rotate(-6.64335 88.413 54.0345)" fill="black"/>
<circle cx="106.574" cy="51.9192" r="3.93815" transform="rotate(-6.64335 106.574 51.9192)" fill="white"/>
<circle cx="106.574" cy="51.9193" r="2.53167" transform="rotate(-6.64335 106.574 51.9193)" fill="black"/>
<path d="M48.5261 82.8542C47.615 85.168 44.9057 86.7538 40.838 87.1933C36.8177 87.6278 31.7209 86.8975 26.5263 84.852C21.3317 82.8065 17.1055 79.8656 14.4608 76.8066C11.7849 73.7116 10.8842 70.7044 11.7953 68.3905C12.7064 66.0767 15.4157 64.491 19.4835 64.0514C23.5038 63.617 28.6006 64.3472 33.7951 66.3927C38.9897 68.4382 43.216 71.3792 45.8607 74.4381C48.5366 77.5332 49.4373 80.5404 48.5261 82.8542Z" fill="#FFC107" stroke="black" stroke-width="1.79029"/>
<circle cx="21.5546" cy="72.2335" r="3.98433" transform="rotate(21.4933 21.5546 72.2335)" fill="white"/>
<circle cx="21.5544" cy="72.2336" r="2.56135" transform="rotate(21.4933 21.5544 72.2336)" fill="black"/>
<circle cx="38.767" cy="79.0113" r="3.98433" transform="rotate(21.4933 38.767 79.0113)" fill="white"/>
<circle cx="38.767" cy="79.0113" r="2.56135" transform="rotate(21.4933 38.767 79.0113)" fill="black"/>
<path d="M94.5789 87.5485C95.0448 89.2457 94.1832 91.2936 92.0658 93.2688C89.9731 95.221 86.7765 96.9703 82.9663 98.0162C79.156 99.0621 75.5143 99.1899 72.7182 98.5797C69.8892 97.9622 68.1028 96.6412 67.6369 94.944C67.1711 93.2468 68.0327 91.1989 70.1501 89.2237C72.2428 87.2716 75.4394 85.5222 79.2496 84.4763C83.0598 83.4304 86.7016 83.3027 89.4977 83.9129C92.3267 84.5303 94.1131 85.8514 94.5789 87.5485Z" fill="#FFC107" stroke="black" stroke-width="1.26706"/>
<circle cx="74.7953" cy="92.9791" r="2.81985" transform="rotate(-15.3494 74.7953 92.9791)" fill="white"/>
<circle cx="74.7953" cy="92.9791" r="1.81276" transform="rotate(-15.3494 74.7953 92.9791)" fill="black"/>
<circle cx="87.4208" cy="89.5134" r="2.81985" transform="rotate(-15.3494 87.4208 89.5134)" fill="white"/>
<circle cx="87.4208" cy="89.5134" r="1.81276" transform="rotate(-15.3494 87.4208 89.5134)" fill="black"/>
<rect width="128" height="128" fill="url(#paint1_linear_166_487)"/>
</g>
<defs>
<linearGradient id="paint0_linear_166_487" x1="64" y1="0" x2="64" y2="128" gradientUnits="userSpaceOnUse">
<stop stop-color="#203F76"/>
<stop offset="1" stop-color="#797F6C"/>
</linearGradient>
<linearGradient id="paint1_linear_166_487" x1="64" y1="0" x2="64" y2="128" gradientUnits="userSpaceOnUse">
<stop stop-opacity="0"/>
<stop offset="1" stop-opacity="0.6"/>
</linearGradient>
<clipPath id="clip0_166_487">
<rect width="128" height="128" fill="white"/>
</clipPath>
</defs>
</svg>
