<svg width="168" height="36" viewBox="0 0 168 36" fill="none" xmlns="http://www.w3.org/2000/svg">
<mask id="path-1-outside-1_148_1376" maskUnits="userSpaceOnUse" x="0" y="0" width="168" height="36" fill="black">
<rect fill="white" width="168" height="36"/>
<path d="M9.53488 7.064H13.0349V13.336C13.0349 13.8773 13.0629 14.3627 13.1189 14.792C13.1935 15.2027 13.2962 15.5947 13.4269 15.968C13.5762 16.3227 13.7535 16.6773 13.9589 17.032C14.1642 17.368 14.4162 17.7133 14.7149 18.068C15.2375 18.7213 15.8069 19.3933 16.4229 20.084C17.0575 20.756 17.7015 21.4187 18.3549 22.072L16.0309 24.228C14.7989 22.9587 13.7629 21.8387 12.9229 20.868C12.1015 19.916 11.6162 19.2627 11.4669 18.908H11.4389C11.3642 19.1133 11.1869 19.412 10.9069 19.804C10.6455 20.1773 10.3375 20.5693 9.98288 20.98C9.79621 21.204 9.57221 21.4653 9.31088 21.764C9.04954 22.044 8.76021 22.352 8.44288 22.688C8.14421 23.024 7.82688 23.3693 7.49088 23.724C7.17354 24.06 6.85621 24.3773 6.53888 24.676L4.15888 22.38C4.75621 21.7827 5.38154 21.1293 6.03488 20.42C6.68821 19.7107 7.28554 19.02 7.82688 18.348C8.16288 17.9373 8.43354 17.5453 8.63888 17.172C8.86288 16.7987 9.04021 16.4253 9.17088 16.052C9.30154 15.6787 9.39488 15.2773 9.45088 14.848C9.50688 14.4 9.53488 13.896 9.53488 13.336V7.064ZM21.9109 14.176H24.2069V4.992H27.5669V31.032H24.2069V17.228H21.9109V29.772H18.5509V5.524H21.9109V14.176ZM39.8913 7.456H45.5193V10.424H30.6233V7.456H36.3633V4.656H39.8913V7.456ZM51.0073 11.516H54.4233V14.596H51.0073V21.288H47.4793V4.992H51.0073V11.516ZM34.4033 22.464H51.0073V31.368H47.4793V25.432H34.4033V22.464ZM38.1273 21.036C37.1379 21.036 36.2606 20.924 35.4953 20.7C34.7299 20.4573 34.0859 20.14 33.5633 19.748C33.0406 19.3373 32.6393 18.8613 32.3593 18.32C32.0793 17.7787 31.9393 17.2 31.9393 16.584V15.688C31.9393 15.072 32.0793 14.4933 32.3593 13.952C32.6393 13.4107 33.0406 12.944 33.5633 12.552C34.0859 12.1413 34.7299 11.824 35.4953 11.6C36.2606 11.3573 37.1379 11.236 38.1273 11.236C39.0979 11.236 39.9659 11.3573 40.7313 11.6C41.5153 11.824 42.1686 12.1413 42.6913 12.552C43.2139 12.944 43.6153 13.4107 43.8953 13.952C44.1753 14.4933 44.3152 15.072 44.3152 15.688V16.584C44.3152 17.2 44.1753 17.7787 43.8953 18.32C43.6153 18.8613 43.2139 19.3373 42.6913 19.748C42.1686 20.14 41.5153 20.4573 40.7313 20.7C39.9659 20.924 39.0979 21.036 38.1273 21.036ZM38.1273 14.008C37.1939 14.008 36.4846 14.2133 35.9993 14.624C35.5139 15.016 35.2713 15.4267 35.2713 15.856V16.416C35.2713 16.8453 35.5139 17.2653 35.9993 17.676C36.4846 18.068 37.1939 18.264 38.1273 18.264C39.0606 18.264 39.7699 18.068 40.2553 17.676C40.7406 17.2653 40.9833 16.8453 40.9833 16.416V15.856C40.9833 15.4267 40.7406 15.016 40.2553 14.624C39.7699 14.2133 39.0606 14.008 38.1273 14.008ZM77.7516 31.032H74.1956V4.992H77.7516V31.032ZM56.9756 22.884C58.3756 22.044 59.5703 21.2973 60.5596 20.644C61.549 19.9907 62.3703 19.3933 63.0236 18.852C63.6956 18.292 64.2183 17.7693 64.5916 17.284C64.9836 16.78 65.273 16.276 65.4596 15.772C65.665 15.268 65.7956 14.736 65.8516 14.176C65.9076 13.616 65.9356 12.9907 65.9356 12.3V10.368H57.4516V7.316H69.4916V12.468C69.4916 13.4013 69.445 14.2507 69.3516 15.016C69.2583 15.7813 69.0716 16.5 68.7916 17.172C68.5303 17.8253 68.1476 18.46 67.6436 19.076C67.1583 19.692 66.5236 20.336 65.7396 21.008C64.9556 21.6613 63.9943 22.3707 62.8556 23.136C61.7356 23.8827 60.401 24.732 58.8516 25.684L56.9756 22.884ZM96.348 24.9C95.1533 24.9 94.1267 24.7133 93.268 24.34C92.428 23.9667 91.7373 23.444 91.196 22.772C90.6547 22.1 90.2533 21.3067 89.992 20.392C89.7493 19.4773 89.628 18.4693 89.628 17.368V14.26C89.628 13.1773 89.7493 12.1787 89.992 11.264C90.2533 10.3307 90.6547 9.528 91.196 8.856C91.7373 8.184 92.428 7.66133 93.268 7.288C94.1267 6.91467 95.1533 6.728 96.348 6.728C97.5427 6.728 98.56 6.91467 99.4 7.288C100.259 7.66133 100.959 8.184 101.5 8.856C102.041 9.528 102.433 10.3307 102.676 11.264C102.937 12.1787 103.068 13.1773 103.068 14.26V17.368C103.068 18.4693 102.937 19.4773 102.676 20.392C102.433 21.3067 102.041 22.1 101.5 22.772C100.959 23.444 100.259 23.9667 99.4 24.34C98.56 24.7133 97.5427 24.9 96.348 24.9ZM96.348 9.836C95.1533 9.836 94.2947 10.2467 93.772 11.068C93.268 11.8893 93.016 13.0933 93.016 14.68V16.948C93.016 18.5347 93.268 19.7387 93.772 20.56C94.2947 21.3813 95.1533 21.792 96.348 21.792C97.5427 21.792 98.392 21.3813 98.896 20.56C99.4187 19.7387 99.68 18.5347 99.68 16.948V14.68C99.68 13.0933 99.4187 11.8893 98.896 11.068C98.392 10.2467 97.5427 9.836 96.348 9.836ZM110.236 31.032H106.68V4.992H110.236V31.032ZM124.996 6.476V11.404H127.572V5.328H130.904V22.94H127.572V14.428H124.996V19.384H114.496V6.476H117.828V10.34H121.664V6.476H124.996ZM122.308 27.728H136.392V30.752H118.752V22.212H122.308V27.728ZM136 23.556H132.64V4.992H136V23.556ZM121.664 16.5V13.196H117.828V16.5H121.664ZM163.137 24.76V27.756H139.281V24.76H163.137ZM160.085 21.204H142.361V6.924H159.805V9.892H145.861V12.58H159.581V15.548H145.861V18.236H160.085V21.204Z"/>
</mask>
<path d="M9.53488 7.064H13.0349V13.336C13.0349 13.8773 13.0629 14.3627 13.1189 14.792C13.1935 15.2027 13.2962 15.5947 13.4269 15.968C13.5762 16.3227 13.7535 16.6773 13.9589 17.032C14.1642 17.368 14.4162 17.7133 14.7149 18.068C15.2375 18.7213 15.8069 19.3933 16.4229 20.084C17.0575 20.756 17.7015 21.4187 18.3549 22.072L16.0309 24.228C14.7989 22.9587 13.7629 21.8387 12.9229 20.868C12.1015 19.916 11.6162 19.2627 11.4669 18.908H11.4389C11.3642 19.1133 11.1869 19.412 10.9069 19.804C10.6455 20.1773 10.3375 20.5693 9.98288 20.98C9.79621 21.204 9.57221 21.4653 9.31088 21.764C9.04954 22.044 8.76021 22.352 8.44288 22.688C8.14421 23.024 7.82688 23.3693 7.49088 23.724C7.17354 24.06 6.85621 24.3773 6.53888 24.676L4.15888 22.38C4.75621 21.7827 5.38154 21.1293 6.03488 20.42C6.68821 19.7107 7.28554 19.02 7.82688 18.348C8.16288 17.9373 8.43354 17.5453 8.63888 17.172C8.86288 16.7987 9.04021 16.4253 9.17088 16.052C9.30154 15.6787 9.39488 15.2773 9.45088 14.848C9.50688 14.4 9.53488 13.896 9.53488 13.336V7.064ZM21.9109 14.176H24.2069V4.992H27.5669V31.032H24.2069V17.228H21.9109V29.772H18.5509V5.524H21.9109V14.176ZM39.8913 7.456H45.5193V10.424H30.6233V7.456H36.3633V4.656H39.8913V7.456ZM51.0073 11.516H54.4233V14.596H51.0073V21.288H47.4793V4.992H51.0073V11.516ZM34.4033 22.464H51.0073V31.368H47.4793V25.432H34.4033V22.464ZM38.1273 21.036C37.1379 21.036 36.2606 20.924 35.4953 20.7C34.7299 20.4573 34.0859 20.14 33.5633 19.748C33.0406 19.3373 32.6393 18.8613 32.3593 18.32C32.0793 17.7787 31.9393 17.2 31.9393 16.584V15.688C31.9393 15.072 32.0793 14.4933 32.3593 13.952C32.6393 13.4107 33.0406 12.944 33.5633 12.552C34.0859 12.1413 34.7299 11.824 35.4953 11.6C36.2606 11.3573 37.1379 11.236 38.1273 11.236C39.0979 11.236 39.9659 11.3573 40.7313 11.6C41.5153 11.824 42.1686 12.1413 42.6913 12.552C43.2139 12.944 43.6153 13.4107 43.8953 13.952C44.1753 14.4933 44.3152 15.072 44.3152 15.688V16.584C44.3152 17.2 44.1753 17.7787 43.8953 18.32C43.6153 18.8613 43.2139 19.3373 42.6913 19.748C42.1686 20.14 41.5153 20.4573 40.7313 20.7C39.9659 20.924 39.0979 21.036 38.1273 21.036ZM38.1273 14.008C37.1939 14.008 36.4846 14.2133 35.9993 14.624C35.5139 15.016 35.2713 15.4267 35.2713 15.856V16.416C35.2713 16.8453 35.5139 17.2653 35.9993 17.676C36.4846 18.068 37.1939 18.264 38.1273 18.264C39.0606 18.264 39.7699 18.068 40.2553 17.676C40.7406 17.2653 40.9833 16.8453 40.9833 16.416V15.856C40.9833 15.4267 40.7406 15.016 40.2553 14.624C39.7699 14.2133 39.0606 14.008 38.1273 14.008ZM77.7516 31.032H74.1956V4.992H77.7516V31.032ZM56.9756 22.884C58.3756 22.044 59.5703 21.2973 60.5596 20.644C61.549 19.9907 62.3703 19.3933 63.0236 18.852C63.6956 18.292 64.2183 17.7693 64.5916 17.284C64.9836 16.78 65.273 16.276 65.4596 15.772C65.665 15.268 65.7956 14.736 65.8516 14.176C65.9076 13.616 65.9356 12.9907 65.9356 12.3V10.368H57.4516V7.316H69.4916V12.468C69.4916 13.4013 69.445 14.2507 69.3516 15.016C69.2583 15.7813 69.0716 16.5 68.7916 17.172C68.5303 17.8253 68.1476 18.46 67.6436 19.076C67.1583 19.692 66.5236 20.336 65.7396 21.008C64.9556 21.6613 63.9943 22.3707 62.8556 23.136C61.7356 23.8827 60.401 24.732 58.8516 25.684L56.9756 22.884ZM96.348 24.9C95.1533 24.9 94.1267 24.7133 93.268 24.34C92.428 23.9667 91.7373 23.444 91.196 22.772C90.6547 22.1 90.2533 21.3067 89.992 20.392C89.7493 19.4773 89.628 18.4693 89.628 17.368V14.26C89.628 13.1773 89.7493 12.1787 89.992 11.264C90.2533 10.3307 90.6547 9.528 91.196 8.856C91.7373 8.184 92.428 7.66133 93.268 7.288C94.1267 6.91467 95.1533 6.728 96.348 6.728C97.5427 6.728 98.56 6.91467 99.4 7.288C100.259 7.66133 100.959 8.184 101.5 8.856C102.041 9.528 102.433 10.3307 102.676 11.264C102.937 12.1787 103.068 13.1773 103.068 14.26V17.368C103.068 18.4693 102.937 19.4773 102.676 20.392C102.433 21.3067 102.041 22.1 101.5 22.772C100.959 23.444 100.259 23.9667 99.4 24.34C98.56 24.7133 97.5427 24.9 96.348 24.9ZM96.348 9.836C95.1533 9.836 94.2947 10.2467 93.772 11.068C93.268 11.8893 93.016 13.0933 93.016 14.68V16.948C93.016 18.5347 93.268 19.7387 93.772 20.56C94.2947 21.3813 95.1533 21.792 96.348 21.792C97.5427 21.792 98.392 21.3813 98.896 20.56C99.4187 19.7387 99.68 18.5347 99.68 16.948V14.68C99.68 13.0933 99.4187 11.8893 98.896 11.068C98.392 10.2467 97.5427 9.836 96.348 9.836ZM110.236 31.032H106.68V4.992H110.236V31.032ZM124.996 6.476V11.404H127.572V5.328H130.904V22.94H127.572V14.428H124.996V19.384H114.496V6.476H117.828V10.34H121.664V6.476H124.996ZM122.308 27.728H136.392V30.752H118.752V22.212H122.308V27.728ZM136 23.556H132.64V4.992H136V23.556ZM121.664 16.5V13.196H117.828V16.5H121.664ZM163.137 24.76V27.756H139.281V24.76H163.137ZM160.085 21.204H142.361V6.924H159.805V9.892H145.861V12.58H159.581V15.548H145.861V18.236H160.085V21.204Z" fill="white"/>
<path d="M9.53488 7.064V3.064C7.32574 3.064 5.53488 4.85486 5.53488 7.064H9.53488ZM13.0349 7.064H17.0349C17.0349 4.85486 15.244 3.064 13.0349 3.064V7.064ZM13.1189 14.792L9.15247 15.3094C9.16112 15.3757 9.17143 15.4417 9.1834 15.5075L13.1189 14.792ZM13.4269 15.968L9.65144 17.2894C9.67869 17.3672 9.70833 17.4442 9.74034 17.5202L13.4269 15.968ZM13.9589 17.032L10.4972 19.0361C10.513 19.0636 10.5292 19.0908 10.5457 19.1178L13.9589 17.032ZM14.7149 18.068L17.8384 15.5692C17.8174 15.543 17.7961 15.5171 17.7745 15.4915L14.7149 18.068ZM16.4229 20.084L13.4377 22.7465C13.463 22.7748 13.4887 22.8029 13.5148 22.8305L16.4229 20.084ZM18.3549 22.072L21.0753 25.0044C21.8721 24.2652 22.3338 23.2336 22.3542 22.147C22.3745 21.0603 21.9518 20.0121 21.1833 19.2436L18.3549 22.072ZM16.0309 24.228L13.1606 27.0139C14.6747 28.5739 17.1576 28.639 18.7513 27.1604L16.0309 24.228ZM12.9229 20.868L9.89424 23.4809L9.8982 23.4855L12.9229 20.868ZM11.4669 18.908L15.1534 17.3558C14.5289 15.8725 13.0762 14.908 11.4669 14.908V18.908ZM11.4389 18.908V14.908C9.75685 14.908 8.25452 15.9603 7.6797 17.541L11.4389 18.908ZM10.9069 19.804L7.65194 17.479C7.64456 17.4894 7.63723 17.4997 7.62995 17.5101L10.9069 19.804ZM9.98288 20.98L6.95558 18.3655C6.94023 18.3833 6.92503 18.4012 6.90999 18.4193L9.98288 20.98ZM9.31088 21.764L12.2351 24.4933C12.2643 24.462 12.293 24.4302 12.3212 24.398L9.31088 21.764ZM8.44288 22.688L5.53482 19.9415C5.50718 19.9708 5.47998 20.0005 5.45324 20.0305L8.44288 22.688ZM7.49088 23.724L4.58706 20.973L4.58282 20.9775L7.49088 23.724ZM6.53888 24.676L3.76171 27.5548C5.29762 29.0365 7.72626 29.0515 9.28033 27.5888L6.53888 24.676ZM4.15888 22.38L1.33045 19.5516C0.571496 20.3105 0.149397 21.3426 0.159036 22.4159C0.168676 23.4892 0.609245 24.5136 1.38171 25.2588L4.15888 22.38ZM6.03488 20.42L3.0927 17.7101L3.09269 17.7101L6.03488 20.42ZM7.82688 18.348L4.73105 15.815C4.72462 15.8229 4.71822 15.8308 4.71186 15.8387L7.82688 18.348ZM8.63888 17.172L5.2089 15.114C5.18313 15.157 5.15816 15.2004 5.13401 15.2443L8.63888 17.172ZM9.17088 16.052L5.39544 14.7306L5.39544 14.7306L9.17088 16.052ZM9.45088 14.848L13.4173 15.3654C13.4182 15.3583 13.4191 15.3512 13.42 15.3441L9.45088 14.848ZM21.9109 14.176H17.9109C17.9109 16.3851 19.7017 18.176 21.9109 18.176V14.176ZM24.2069 14.176V18.176C26.416 18.176 28.2069 16.3851 28.2069 14.176H24.2069ZM24.2069 4.992V0.992C21.9977 0.992 20.2069 2.78286 20.2069 4.992H24.2069ZM27.5669 4.992H31.5669C31.5669 2.78286 29.776 0.992 27.5669 0.992V4.992ZM27.5669 31.032V35.032C29.776 35.032 31.5669 33.2411 31.5669 31.032H27.5669ZM24.2069 31.032H20.2069C20.2069 33.2411 21.9977 35.032 24.2069 35.032V31.032ZM24.2069 17.228H28.2069C28.2069 15.0189 26.416 13.228 24.2069 13.228V17.228ZM21.9109 17.228V13.228C19.7017 13.228 17.9109 15.0189 17.9109 17.228H21.9109ZM21.9109 29.772V33.772C24.12 33.772 25.9109 31.9811 25.9109 29.772H21.9109ZM18.5509 29.772H14.5509C14.5509 31.9811 16.3417 33.772 18.5509 33.772V29.772ZM18.5509 5.524V1.524C16.3417 1.524 14.5509 3.31486 14.5509 5.524H18.5509ZM21.9109 5.524H25.9109C25.9109 3.31486 24.12 1.524 21.9109 1.524V5.524ZM9.53488 11.064H13.0349V3.064H9.53488V11.064ZM9.03488 7.064V13.336H17.0349V7.064H9.03488ZM9.03488 13.336C9.03488 14.0096 9.06938 14.6723 9.15247 15.3094L17.0853 14.2746C17.0564 14.053 17.0349 13.7451 17.0349 13.336H9.03488ZM9.1834 15.5075C9.29344 16.1128 9.44798 16.7081 9.65144 17.2894L17.2023 14.6466C17.1444 14.4812 17.0936 14.2926 17.0544 14.0765L9.1834 15.5075ZM9.74034 17.5202C9.95908 18.0398 10.2129 18.5451 10.4972 19.0361L17.4206 15.0279C17.2942 14.8096 17.1933 14.6056 17.1134 14.4158L9.74034 17.5202ZM10.5457 19.1178C10.8729 19.6531 11.2487 20.1618 11.6552 20.6445L17.7745 15.4915C17.5837 15.2649 17.4555 15.0829 17.372 14.9462L10.5457 19.1178ZM11.5914 20.5668C12.1631 21.2814 12.7791 22.008 13.4377 22.7465L19.4081 17.4215C18.8347 16.7787 18.312 16.1613 17.8384 15.5692L11.5914 20.5668ZM13.5148 22.8305C14.1756 23.5302 14.8462 24.2202 15.5265 24.9004L21.1833 19.2436C20.5569 18.6172 19.9395 17.9818 19.3309 17.3375L13.5148 22.8305ZM15.6344 19.1396L13.3104 21.2956L18.7513 27.1604L21.0753 25.0044L15.6344 19.1396ZM18.9012 21.4421C17.704 20.2086 16.7231 19.1467 15.9475 18.2505L9.8982 23.4855C10.8026 24.5306 11.8937 25.7087 13.1606 27.0139L18.9012 21.4421ZM15.9515 18.2551C15.5742 17.8178 15.3163 17.4974 15.1539 17.2787C15.0733 17.1703 15.0358 17.113 15.0268 17.0987C15.008 17.069 15.0735 17.1661 15.1534 17.3558L7.78033 20.4602C8.05346 21.1089 8.46098 21.6846 8.7319 22.0493C9.05476 22.4839 9.4502 22.9662 9.89425 23.4809L15.9515 18.2551ZM11.4669 14.908H11.4389V22.908H11.4669V14.908ZM7.6797 17.541C7.70366 17.4751 7.7258 17.4217 7.74315 17.3822C7.76063 17.3423 7.77547 17.3115 7.78592 17.2906C7.79645 17.2696 7.80416 17.2553 7.80795 17.2484C7.81181 17.2414 7.81287 17.2398 7.81046 17.2438C7.80513 17.2528 7.79017 17.2773 7.76251 17.3191C7.73516 17.3604 7.69882 17.4134 7.65194 17.479L14.1618 22.129C14.462 21.7088 14.9229 21.0317 15.1981 20.275L7.6797 17.541ZM7.62995 17.5101C7.45931 17.7539 7.23779 18.0388 6.95558 18.3655L13.0102 23.5945C13.4373 23.0999 13.8318 22.6007 14.1838 22.0979L7.62995 17.5101ZM6.90999 18.4193C6.7497 18.6116 6.54771 18.8475 6.30057 19.13L12.3212 24.398C12.5967 24.0831 12.8427 23.7964 13.0558 23.5407L6.90999 18.4193ZM6.38665 19.0347C6.13165 19.3079 5.84781 19.6101 5.53482 19.9415L11.3509 25.4345C11.6726 25.0939 11.9674 24.7801 12.2351 24.4933L6.38665 19.0347ZM5.45324 20.0305C5.18497 20.3323 4.89643 20.6465 4.58706 20.973L10.3947 26.475C10.7573 26.0922 11.1034 25.7157 11.4325 25.3455L5.45324 20.0305ZM4.58282 20.9775C4.31616 21.2599 4.05429 21.5214 3.79742 21.7632L9.28033 27.5888C9.65813 27.2332 10.0309 26.8601 10.3989 26.4705L4.58282 20.9775ZM9.31604 21.7972L6.93604 19.5012L1.38171 25.2588L3.76171 27.5548L9.31604 21.7972ZM6.9873 25.2084C7.62831 24.5674 8.29169 23.874 8.97706 23.1299L3.09269 17.7101C2.47139 18.3847 1.8841 18.9979 1.33045 19.5516L6.9873 25.2084ZM8.97705 23.1299C9.68337 22.3631 10.3392 21.6055 10.9419 20.8573L4.71186 15.8387C4.23189 16.4345 3.69305 17.0583 3.0927 17.7101L8.97705 23.1299ZM10.9227 20.881C11.3774 20.3252 11.7964 19.7313 12.1437 19.0997L5.13401 15.2443C5.07072 15.3594 4.94836 15.5494 4.73105 15.815L10.9227 20.881ZM12.0688 19.23C12.4189 18.6466 12.7173 18.0276 12.9463 17.3734L5.39544 14.7306C5.36307 14.8231 5.30686 14.9508 5.2089 15.114L12.0688 19.23ZM12.9463 17.3734C13.1763 16.7162 13.3289 16.0431 13.4173 15.3654L5.48447 14.3306C5.46087 14.5116 5.42674 14.6412 5.39544 14.7306L12.9463 17.3734ZM13.42 15.3441C13.5007 14.698 13.5349 14.0243 13.5349 13.336H5.53488C5.53488 13.7677 5.513 14.102 5.48176 14.3519L13.42 15.3441ZM13.5349 13.336V7.064H5.53488V13.336H13.5349ZM21.9109 18.176H24.2069V10.176H21.9109V18.176ZM28.2069 14.176V4.992H20.2069V14.176H28.2069ZM24.2069 8.992H27.5669V0.992H24.2069V8.992ZM23.5669 4.992V31.032H31.5669V4.992H23.5669ZM27.5669 27.032H24.2069V35.032H27.5669V27.032ZM28.2069 31.032V17.228H20.2069V31.032H28.2069ZM24.2069 13.228H21.9109V21.228H24.2069V13.228ZM17.9109 17.228V29.772H25.9109V17.228H17.9109ZM21.9109 25.772H18.5509V33.772H21.9109V25.772ZM22.5509 29.772V5.524H14.5509V29.772H22.5509ZM18.5509 9.524H21.9109V1.524H18.5509V9.524ZM17.9109 5.524V14.176H25.9109V5.524H17.9109ZM39.8913 7.456H35.8913C35.8913 9.66514 37.6821 11.456 39.8913 11.456V7.456ZM45.5193 7.456H49.5193C49.5193 5.24686 47.7284 3.456 45.5193 3.456V7.456ZM45.5193 10.424V14.424C47.7284 14.424 49.5193 12.6331 49.5193 10.424H45.5193ZM30.6233 10.424H26.6233C26.6233 12.6331 28.4141 14.424 30.6233 14.424V10.424ZM30.6233 7.456V3.456C28.4141 3.456 26.6233 5.24686 26.6233 7.456H30.6233ZM36.3633 7.456V11.456C38.5724 11.456 40.3633 9.66514 40.3633 7.456H36.3633ZM36.3633 4.656V0.655999C34.1541 0.655999 32.3633 2.44686 32.3633 4.656H36.3633ZM39.8913 4.656H43.8913C43.8913 2.44686 42.1004 0.655999 39.8913 0.655999V4.656ZM51.0073 11.516H47.0073C47.0073 13.7251 48.7981 15.516 51.0073 15.516V11.516ZM54.4233 11.516H58.4233C58.4233 9.30686 56.6324 7.516 54.4233 7.516V11.516ZM54.4233 14.596V18.596C56.6324 18.596 58.4233 16.8051 58.4233 14.596H54.4233ZM51.0073 14.596V10.596C48.7981 10.596 47.0073 12.3869 47.0073 14.596H51.0073ZM51.0073 21.288V25.288C53.2164 25.288 55.0073 23.4971 55.0073 21.288H51.0073ZM47.4793 21.288H43.4793C43.4793 23.4971 45.2701 25.288 47.4793 25.288V21.288ZM47.4793 4.992V0.992C45.2701 0.992 43.4793 2.78286 43.4793 4.992H47.4793ZM51.0073 4.992H55.0073C55.0073 2.78286 53.2164 0.992 51.0073 0.992V4.992ZM34.4033 22.464V18.464C32.1941 18.464 30.4033 20.2549 30.4033 22.464H34.4033ZM51.0073 22.464H55.0073C55.0073 20.2549 53.2164 18.464 51.0073 18.464V22.464ZM51.0073 31.368V35.368C53.2164 35.368 55.0073 33.5771 55.0073 31.368H51.0073ZM47.4793 31.368H43.4793C43.4793 33.5771 45.2701 35.368 47.4793 35.368V31.368ZM47.4793 25.432H51.4793C51.4793 23.2229 49.6884 21.432 47.4793 21.432V25.432ZM34.4033 25.432H30.4033C30.4033 27.6411 32.1941 29.432 34.4033 29.432V25.432ZM35.4953 20.7L34.2863 24.5129C34.3146 24.5219 34.3431 24.5306 34.3717 24.5389L35.4953 20.7ZM33.5633 19.748L31.092 22.8933C31.1155 22.9118 31.1393 22.93 31.1633 22.948L33.5633 19.748ZM32.3593 18.32L28.8064 20.1577L28.8064 20.1577L32.3593 18.32ZM33.5633 12.552L35.9632 15.752C35.9872 15.734 36.011 15.7158 36.0345 15.6973L33.5633 12.552ZM35.4953 11.6L36.6188 15.439C36.6474 15.4306 36.6759 15.4219 36.7042 15.4129L35.4953 11.6ZM40.7313 11.6L39.5223 15.4129C39.5588 15.4245 39.5955 15.4356 39.6324 15.4461L40.7313 11.6ZM42.6913 12.552L40.22 15.6973C40.2435 15.7158 40.2673 15.734 40.2913 15.752L42.6913 12.552ZM43.8953 18.32L47.4481 20.1577L47.4481 20.1577L43.8953 18.32ZM42.6913 19.748L45.0913 22.948C45.1152 22.93 45.139 22.9118 45.1625 22.8933L42.6913 19.748ZM40.7313 20.7L41.8548 24.5389C41.8746 24.5332 41.8943 24.5272 41.914 24.5211L40.7313 20.7ZM35.9993 14.624L38.5126 17.7358C38.5363 17.7166 38.5598 17.6972 38.583 17.6775L35.9993 14.624ZM35.9993 17.676L33.4155 20.7295C33.4387 20.7492 33.4622 20.7686 33.4859 20.7878L35.9993 17.676ZM40.2553 17.676L42.7686 20.7878C42.7923 20.7686 42.8158 20.7492 42.839 20.7295L40.2553 17.676ZM40.2553 14.624L37.6715 17.6775C37.6947 17.6972 37.7182 17.7166 37.7419 17.7358L40.2553 14.624ZM39.8913 11.456H45.5193V3.456H39.8913V11.456ZM41.5193 7.456V10.424H49.5193V7.456H41.5193ZM45.5193 6.424H30.6233V14.424H45.5193V6.424ZM34.6233 10.424V7.456H26.6233V10.424H34.6233ZM30.6233 11.456H36.3633V3.456H30.6233V11.456ZM40.3633 7.456V4.656H32.3633V7.456H40.3633ZM36.3633 8.656H39.8913V0.655999H36.3633V8.656ZM35.8913 4.656V7.456H43.8913V4.656H35.8913ZM51.0073 15.516H54.4233V7.516H51.0073V15.516ZM50.4233 11.516V14.596H58.4233V11.516H50.4233ZM54.4233 10.596H51.0073V18.596H54.4233V10.596ZM47.0073 14.596V21.288H55.0073V14.596H47.0073ZM51.0073 17.288H47.4793V25.288H51.0073V17.288ZM51.4793 21.288V4.992H43.4793V21.288H51.4793ZM47.4793 8.992H51.0073V0.992H47.4793V8.992ZM47.0073 4.992V11.516H55.0073V4.992H47.0073ZM34.4033 26.464H51.0073V18.464H34.4033V26.464ZM47.0073 22.464V31.368H55.0073V22.464H47.0073ZM51.0073 27.368H47.4793V35.368H51.0073V27.368ZM51.4793 31.368V25.432H43.4793V31.368H51.4793ZM47.4793 21.432H34.4033V29.432H47.4793V21.432ZM38.4033 25.432V22.464H30.4033V25.432H38.4033ZM38.1273 17.036C37.4308 17.036 36.9439 16.9562 36.6188 16.8611L34.3717 24.5389C35.5773 24.8918 36.845 25.036 38.1273 25.036V17.036ZM36.7042 16.8871C36.273 16.7503 36.0546 16.6165 35.9633 16.548L31.1633 22.948C32.1172 23.6635 33.1868 24.1643 34.2863 24.5129L36.7042 16.8871ZM36.0345 16.6027C35.9733 16.5546 35.9418 16.5206 35.9283 16.5046C35.9155 16.4894 35.9124 16.4828 35.9121 16.4823L28.8064 20.1577C29.3723 21.2518 30.1607 22.1615 31.092 22.8933L36.0345 16.6027ZM35.9121 16.4823C35.9158 16.4894 35.925 16.51 35.9321 16.5394C35.9391 16.5686 35.9393 16.5861 35.9393 16.584H27.9393C27.9393 17.8324 28.2293 19.042 28.8064 20.1577L35.9121 16.4823ZM35.9393 16.584V15.688H27.9393V16.584H35.9393ZM35.9393 15.688C35.9393 15.6859 35.9391 15.7034 35.9321 15.7326C35.925 15.762 35.9158 15.7826 35.9121 15.7897L28.8064 12.1143C28.2293 13.23 27.9393 14.4396 27.9393 15.688H35.9393ZM35.9121 15.7897C35.9105 15.7927 35.9084 15.7964 35.906 15.8C35.9036 15.8035 35.9022 15.805 35.903 15.8042C35.9036 15.8034 35.9195 15.7848 35.9632 15.752L31.1633 9.352C30.194 10.0789 29.3828 10.9999 28.8064 12.1143L35.9121 15.7897ZM36.0345 15.6973C36.0849 15.6577 36.2474 15.5477 36.6188 15.439L34.3717 7.76105C33.2124 8.10033 32.087 8.62494 31.092 9.40673L36.0345 15.6973ZM36.7042 15.4129C37 15.3191 37.4567 15.236 38.1273 15.236V7.236C36.8191 7.236 35.5211 7.39554 34.2863 7.78708L36.7042 15.4129ZM38.1273 15.236C38.7704 15.236 39.2197 15.317 39.5223 15.4129L41.9402 7.78708C40.7121 7.39768 39.4254 7.236 38.1273 7.236V15.236ZM39.6324 15.4461C40.0275 15.559 40.1861 15.6706 40.22 15.6973L45.1625 9.40673C44.1511 8.61203 43.003 8.089 41.8301 7.7539L39.6324 15.4461ZM40.2913 15.752C40.335 15.7848 40.3509 15.8034 40.3515 15.8042C40.3523 15.805 40.3509 15.8035 40.3485 15.8C40.3461 15.7964 40.344 15.7927 40.3424 15.7897L47.4481 12.1143C46.8717 10.9999 46.0605 10.0789 45.0913 9.352L40.2913 15.752ZM40.3424 15.7897C40.3387 15.7826 40.3295 15.762 40.3224 15.7326C40.3154 15.7034 40.3152 15.6859 40.3152 15.688H48.3152C48.3152 14.4396 48.0252 13.23 47.4481 12.1143L40.3424 15.7897ZM40.3152 15.688V16.584H48.3152V15.688H40.3152ZM40.3152 16.584C40.3152 16.5861 40.3154 16.5686 40.3224 16.5394C40.3295 16.51 40.3387 16.4894 40.3424 16.4823L47.4481 20.1577C48.0252 19.042 48.3152 17.8324 48.3152 16.584H40.3152ZM40.3424 16.4823C40.3421 16.4828 40.339 16.4894 40.3262 16.5046C40.3127 16.5206 40.2812 16.5546 40.22 16.6027L45.1625 22.8933C46.0938 22.1615 46.8822 21.2518 47.4481 20.1577L40.3424 16.4823ZM40.2913 16.548C40.2161 16.6044 40.0017 16.7386 39.5485 16.8789L41.914 24.5211C43.0288 24.1761 44.1211 23.6756 45.0913 22.948L40.2913 16.548ZM39.6077 16.8611C39.2763 16.958 38.797 17.036 38.1273 17.036V25.036C39.3988 25.036 40.6555 24.89 41.8548 24.5389L39.6077 16.8611ZM38.1273 10.008C36.6787 10.008 34.8951 10.3185 33.4155 11.5705L38.583 17.6775C38.3322 17.8898 38.1067 17.9755 38.0075 18.0043C37.9201 18.0295 37.9427 18.008 38.1273 18.008V10.008ZM33.4859 11.5122C32.5018 12.3071 31.2713 13.7464 31.2713 15.856H39.2713C39.2713 17.1069 38.526 17.7249 38.5126 17.7358L33.4859 11.5122ZM31.2713 15.856V16.416H39.2713V15.856H31.2713ZM31.2713 16.416C31.2713 18.4974 32.4726 19.9317 33.4155 20.7295L38.583 14.6225C38.5888 14.6274 38.7485 14.7608 38.9167 15.0519C39.1004 15.3697 39.2713 15.8406 39.2713 16.416H31.2713ZM33.4859 20.7878C34.9605 21.9788 36.7149 22.264 38.1273 22.264V14.264C37.9292 14.264 37.89 14.242 37.9606 14.2615C38.0409 14.2837 38.2591 14.3595 38.5126 14.5642L33.4859 20.7878ZM38.1273 22.264C39.5396 22.264 41.294 21.9788 42.7686 20.7878L37.7419 14.5642C37.9954 14.3595 38.2136 14.2837 38.2939 14.2615C38.3645 14.242 38.3253 14.264 38.1273 14.264V22.264ZM42.839 20.7295C43.7819 19.9317 44.9833 18.4974 44.9833 16.416H36.9833C36.9833 15.8406 37.1541 15.3697 37.3378 15.0519C37.506 14.7608 37.6657 14.6274 37.6715 14.6225L42.839 20.7295ZM44.9833 16.416V15.856H36.9833V16.416H44.9833ZM44.9833 15.856C44.9833 13.7464 43.7527 12.3071 42.7686 11.5122L37.7419 17.7358C37.7285 17.7249 36.9833 17.1069 36.9833 15.856H44.9833ZM42.839 11.5705C41.3594 10.3185 39.5758 10.008 38.1273 10.008V18.008C38.3118 18.008 38.3344 18.0295 38.247 18.0043C38.1478 17.9755 37.9223 17.8898 37.6715 17.6775L42.839 11.5705ZM77.7516 31.032V35.032C79.9608 35.032 81.7516 33.2411 81.7516 31.032H77.7516ZM74.1956 31.032H70.1956C70.1956 33.2411 71.9865 35.032 74.1956 35.032V31.032ZM74.1956 4.992V0.992C71.9865 0.992 70.1956 2.78286 70.1956 4.992H74.1956ZM77.7516 4.992H81.7516C81.7516 2.78286 79.9608 0.992 77.7516 0.992V4.992ZM56.9756 22.884L54.9176 19.454C53.9783 20.0176 53.3112 20.9419 53.0721 22.0109C52.833 23.08 53.0428 24.2004 53.6525 25.1105L56.9756 22.884ZM63.0236 18.852L65.5757 21.9321L65.5844 21.9249L63.0236 18.852ZM64.5916 17.284L61.4342 14.8282C61.4298 14.8339 61.4255 14.8395 61.4211 14.8452L64.5916 17.284ZM65.4596 15.772L61.7553 14.2628C61.7391 14.3025 61.7235 14.3425 61.7086 14.3827L65.4596 15.772ZM65.8516 14.176L69.8318 14.574L69.8318 14.574L65.8516 14.176ZM65.9356 10.368H69.9356C69.9356 8.15886 68.1448 6.368 65.9356 6.368V10.368ZM57.4516 10.368H53.4516C53.4516 12.5771 55.2425 14.368 57.4516 14.368V10.368ZM57.4516 7.316V3.316C55.2425 3.316 53.4516 5.10686 53.4516 7.316H57.4516ZM69.4916 7.316H73.4916C73.4916 5.10686 71.7008 3.316 69.4916 3.316V7.316ZM69.3516 15.016L65.381 14.5318L65.381 14.5318L69.3516 15.016ZM68.7916 17.172L65.0993 15.6335C65.092 15.6511 65.0848 15.6688 65.0777 15.6864L68.7916 17.172ZM67.6436 19.076L64.5478 16.543C64.5322 16.5621 64.5169 16.5812 64.5017 16.6005L67.6436 19.076ZM65.7396 21.008L68.3004 24.0809C68.3146 24.069 68.3287 24.0571 68.3428 24.045L65.7396 21.008ZM62.8556 23.136L65.0744 26.4642C65.0786 26.4614 65.0828 26.4586 65.087 26.4558L62.8556 23.136ZM58.8516 25.684L55.5285 27.9105C56.7241 29.6949 59.1156 30.2166 60.9457 29.092L58.8516 25.684ZM77.7516 27.032H74.1956V35.032H77.7516V27.032ZM78.1956 31.032V4.992H70.1956V31.032H78.1956ZM74.1956 8.992H77.7516V0.992H74.1956V8.992ZM73.7516 4.992V31.032H81.7516V4.992H73.7516ZM59.0336 26.314C60.4661 25.4545 61.7124 24.6762 62.7639 23.9819L58.3554 17.3061C57.4282 17.9184 56.2852 18.6335 54.9176 19.454L59.0336 26.314ZM62.7639 23.9819C63.8304 23.2776 64.7773 22.5936 65.5757 21.9321L60.4716 15.7719C59.9633 16.193 59.2676 16.7038 58.3554 17.3061L62.7639 23.9819ZM65.5844 21.9249C66.3947 21.2496 67.1512 20.517 67.7621 19.7228L61.4211 14.8452C61.2853 15.0217 60.9965 15.3344 60.4629 15.7791L65.5844 21.9249ZM67.749 19.7398C68.3465 18.9716 68.858 18.1133 69.2106 17.1613L61.7086 14.3827C61.6879 14.4387 61.6208 14.5884 61.4342 14.8282L67.749 19.7398ZM69.164 17.2812C69.519 16.4099 69.7389 15.5026 69.8318 14.574L61.8715 13.778C61.8523 13.9694 61.811 14.1261 61.7553 14.2628L69.164 17.2812ZM69.8318 14.574C69.9036 13.8561 69.9356 13.095 69.9356 12.3H61.9356C61.9356 12.8863 61.9117 13.3759 61.8715 13.778L69.8318 14.574ZM69.9356 12.3V10.368H61.9356V12.3H69.9356ZM65.9356 6.368H57.4516V14.368H65.9356V6.368ZM61.4516 10.368V7.316H53.4516V10.368H61.4516ZM57.4516 11.316H69.4916V3.316H57.4516V11.316ZM65.4916 7.316V12.468H73.4916V7.316H65.4916ZM65.4916 12.468C65.4916 13.2719 65.4512 13.9563 65.381 14.5318L73.3222 15.5002C73.4387 14.545 73.4916 13.5308 73.4916 12.468H65.4916ZM65.381 14.5318C65.3293 14.956 65.2308 15.3179 65.0993 15.6335L72.4839 18.7105C72.9124 17.6821 73.1873 16.6066 73.3222 15.5002L65.381 14.5318ZM65.0777 15.6864C64.9862 15.9152 64.8269 16.2019 64.5478 16.543L70.7395 21.6089C71.4683 20.7181 72.0744 19.7354 72.5055 18.6576L65.0777 15.6864ZM64.5017 16.6005C64.2185 16.9599 63.7811 17.4184 63.1365 17.971L68.3428 24.045C69.2661 23.2536 70.0981 22.4241 70.7856 21.5515L64.5017 16.6005ZM63.1789 17.9351C62.5291 18.4766 61.685 19.1033 60.6243 19.8162L65.087 26.4558C66.3036 25.6381 67.3821 24.8461 68.3004 24.0809L63.1789 17.9351ZM60.6368 19.8078C59.5692 20.5195 58.2783 21.3415 56.7575 22.276L60.9457 29.092C62.5236 28.1225 63.902 27.2458 65.0744 26.4642L60.6368 19.8078ZM62.1747 23.4575L60.2987 20.6575L53.6525 25.1105L55.5285 27.9105L62.1747 23.4575ZM93.268 24.34L91.6434 27.9952C91.6533 27.9996 91.6632 28.004 91.6731 28.0083L93.268 24.34ZM91.196 22.772L88.081 25.2813L88.081 25.2813L91.196 22.772ZM89.992 20.392L86.1258 21.4177C86.1322 21.4422 86.139 21.4666 86.1459 21.4909L89.992 20.392ZM89.992 11.264L86.1401 10.1855C86.1352 10.203 86.1304 10.2206 86.1258 10.2383L89.992 11.264ZM91.196 8.856L94.311 11.3653L94.311 11.3653L91.196 8.856ZM93.268 7.288L91.6731 3.61972C91.6632 3.62402 91.6533 3.62837 91.6434 3.63275L93.268 7.288ZM99.4 7.288L97.7754 10.9432C97.7853 10.9476 97.7952 10.952 97.8051 10.9563L99.4 7.288ZM101.5 8.856L98.385 11.3653L98.385 11.3653L101.5 8.856ZM102.676 11.264L98.8047 12.2705C98.8127 12.3014 98.8211 12.3322 98.8299 12.3629L102.676 11.264ZM102.676 20.392L98.8299 19.2931C98.823 19.3174 98.8162 19.3418 98.8098 19.3663L102.676 20.392ZM101.5 22.772L98.385 20.2627L98.385 20.2627L101.5 22.772ZM99.4 24.34L97.8051 20.6717C97.7952 20.676 97.7853 20.6804 97.7754 20.6848L99.4 24.34ZM93.772 11.068L90.3974 8.9205C90.3857 8.93888 90.3741 8.95736 90.3627 8.97593L93.772 11.068ZM93.772 20.56L90.3627 22.6521C90.3741 22.6706 90.3857 22.6891 90.3974 22.7075L93.772 20.56ZM98.896 20.56L95.5214 18.4125C95.5097 18.4309 95.4981 18.4494 95.4867 18.4679L98.896 20.56ZM98.896 11.068L95.4867 13.1601C95.4981 13.1786 95.5097 13.1971 95.5214 13.2155L98.896 11.068ZM110.236 31.032V35.032C112.445 35.032 114.236 33.2411 114.236 31.032H110.236ZM106.68 31.032H102.68C102.68 33.2411 104.471 35.032 106.68 35.032V31.032ZM106.68 4.992V0.992C104.471 0.992 102.68 2.78286 102.68 4.992H106.68ZM110.236 4.992H114.236C114.236 2.78286 112.445 0.992 110.236 0.992V4.992ZM96.348 20.9C95.5565 20.9 95.1 20.7748 94.8629 20.6717L91.6731 28.0083C93.1533 28.6519 94.7502 28.9 96.348 28.9V20.9ZM94.8926 20.6848C94.5945 20.5523 94.4277 20.4076 94.311 20.2627L88.081 25.2813C89.0469 26.4804 90.2615 27.3811 91.6434 27.9952L94.8926 20.6848ZM94.311 20.2627C94.1381 20.048 93.9676 19.7464 93.8381 19.2931L86.1459 21.4909C86.5391 22.867 87.1712 24.152 88.081 25.2813L94.311 20.2627ZM93.8582 19.3663C93.7175 18.8357 93.628 18.1782 93.628 17.368H85.628C85.628 18.7605 85.7812 20.119 86.1258 21.4177L93.8582 19.3663ZM93.628 17.368V14.26H85.628V17.368H93.628ZM93.628 14.26C93.628 13.4749 93.7161 12.8257 93.8582 12.2897L86.1258 10.2383C85.7826 11.5316 85.628 12.8798 85.628 14.26H93.628ZM93.8439 12.3425C93.9771 11.8668 94.1492 11.5662 94.311 11.3653L88.081 6.34668C87.1601 7.48983 86.5296 8.79451 86.1401 10.1855L93.8439 12.3425ZM94.311 11.3653C94.4277 11.2204 94.5945 11.0757 94.8926 10.9432L91.6434 3.63275C90.2615 4.24693 89.0469 5.14759 88.081 6.34668L94.311 11.3653ZM94.8629 10.9563C95.1 10.8532 95.5565 10.728 96.348 10.728V2.728C94.7502 2.728 93.1533 2.97615 91.6731 3.61972L94.8629 10.9563ZM96.348 10.728C97.1435 10.728 97.5756 10.8544 97.7754 10.9432L101.025 3.63275C99.5444 2.9749 97.9418 2.728 96.348 2.728V10.728ZM97.8051 10.9563C98.1224 11.0943 98.2831 11.2389 98.385 11.3653L104.615 6.34668C103.634 5.12913 102.395 4.22842 100.995 3.61972L97.8051 10.9563ZM98.385 11.3653C98.5308 11.5463 98.6879 11.8213 98.8047 12.2705L106.547 10.2575C106.179 8.84005 105.552 7.50965 104.615 6.34668L98.385 11.3653ZM98.8299 12.3629C98.9762 12.8748 99.068 13.4987 99.068 14.26H107.068C107.068 12.856 106.898 11.4825 106.522 10.1651L98.8299 12.3629ZM99.068 14.26V17.368H107.068V14.26H99.068ZM99.068 17.368C99.068 18.1548 98.9745 18.7869 98.8299 19.2931L106.522 21.4909C106.9 20.1678 107.068 18.7838 107.068 17.368H99.068ZM98.8098 19.3663C98.6968 19.792 98.542 20.0677 98.385 20.2627L104.615 25.2813C105.541 24.1323 106.17 22.8213 106.542 21.4177L98.8098 19.3663ZM98.385 20.2627C98.2831 20.3891 98.1224 20.5337 97.8051 20.6717L100.995 28.0083C102.395 27.3996 103.634 26.4989 104.615 25.2813L98.385 20.2627ZM97.7754 20.6848C97.5756 20.7736 97.1435 20.9 96.348 20.9V28.9C97.9418 28.9 99.5444 28.6531 101.025 27.9952L97.7754 20.6848ZM96.348 5.836C94.1432 5.836 91.8275 6.67307 90.3974 8.9205L97.1466 13.2155C97.0899 13.3047 97.0056 13.4106 96.8895 13.5142C96.7729 13.6182 96.6494 13.6973 96.5338 13.7525C96.3049 13.862 96.1997 13.836 96.348 13.836V5.836ZM90.3627 8.97593C89.2973 10.7121 89.016 12.7827 89.016 14.68H97.016C97.016 14.0873 97.0641 13.6745 97.1202 13.4065C97.1768 13.136 97.2259 13.0873 97.1813 13.1601L90.3627 8.97593ZM89.016 14.68V16.948H97.016V14.68H89.016ZM89.016 16.948C89.016 18.8453 89.2973 20.9159 90.3627 22.6521L97.1813 18.4679C97.2259 18.5407 97.1768 18.492 97.1202 18.2215C97.0641 17.9535 97.016 17.5407 97.016 16.948H89.016ZM90.3974 22.7075C91.8275 24.9549 94.1432 25.792 96.348 25.792V17.792C96.1997 17.792 96.3049 17.766 96.5338 17.8755C96.6494 17.9307 96.7729 18.0098 96.8895 18.1138C97.0056 18.2174 97.0899 18.3233 97.1466 18.4125L90.3974 22.7075ZM96.348 25.792C98.5485 25.792 100.893 24.9537 102.305 22.6521L95.4867 18.4679C95.5472 18.3694 95.6369 18.2537 95.7605 18.1411C95.8847 18.0281 96.0165 17.9425 96.1398 17.8829C96.3828 17.7654 96.4982 17.792 96.348 17.792V25.792ZM102.271 22.7075C103.384 20.9573 103.68 18.8627 103.68 16.948H95.68C95.68 17.533 95.6308 17.9356 95.575 18.1925C95.519 18.4505 95.4721 18.4899 95.5214 18.4125L102.271 22.7075ZM103.68 16.948V14.68H95.68V16.948H103.68ZM103.68 14.68C103.68 12.7653 103.384 10.6707 102.271 8.9205L95.5214 13.2155C95.4721 13.1381 95.519 13.1775 95.575 13.4355C95.6308 13.6924 95.68 14.095 95.68 14.68H103.68ZM102.305 8.97594C100.893 6.67432 98.5485 5.836 96.348 5.836V13.836C96.4982 13.836 96.3828 13.8626 96.1398 13.7451C96.0165 13.6855 95.8847 13.5999 95.7605 13.4869C95.6369 13.3743 95.5472 13.2586 95.4867 13.1601L102.305 8.97594ZM110.236 27.032H106.68V35.032H110.236V27.032ZM110.68 31.032V4.992H102.68V31.032H110.68ZM106.68 8.992H110.236V0.992H106.68V8.992ZM106.236 4.992V31.032H114.236V4.992H106.236ZM124.996 6.476H128.996C128.996 4.26686 127.206 2.476 124.996 2.476V6.476ZM124.996 11.404H120.996C120.996 13.6131 122.787 15.404 124.996 15.404V11.404ZM127.572 11.404V15.404C129.782 15.404 131.572 13.6131 131.572 11.404H127.572ZM127.572 5.328V1.328C125.363 1.328 123.572 3.11886 123.572 5.328H127.572ZM130.904 5.328H134.904C134.904 3.11886 133.114 1.328 130.904 1.328V5.328ZM130.904 22.94V26.94C133.114 26.94 134.904 25.1491 134.904 22.94H130.904ZM127.572 22.94H123.572C123.572 25.1491 125.363 26.94 127.572 26.94V22.94ZM127.572 14.428H131.572C131.572 12.2189 129.782 10.428 127.572 10.428V14.428ZM124.996 14.428V10.428C122.787 10.428 120.996 12.2189 120.996 14.428H124.996ZM124.996 19.384V23.384C127.206 23.384 128.996 21.5931 128.996 19.384H124.996ZM114.496 19.384H110.496C110.496 21.5931 112.287 23.384 114.496 23.384V19.384ZM114.496 6.476V2.476C112.287 2.476 110.496 4.26686 110.496 6.476H114.496ZM117.828 6.476H121.828C121.828 4.26686 120.038 2.476 117.828 2.476V6.476ZM117.828 10.34H113.828C113.828 12.5491 115.619 14.34 117.828 14.34V10.34ZM121.664 10.34V14.34C123.874 14.34 125.664 12.5491 125.664 10.34H121.664ZM121.664 6.476V2.476C119.455 2.476 117.664 4.26686 117.664 6.476H121.664ZM122.308 27.728H118.308C118.308 29.9371 120.099 31.728 122.308 31.728V27.728ZM136.392 27.728H140.392C140.392 25.5189 138.602 23.728 136.392 23.728V27.728ZM136.392 30.752V34.752C138.602 34.752 140.392 32.9611 140.392 30.752H136.392ZM118.752 30.752H114.752C114.752 32.9611 116.543 34.752 118.752 34.752V30.752ZM118.752 22.212V18.212C116.543 18.212 114.752 20.0029 114.752 22.212H118.752ZM122.308 22.212H126.308C126.308 20.0029 124.518 18.212 122.308 18.212V22.212ZM136 23.556V27.556C138.21 27.556 140 25.7651 140 23.556H136ZM132.64 23.556H128.64C128.64 25.7651 130.431 27.556 132.64 27.556V23.556ZM132.64 4.992V0.992C130.431 0.992 128.64 2.78286 128.64 4.992H132.64ZM136 4.992H140C140 2.78286 138.21 0.992 136 0.992V4.992ZM121.664 16.5V20.5C123.874 20.5 125.664 18.7091 125.664 16.5H121.664ZM121.664 13.196H125.664C125.664 10.9869 123.874 9.196 121.664 9.196V13.196ZM117.828 13.196V9.196C115.619 9.196 113.828 10.9869 113.828 13.196H117.828ZM117.828 16.5H113.828C113.828 18.7091 115.619 20.5 117.828 20.5V16.5ZM120.996 6.476V11.404H128.996V6.476H120.996ZM124.996 15.404H127.572V7.404H124.996V15.404ZM131.572 11.404V5.328H123.572V11.404H131.572ZM127.572 9.328H130.904V1.328H127.572V9.328ZM126.904 5.328V22.94H134.904V5.328H126.904ZM130.904 18.94H127.572V26.94H130.904V18.94ZM131.572 22.94V14.428H123.572V22.94H131.572ZM127.572 10.428H124.996V18.428H127.572V10.428ZM120.996 14.428V19.384H128.996V14.428H120.996ZM124.996 15.384H114.496V23.384H124.996V15.384ZM118.496 19.384V6.476H110.496V19.384H118.496ZM114.496 10.476H117.828V2.476H114.496V10.476ZM113.828 6.476V10.34H121.828V6.476H113.828ZM117.828 14.34H121.664V6.34H117.828V14.34ZM125.664 10.34V6.476H117.664V10.34H125.664ZM121.664 10.476H124.996V2.476H121.664V10.476ZM122.308 31.728H136.392V23.728H122.308V31.728ZM132.392 27.728V30.752H140.392V27.728H132.392ZM136.392 26.752H118.752V34.752H136.392V26.752ZM122.752 30.752V22.212H114.752V30.752H122.752ZM118.752 26.212H122.308V18.212H118.752V26.212ZM118.308 22.212V27.728H126.308V22.212H118.308ZM136 19.556H132.64V27.556H136V19.556ZM136.64 23.556V4.992H128.64V23.556H136.64ZM132.64 8.992H136V0.992H132.64V8.992ZM132 4.992V23.556H140V4.992H132ZM125.664 16.5V13.196H117.664V16.5H125.664ZM121.664 9.196H117.828V17.196H121.664V9.196ZM113.828 13.196V16.5H121.828V13.196H113.828ZM117.828 20.5H121.664V12.5H117.828V20.5ZM163.137 24.76H167.137C167.137 22.5509 165.346 20.76 163.137 20.76V24.76ZM163.137 27.756V31.756C165.346 31.756 167.137 29.9651 167.137 27.756H163.137ZM139.281 27.756H135.281C135.281 29.9651 137.072 31.756 139.281 31.756V27.756ZM139.281 24.76V20.76C137.072 20.76 135.281 22.5509 135.281 24.76H139.281ZM160.085 21.204V25.204C162.294 25.204 164.085 23.4131 164.085 21.204H160.085ZM142.361 21.204H138.361C138.361 23.4131 140.152 25.204 142.361 25.204V21.204ZM142.361 6.924V2.924C140.152 2.924 138.361 4.71486 138.361 6.924H142.361ZM159.805 6.924H163.805C163.805 4.71486 162.014 2.924 159.805 2.924V6.924ZM159.805 9.892V13.892C162.014 13.892 163.805 12.1011 163.805 9.892H159.805ZM145.861 9.892V5.892C143.652 5.892 141.861 7.68286 141.861 9.892H145.861ZM145.861 12.58H141.861C141.861 14.7891 143.652 16.58 145.861 16.58V12.58ZM159.581 12.58H163.581C163.581 10.3709 161.79 8.58 159.581 8.58V12.58ZM159.581 15.548V19.548C161.79 19.548 163.581 17.7571 163.581 15.548H159.581ZM145.861 15.548V11.548C143.652 11.548 141.861 13.3389 141.861 15.548H145.861ZM145.861 18.236H141.861C141.861 20.4451 143.652 22.236 145.861 22.236V18.236ZM160.085 18.236H164.085C164.085 16.0269 162.294 14.236 160.085 14.236V18.236ZM159.137 24.76V27.756H167.137V24.76H159.137ZM163.137 23.756H139.281V31.756H163.137V23.756ZM143.281 27.756V24.76H135.281V27.756H143.281ZM139.281 28.76H163.137V20.76H139.281V28.76ZM160.085 17.204H142.361V25.204H160.085V17.204ZM146.361 21.204V6.924H138.361V21.204H146.361ZM142.361 10.924H159.805V2.924H142.361V10.924ZM155.805 6.924V9.892H163.805V6.924H155.805ZM159.805 5.892H145.861V13.892H159.805V5.892ZM141.861 9.892V12.58H149.861V9.892H141.861ZM145.861 16.58H159.581V8.58H145.861V16.58ZM155.581 12.58V15.548H163.581V12.58H155.581ZM159.581 11.548H145.861V19.548H159.581V11.548ZM141.861 15.548V18.236H149.861V15.548H141.861ZM145.861 22.236H160.085V14.236H145.861V22.236ZM156.085 18.236V21.204H164.085V18.236H156.085Z" fill="#6E3678" mask="url(#path-1-outside-1_148_1376)"/>
</svg>
