<svg width="27" height="15" viewBox="0 0 27 15" fill="none" xmlns="http://www.w3.org/2000/svg">
<path d="M26.4143 7.5C26.4143 9.12705 25.1451 10.7419 22.774 11.9846C20.4307 13.2129 17.1528 13.9902 13.5 13.9902C9.84723 13.9902 6.56933 13.2129 4.22595 11.9846C1.85493 10.7419 0.585683 9.12705 0.585683 7.5C0.585683 5.87295 1.85493 4.2581 4.22595 3.01536C6.56933 1.78711 9.84723 1.00982 13.5 1.00982C17.1528 1.00982 20.4307 1.78711 22.774 3.01536C25.1451 4.2581 26.4143 5.87295 26.4143 7.5Z" fill="#FFC107" stroke="black" stroke-width="1.17137"/>
<circle cx="7.44833" cy="7.5" r="2.6069" fill="white"/>
<circle cx="7.44832" cy="7.5" r="1.67586" fill="black"/>
<circle cx="19.5517" cy="7.5" r="2.6069" fill="white"/>
<circle cx="19.5517" cy="7.5" r="1.67586" fill="black"/>
</svg>
