<svg width="128" height="128" viewBox="0 0 128 128" fill="none" xmlns="http://www.w3.org/2000/svg">
<g clip-path="url(#clip0_166_463)">
<rect width="128" height="72" fill="url(#paint0_linear_166_463)"/>
<rect y="72" width="128" height="56" fill="#A97C50"/>
<path d="M111.222 49.6493C111.222 56.3039 106.066 62.4464 97.4661 66.954C88.8891 71.4496 77.0062 74.2447 63.8541 74.2447C50.702 74.2447 38.8192 71.4496 30.2421 66.954C21.642 62.4464 16.4867 56.3039 16.4867 49.6493C16.4867 42.9947 21.642 36.8523 30.2421 32.3446C38.8192 27.8491 50.702 25.0539 63.8541 25.0539C77.0062 25.0539 88.8891 27.8491 97.4661 32.3446C106.066 36.8523 111.222 42.9947 111.222 49.6493Z" fill="#38ABE0" stroke="black" stroke-width="0.973445"/>
<circle cx="42.4022" cy="49.6491" r="9.2408" fill="white"/>
<circle cx="42.4022" cy="49.6493" r="5.94051" fill="black"/>
<circle cx="85.3057" cy="49.6491" r="9.2408" fill="white"/>
<circle cx="85.306" cy="49.6493" r="5.94051" fill="black"/>
<circle cx="41.3559" cy="73.2201" r="6.60889" fill="#38ABE0" stroke="black" stroke-width="0.973445"/>
<circle cx="86.0617" cy="73.2201" r="6.60889" fill="#38ABE0" stroke="black" stroke-width="0.973445"/>
<rect width="128" height="128" fill="url(#paint1_linear_166_463)"/>
</g>
<defs>
<linearGradient id="paint0_linear_166_463" x1="64" y1="0" x2="64" y2="72" gradientUnits="userSpaceOnUse">
<stop stop-color="#203F76"/>
<stop offset="1" stop-color="#797F6C"/>
</linearGradient>
<linearGradient id="paint1_linear_166_463" x1="64" y1="0" x2="64" y2="128" gradientUnits="userSpaceOnUse">
<stop stop-opacity="0"/>
<stop offset="1" stop-opacity="0.6"/>
</linearGradient>
<clipPath id="clip0_166_463">
<rect width="128" height="128" fill="white"/>
</clipPath>
</defs>
</svg>
