<svg width="375" height="296" viewBox="0 0 375 296" fill="none" xmlns="http://www.w3.org/2000/svg">
<g clip-path="url(#clip0_148_1375)">
<g filter="url(#filter0_d_148_1375)">
<g filter="url(#filter1_i_148_1375)">
<path d="M22.3647 104.193C22.3647 76.8228 22.3647 63.1378 27.6913 52.6838C32.3767 43.4882 39.8529 36.012 49.0485 31.3266C59.5025 26 73.1876 26 100.558 26H274.442C301.812 26 315.497 26 325.951 31.3266C335.147 36.012 342.623 43.4882 347.309 52.6838C352.635 63.1378 352.635 76.8228 352.635 104.193V622.536C352.635 649.907 352.635 663.592 347.309 674.046C342.623 683.241 335.147 690.717 325.951 695.403C315.497 700.729 301.812 700.729 274.442 700.729H100.558C73.1876 700.729 59.5025 700.729 49.0485 695.403C39.8529 690.717 32.3767 683.241 27.6913 674.046C22.3647 663.592 22.3647 649.907 22.3647 622.536V104.193Z" fill="white"/>
<path d="M20 134.461C20 134.02 20 133.799 20.0859 133.63C20.1615 133.482 20.2821 133.361 20.4304 133.286C20.599 133.2 20.8197 133.2 21.2612 133.2H22.3647V156.847H21.2612C20.8197 156.847 20.599 156.847 20.4304 156.761C20.2821 156.686 20.1615 156.565 20.0859 156.417C20 156.248 20 156.027 20 155.586V134.461Z" fill="white"/>
<path d="M20 183.332C20 182.89 20 182.67 20.0859 182.501C20.1615 182.353 20.2821 182.232 20.4304 182.156C20.599 182.071 20.8197 182.071 21.2612 182.071H22.3647V230.941H21.2612C20.8197 230.941 20.599 230.941 20.4304 230.855C20.2821 230.78 20.1615 230.659 20.0859 230.511C20 230.342 20 230.121 20 229.68V183.332Z" fill="white"/>
<path d="M20 246.391C20 245.949 20 245.728 20.0859 245.56C20.1615 245.411 20.2821 245.291 20.4304 245.215C20.599 245.129 20.8197 245.129 21.2612 245.129H22.3647V294H21.2612C20.8197 294 20.599 294 20.4304 293.914C20.2821 293.839 20.1615 293.718 20.0859 293.57C20 293.401 20 293.18 20 292.739V246.391Z" fill="white"/>
<path d="M352.635 199.412H353.739C354.18 199.412 354.401 199.412 354.57 199.498C354.718 199.573 354.839 199.694 354.914 199.842C355 200.011 355 200.231 355 200.673V276.974C355 277.416 355 277.636 354.914 277.805C354.839 277.953 354.718 278.074 354.57 278.149C354.401 278.235 354.18 278.235 353.739 278.235H352.635V199.412Z" fill="white"/>
</g>
<path d="M39.7059 74.8705C39.7059 57.4573 53.8221 43.3411 71.2353 43.3411H303.765C321.178 43.3411 335.294 57.4573 335.294 74.8705V651.859C335.294 669.272 321.178 683.388 303.765 683.388H71.2353C53.8221 683.388 39.7059 669.272 39.7059 651.859V74.8705Z" fill="url(#paint0_linear_148_1375)"/>
<path d="M122.035 95.304C123.523 93.768 124.699 92.424 125.563 91.272C126.427 90.12 127.075 89.088 127.507 88.176C127.939 87.264 128.203 86.424 128.299 85.656C128.395 84.888 128.443 84.144 128.443 83.424V82.848C128.443 81.456 127.867 80.208 126.715 79.104C125.611 77.952 123.715 77.376 121.027 77.376C120.067 77.376 119.107 77.472 118.147 77.664C117.235 77.856 116.323 78.216 115.411 78.744C114.499 79.272 113.587 80.016 112.675 80.976C111.811 81.936 110.947 83.16 110.083 84.648L103.171 80.112C103.795 79.008 104.563 77.808 105.475 76.512C106.435 75.216 107.611 74.04 109.003 72.984C110.443 71.88 112.123 70.968 114.043 70.248C116.011 69.528 118.315 69.168 120.955 69.168C123.883 69.168 126.403 69.528 128.515 70.248C130.627 70.968 132.355 71.952 133.699 73.2C135.091 74.4 136.099 75.816 136.723 77.448C137.395 79.032 137.731 80.712 137.731 82.488V83.208C137.731 86.04 137.083 88.752 135.787 91.344C134.539 93.888 132.691 96.384 130.243 98.832L114.979 114.24H139.675V121.872H102.955V114.96L122.035 95.304ZM184.612 99.912C184.612 107.304 183.052 112.944 179.932 116.832C176.812 120.72 172.108 122.664 165.82 122.664C159.628 122.664 154.852 120.696 151.492 116.76C148.132 112.824 146.452 107.208 146.452 99.912V91.848C146.452 84.552 148.108 78.96 151.42 75.072C154.78 71.136 159.508 69.168 165.604 69.168C171.748 69.168 176.452 71.136 179.716 75.072C182.98 78.96 184.612 84.552 184.612 91.848V99.912ZM175.324 91.776C175.324 88.8 175.036 86.4 174.46 84.576C173.932 82.752 173.212 81.36 172.3 80.4C171.436 79.392 170.404 78.72 169.204 78.384C168.052 78.048 166.852 77.88 165.604 77.88C164.404 77.88 163.204 78.048 162.004 78.384C160.852 78.72 159.796 79.392 158.836 80.4C157.924 81.408 157.18 82.824 156.604 84.648C156.028 86.472 155.74 88.848 155.74 91.776V99.984C155.74 102.96 156.028 105.36 156.604 107.184C157.228 109.008 158.02 110.424 158.98 111.432C159.94 112.44 161.02 113.112 162.22 113.448C163.42 113.784 164.62 113.952 165.82 113.952C167.068 113.952 168.268 113.784 169.42 113.448C170.572 113.112 171.58 112.464 172.444 111.504C173.308 110.496 174.004 109.08 174.532 107.256C175.06 105.432 175.324 103.008 175.324 99.984V91.776ZM209.892 95.304C211.38 93.768 212.556 92.424 213.42 91.272C214.284 90.12 214.932 89.088 215.364 88.176C215.796 87.264 216.06 86.424 216.156 85.656C216.252 84.888 216.3 84.144 216.3 83.424V82.848C216.3 81.456 215.724 80.208 214.572 79.104C213.468 77.952 211.572 77.376 208.884 77.376C207.924 77.376 206.964 77.472 206.004 77.664C205.092 77.856 204.18 78.216 203.268 78.744C202.356 79.272 201.444 80.016 200.532 80.976C199.668 81.936 198.804 83.16 197.94 84.648L191.028 80.112C191.652 79.008 192.42 77.808 193.332 76.512C194.292 75.216 195.468 74.04 196.86 72.984C198.3 71.88 199.98 70.968 201.9 70.248C203.868 69.528 206.172 69.168 208.812 69.168C211.74 69.168 214.26 69.528 216.372 70.248C218.484 70.968 220.212 71.952 221.556 73.2C222.948 74.4 223.956 75.816 224.58 77.448C225.252 79.032 225.588 80.712 225.588 82.488V83.208C225.588 86.04 224.94 88.752 223.644 91.344C222.396 93.888 220.548 96.384 218.1 98.832L202.836 114.24H227.532V121.872H190.812V114.96L209.892 95.304ZM266.276 80.4C264.644 79.44 262.94 78.72 261.164 78.24C259.388 77.76 257.42 77.52 255.26 77.52C253.916 77.52 252.62 77.76 251.372 78.24C250.172 78.72 249.068 79.536 248.06 80.688C247.1 81.792 246.284 83.28 245.612 85.152C244.94 86.976 244.532 89.28 244.388 92.064C245.636 90.576 247.316 89.448 249.428 88.68C251.588 87.912 253.796 87.528 256.052 87.528C258.548 87.528 260.804 87.936 262.82 88.752C264.836 89.52 266.54 90.648 267.932 92.136C269.324 93.576 270.38 95.328 271.1 97.392C271.868 99.456 272.252 101.736 272.252 104.232V105.672C272.252 108.072 271.82 110.328 270.956 112.44C270.14 114.504 268.94 116.304 267.356 117.84C265.772 119.328 263.828 120.504 261.524 121.368C259.268 122.232 256.7 122.664 253.82 122.664C250.508 122.664 247.676 122.136 245.324 121.08C242.972 120.072 241.052 118.608 239.564 116.688C238.076 114.768 236.972 112.464 236.252 109.776C235.58 107.04 235.244 104.016 235.244 100.704V97.392C235.244 91.68 235.772 87 236.828 83.352C237.932 79.656 239.42 76.776 241.292 74.712C243.164 72.6 245.348 71.16 247.844 70.392C250.34 69.576 253.004 69.168 255.836 69.168C258.188 69.168 260.588 69.456 263.036 70.032C265.484 70.56 267.692 71.472 269.66 72.768L266.276 80.4ZM244.532 105.384C244.532 108.216 245.3 110.424 246.836 112.008C248.372 113.544 250.628 114.312 253.604 114.312C256.772 114.312 259.148 113.544 260.732 112.008C262.364 110.424 263.18 108.192 263.18 105.312V104.52C263.18 101.496 262.436 99.264 260.948 97.824C259.46 96.336 257.132 95.592 253.964 95.592C252.284 95.592 250.844 95.832 249.644 96.312C248.492 96.744 247.532 97.368 246.764 98.184C245.996 98.952 245.42 99.864 245.036 100.92C244.7 101.976 244.532 103.104 244.532 104.304V105.384Z" fill="white" fill-opacity="0.2"/>
<path d="M114.237 147.379L131.075 156.308L126.228 181.31L109.135 172.381L114.237 147.379Z" fill="#BFBFBF"/>
<path d="M103.778 175.442L120.615 184.371L109.39 261.926H86.1746L103.778 175.442Z" fill="#BFBFBF"/>
<path d="M109.135 172.381L126.228 181.31L120.615 184.371L103.778 175.442L109.135 172.381Z" fill="#A4A4A4"/>
<path d="M125.973 139.726L124.697 146.869L123.677 152.482L114.237 147.379L125.973 139.726Z" fill="#A4A4A4"/>
<path d="M70.8677 261.416L84.3888 261.671L78.266 289.734L65 286.673L70.8677 261.416Z" fill="#D5D5D5"/>
<path d="M84.3888 261.671L109.39 261.926L106.584 286.673L78.266 289.734L84.3888 261.671Z" fill="#DCDCDC"/>
<path d="M110.156 262.181L134.392 262.692L132.861 282.846L131.33 303L105.819 297.643L110.156 262.181Z" fill="#D5D5D5"/>
<path d="M134.392 262.692H161.434L160.668 294.836L131.33 303L132.861 282.846L134.392 262.692Z" fill="#DCDCDC"/>
<path fill-rule="evenodd" clip-rule="evenodd" d="M101.226 150.186L148.423 116L162.965 132.072L156.076 262.692H133.116L75.2046 261.671L101.226 150.186ZM114.493 147.379L109.135 172.381L103.778 175.442L86.4298 261.671L113.727 262.181L128.524 161.666L121.381 165.492L125.973 139.726L114.493 147.379Z" fill="#D9D9D9"/>
<g clip-path="url(#clip1_148_1375)">
<path d="M308.944 287.435C305.543 287.435 302.778 284.669 302.778 281.269V275.589C302.778 275.397 302.621 275.241 302.43 275.241H301.523C301.332 275.241 301.175 275.397 301.175 275.589V281.269C301.175 284.669 298.41 287.435 295.009 287.435C291.609 287.435 288.844 284.669 288.844 281.269V275.241C288.844 275.098 288.757 274.972 288.625 274.918C287.019 274.276 286.009 272.821 286.054 271.212L286.72 247.119C286.779 244.972 288.654 243.29 290.987 243.29H312.962C315.297 243.29 317.171 244.972 317.23 247.119L317.896 271.213C317.941 272.823 316.931 274.278 315.325 274.919C315.193 274.972 315.106 275.1 315.106 275.243V281.271C315.106 284.671 312.34 287.437 308.94 287.437L308.944 287.435Z" fill="#38ABE0"/>
<path d="M312.964 243.639C314.002 243.639 314.982 244.006 315.721 244.673C316.446 245.327 316.86 246.2 316.886 247.13L317.552 271.222C317.592 272.686 316.669 274.01 315.2 274.596C314.935 274.702 314.762 274.958 314.762 275.241V281.269C314.762 284.476 312.152 287.087 308.944 287.087C305.735 287.087 303.126 284.478 303.126 281.269V275.589C303.126 275.204 302.814 274.893 302.43 274.893H301.523C301.139 274.893 300.828 275.204 300.828 275.589V281.269C300.828 284.476 298.218 287.087 295.01 287.087C291.801 287.087 289.191 284.478 289.191 281.269V275.241C289.191 274.956 289.018 274.7 288.753 274.596C287.285 274.01 286.36 272.686 286.402 271.222L287.067 247.13C287.093 246.2 287.507 245.327 288.232 244.673C288.971 244.006 289.949 243.639 290.989 243.639H312.964ZM312.964 242.944H290.989C288.486 242.944 286.438 244.793 286.374 247.11L285.708 271.203C285.658 273.006 286.819 274.572 288.498 275.243V281.271C288.498 284.868 291.413 287.784 295.011 287.784C298.61 287.784 301.525 284.869 301.525 281.271V275.59H302.432V281.271C302.432 284.868 305.347 287.784 308.945 287.784C312.542 287.784 315.459 284.869 315.459 281.271V275.243C317.138 274.572 318.299 273.007 318.249 271.203L317.583 247.11C317.519 244.792 315.471 242.944 312.968 242.944H312.964Z" fill="#231815"/>
<path d="M302.717 257.716H301.239V263.273H302.717V257.716Z" fill="white"/>
<path d="M309.135 257.716V258.873H310.993V263.273H312.47V258.873H314.329V257.716H309.135Z" fill="white"/>
<path d="M307.077 259.916H305.842C305.514 259.916 305.248 259.781 305.248 259.395C305.248 259.009 305.514 258.873 305.842 258.873H308.497V257.716H305.667C304.61 257.716 303.753 258.326 303.753 259.395C303.753 260.464 304.61 261.074 305.667 261.074H306.938C307.266 261.074 307.53 261.21 307.53 261.595C307.53 261.981 307.264 262.117 306.938 262.117H303.96V263.275H307.078C308.135 263.275 308.99 262.666 308.99 261.597C308.99 260.528 308.133 259.918 307.078 259.918" fill="white"/>
<path d="M296.741 257.716L294.651 262.717L292.661 260.495L295.15 257.716H293.464L291.103 260.354V257.716H289.626V263.273H291.103V260.634L293.464 263.273H295.92L297.613 259.082L298.841 262.164H296.888L297.353 263.273H300.807L298.484 257.716H296.741Z" fill="white"/>
<path d="M312.924 246.916C309.382 246.916 305.738 246.643 302.091 246.107C293.756 244.88 286.228 242.483 279.714 238.982C272.686 235.205 267.178 230.301 263.338 224.407C261.88 222.166 261.169 219.399 261.388 216.812C261.619 214.083 262.855 211.749 264.864 210.238C274.02 203.354 286.325 199.565 299.515 199.565C302.63 199.565 305.771 199.784 308.85 200.213C316.535 201.288 324.235 203.912 331.121 207.803C338.049 211.719 343.874 216.765 347.963 222.397C350.958 226.522 349.835 232.846 345.456 236.493C337.272 243.312 326.022 246.916 312.924 246.916Z" fill="#38ABE0"/>
<path d="M299.515 199.913C302.614 199.913 305.738 200.13 308.803 200.558C316.444 201.627 324.103 204.236 330.95 208.105C337.836 211.997 343.622 217.01 347.683 222.601C349.115 224.572 349.623 227.092 349.114 229.695C348.623 232.199 347.21 234.579 345.235 236.224C341.09 239.678 336.113 242.316 330.443 244.068C325.078 245.725 319.186 246.566 312.926 246.566C309.401 246.566 305.773 246.295 302.143 245.762C293.848 244.541 286.358 242.156 279.88 238.673C272.904 234.923 267.437 230.058 263.63 224.214C262.213 222.037 261.522 219.348 261.735 216.838C261.96 214.21 263.145 211.962 265.075 210.513C269.62 207.095 274.96 204.437 280.943 202.614C286.831 200.82 293.08 199.909 299.515 199.909M299.515 199.217C286.574 199.217 274.009 202.927 264.656 209.958C260.202 213.306 260.006 219.927 263.046 224.594C271.124 236.999 285.977 244.086 302.041 246.45C305.676 246.985 309.324 247.262 312.924 247.262C325.228 247.262 336.961 244.021 345.68 236.759C349.96 233.194 351.519 226.7 348.246 222.192C339.815 210.586 324.579 202.061 308.898 199.869C305.775 199.433 302.634 199.217 299.515 199.217Z" fill="#231815"/>
<path d="M288.463 227.188C292.071 227.188 294.996 224.263 294.996 220.656C294.996 217.048 292.071 214.123 288.463 214.123C284.855 214.123 281.931 217.048 281.931 220.656C281.931 224.263 284.855 227.188 288.463 227.188Z" fill="#F7F8F8"/>
<path d="M288.463 224.803C290.754 224.803 292.611 222.946 292.611 220.656C292.611 218.365 290.754 216.508 288.463 216.508C286.173 216.508 284.316 218.365 284.316 220.656C284.316 222.946 286.173 224.803 288.463 224.803Z" fill="black"/>
<path d="M322.427 232.189C326.035 232.189 328.96 229.264 328.96 225.657C328.96 222.049 326.035 219.124 322.427 219.124C318.82 219.124 315.895 222.049 315.895 225.657C315.895 229.264 318.82 232.189 322.427 232.189Z" fill="#F7F8F8"/>
<path d="M322.427 229.804C324.718 229.804 326.575 227.947 326.575 225.656C326.575 223.366 324.718 221.509 322.427 221.509C320.137 221.509 318.28 223.366 318.28 225.656C318.28 227.947 320.137 229.804 322.427 229.804Z" fill="black"/>
<path d="M301.045 232.996C301.829 241.244 290.919 246.559 290.919 246.559C290.919 246.559 279.205 243.392 278.421 235.144C278.087 231.628 280.551 228.521 283.925 228.201C286.123 227.993 288.166 229.02 289.416 230.734C290.32 228.817 292.133 227.423 294.332 227.214C297.707 226.894 300.711 229.481 301.045 232.997V232.996Z" fill="#E4007E" stroke="#231815" stroke-width="1.1875" stroke-miterlimit="10"/>
<path d="M297.613 236.483C298.613 236.337 300.582 236.37 302.757 237.792C304.883 239.182 306.896 243.06 308 244.253C308.544 244.84 308.672 245.113 310.574 246.306C311.078 246.622 312.276 247.072 312.834 247.347C315.846 248.826 313.583 251.795 312.295 252.523C308.994 254.284 304.784 253.354 301.742 251.63C299.035 250.095 296.491 248.265 294.505 245.979C293.838 245.212 293.082 244.411 292.771 243.42C292.402 242.245 292.459 241.421 292.838 240.479C293.402 239.074 294.956 237.785 295.176 237.632C295.96 237.093 296.28 236.679 297.612 236.484L297.613 236.483Z" fill="#38ABE2" stroke="#231815" stroke-width="1.1875" stroke-miterlimit="10"/>
<path d="M283.961 237.482C285.24 237.499 286.695 238.148 287.347 239.231C287.933 240.204 287.632 242.839 287.997 244.072C288.479 245.701 289.484 246.1 289.555 246.384C289.831 247.475 289.073 249.165 287.874 250.389C286.701 251.585 285.101 251.625 284.444 251.585C282.325 251.454 280.698 250.464 279.226 248.995C277.728 247.491 277.135 244.36 276.921 242.278C276.798 241.085 277.576 238.72 278.798 238.219C280.253 237.625 282.388 237.463 283.961 237.486V237.482Z" fill="#38ABE2" stroke="#231815" stroke-width="1.1875" stroke-miterlimit="10"/>
</g>
<path d="M103.372 311.994C102.274 311.994 101.182 311.83 100.122 311.501C94.3196 309.71 91.0543 303.534 92.8451 297.731L95.2783 289.84L95.0189 289.571C93.9051 288.413 93.2217 286.964 93.0508 285.375L89.7665 241.891C89.6241 240.037 90.9625 238.427 92.8103 238.224L139.686 233.102C139.809 233.089 139.936 233.08 140.062 233.08C141.755 233.08 143.211 234.345 143.451 236.022L149.637 279.212C149.937 281.977 148.574 284.704 146.16 286.141L145.894 286.299L143.999 301.177C143.299 306.663 138.61 310.802 133.089 310.802C132.624 310.802 132.149 310.77 131.684 310.713C128.767 310.343 126.166 308.856 124.366 306.53C122.565 304.205 121.777 301.316 122.151 298.398L123.309 289.299L118.325 289.843L113.889 304.224C112.456 308.872 108.229 311.994 103.369 311.994H103.372Z" fill="#38ABE0"/>
<path d="M140.063 233.715C141.442 233.715 142.629 234.747 142.825 236.117L149.007 279.284C149.276 281.815 148.033 284.296 145.837 285.603L145.306 285.919L145.226 286.53L143.372 301.1C142.714 306.27 138.294 310.172 133.089 310.172C132.649 310.172 132.203 310.143 131.763 310.086C126.087 309.365 122.053 304.157 122.777 298.477L123.834 290.172L124.037 288.58L122.442 288.754L118.67 289.166L117.845 289.257L117.601 290.051L113.288 304.037C111.937 308.419 107.954 311.361 103.372 311.361C102.338 311.361 101.309 311.206 100.309 310.896C97.6611 310.08 95.4874 308.28 94.1901 305.828C92.8928 303.375 92.6302 300.566 93.4466 297.917L95.769 290.381L95.9905 289.669L95.4716 289.131C94.4591 288.08 93.8389 286.764 93.6775 285.328L90.3932 241.844C90.2793 240.331 91.3678 239.018 92.877 238.854L139.753 233.731C139.854 233.719 139.958 233.715 140.06 233.715M140.063 232.45C139.914 232.45 139.768 232.459 139.617 232.475L92.741 237.598C90.5641 237.835 88.9662 239.759 89.1339 241.942L92.4214 285.448C92.6176 287.235 93.4054 288.811 94.5635 290.014L92.2411 297.55C90.3458 303.698 93.7914 310.216 99.9392 312.111C101.081 312.463 102.239 312.63 103.375 312.63C108.349 312.63 112.956 309.416 114.5 304.413L118.813 290.428L122.584 290.017L121.528 298.322C120.714 304.704 125.23 310.532 131.608 311.346C132.108 311.409 132.605 311.441 133.092 311.441C138.87 311.441 143.882 307.147 144.632 301.265L146.486 286.694C149.036 285.176 150.609 282.271 150.267 279.129L144.081 235.94C143.793 233.921 142.062 232.453 140.066 232.453L140.063 232.45Z" fill="#231815"/>
<path d="M119.975 257.376L117.311 257.667L118.408 267.698L121.072 267.406L119.975 257.376Z" fill="white"/>
<path d="M131.551 256.12L131.779 258.209L135.133 257.842L136 265.783L138.667 265.492L137.797 257.55L141.151 257.183L140.923 255.095L131.551 256.12Z" fill="white"/>
<path d="M128.273 260.496L126.046 260.74C125.454 260.803 124.948 260.613 124.872 259.917C124.796 259.221 125.248 258.924 125.84 258.86L130.63 258.338L130.403 256.25L125.296 256.807C123.388 257.016 121.964 258.284 122.176 260.214C122.388 262.145 124.052 263.075 125.96 262.866L128.251 262.616C128.843 262.553 129.349 262.743 129.425 263.439C129.501 264.135 129.048 264.432 128.457 264.495L123.084 265.084L123.312 267.172L128.938 266.558C130.846 266.35 132.269 265.084 132.057 263.154C131.845 261.224 130.181 260.29 128.273 260.499" fill="white"/>
<path d="M109.188 258.563L106.403 268.001L102.372 264.381L106.318 258.876L103.274 259.208L99.534 264.435L99.0151 259.673L96.351 259.964L97.4457 269.995L100.11 269.703L99.591 264.942L104.369 269.238L108.805 268.754L111.029 260.857L113.855 266.176L110.33 266.562L111.387 268.473L117.62 267.792L112.333 258.218L109.188 258.563Z" fill="white"/>
<path d="M71.896 275.19C73.7027 274.88 77.0851 273.715 80.0371 270.039C82.9228 266.444 84.2169 258.617 85.4509 255.94C86.0584 254.62 86.128 254.076 88.7415 250.95C89.4344 250.121 91.2474 248.672 92.0574 247.884C96.4238 243.638 90.8519 239.784 88.2194 239.252C81.5306 238.072 74.788 242.043 70.507 246.729C66.6975 250.899 63.3372 255.49 61.1952 260.55C60.4769 262.249 59.6195 264.056 59.6416 265.941C59.6669 268.175 60.2269 269.564 61.4103 270.982C63.1727 273.089 66.5804 274.443 67.0455 274.582C68.7003 275.073 69.485 275.608 71.8928 275.193L71.896 275.19Z" fill="#38ABE2" stroke="#231815" stroke-width="1.26562" stroke-miterlimit="10"/>
<path d="M103.249 243.575C78.2432 243.575 57.0724 236.538 42.0305 223.223C38.3981 220.009 35.8194 215.506 34.9556 210.874C34.0444 205.989 35.079 201.306 37.8697 197.692C53.6268 177.272 80.5909 162.783 110.004 158.936C114.722 158.319 119.578 158.006 124.445 158.006C136.282 158.006 148.394 159.879 159.471 163.419C170.713 167.014 180.977 172.361 189.15 178.888C196.383 184.663 197.465 196.269 191.564 204.761C184.312 215.199 174.105 223.828 161.224 230.409C149.327 236.487 135.18 240.67 120.316 242.505C114.56 243.217 108.818 243.575 103.249 243.575Z" fill="#38ABE0"/>
<path d="M124.445 158.638C136.215 158.638 148.261 160.499 159.278 164.021C170.447 167.593 180.642 172.902 188.754 179.379C192.209 182.138 194.313 186.302 194.677 191.102C195.029 195.721 193.703 200.569 191.042 204.397C183.85 214.747 173.722 223.309 160.933 229.843C149.099 235.889 135.028 240.05 120.236 241.875C114.506 242.584 108.792 242.942 103.249 242.942C91.3391 242.942 80.2047 241.319 70.1525 238.117C59.4326 234.703 50.1113 229.532 42.4511 222.752C38.92 219.629 36.4173 215.256 35.5788 210.763C34.7023 206.058 35.6927 201.553 38.3695 198.085C54.0253 177.791 80.8375 163.391 110.086 159.562C114.775 158.949 119.607 158.638 124.445 158.638ZM124.445 157.373C119.578 157.373 114.718 157.68 109.922 158.309C80.6983 162.132 53.4715 176.436 37.3696 197.306C31.1934 205.312 34.041 216.993 41.6126 223.695C57.7905 238.012 79.9737 244.204 103.249 244.204C108.922 244.204 114.661 243.837 120.391 243.128C149.64 239.518 176.892 226.979 192.08 205.119C197.848 196.813 197.443 184.698 189.542 178.389C172.621 164.881 148.485 157.373 124.445 157.373Z" fill="#231815"/>
<path d="M84.1886 216.402C90.7381 216.402 96.0475 211.092 96.0475 204.543C96.0475 197.993 90.7381 192.684 84.1886 192.684C77.6391 192.684 72.3297 197.993 72.3297 204.543C72.3297 211.092 77.6391 216.402 84.1886 216.402Z" fill="#F7F8F8"/>
<path d="M84.1887 212.07C88.3459 212.07 91.716 208.7 91.716 204.543C91.716 200.386 88.3459 197.015 84.1887 197.015C80.0315 197.015 76.6614 200.386 76.6614 204.543C76.6614 208.7 80.0315 212.07 84.1887 212.07Z" fill="black"/>
<path d="M146.036 208.767C152.586 208.767 157.895 203.457 157.895 196.908C157.895 190.358 152.586 185.049 146.036 185.049C139.487 185.049 134.177 190.358 134.177 196.908C134.177 203.457 139.487 208.767 146.036 208.767Z" fill="#F7F8F8"/>
<path d="M146.036 204.435C150.194 204.435 153.564 201.065 153.564 196.908C153.564 192.75 150.194 189.38 146.036 189.38C141.879 189.38 138.509 192.75 138.509 196.908C138.509 201.065 141.879 204.435 146.036 204.435Z" fill="black"/>
<path d="M168.748 213.7C166.913 213.684 163.379 214.231 159.822 217.326C156.345 220.35 153.684 227.827 151.994 230.245C151.162 231.437 150.998 231.959 147.871 234.573C147.042 235.266 145.002 236.373 144.065 237.003C139.015 240.407 143.818 245.188 146.315 246.179C152.687 248.526 160.028 245.812 165.071 241.958C169.558 238.528 173.681 234.608 176.687 230.007C177.696 228.463 178.857 226.837 179.17 224.976C179.541 222.771 179.237 221.306 178.322 219.702C176.962 217.316 173.848 215.38 173.412 215.161C171.868 214.386 171.191 213.722 168.748 213.7Z" fill="#38ABE2" stroke="#231815" stroke-width="1.26562" stroke-miterlimit="10"/>
<path d="M261.727 148.379L244.89 157.308L249.737 182.31L266.83 173.381L261.727 148.379Z" fill="#BFBFBF"/>
<path d="M272.187 176.442L255.349 185.371L266.574 262.926H289.79L272.187 176.442Z" fill="#BFBFBF"/>
<path d="M266.83 173.381L249.737 182.31L255.349 185.371L272.187 176.442L266.83 173.381Z" fill="#A4A4A4"/>
<path d="M249.992 140.726L251.267 147.869L252.288 153.482L261.727 148.379L249.992 140.726Z" fill="#A4A4A4"/>
<path d="M305.097 262.416L291.576 262.671L297.699 290.734L310.965 287.673L305.097 262.416Z" fill="#D5D5D5"/>
<path d="M291.576 262.671L266.574 262.926L269.381 287.673L297.699 290.734L291.576 262.671Z" fill="#DCDCDC"/>
<path d="M265.809 263.181L241.573 263.692L243.104 283.846L244.634 304L270.146 298.643L265.809 263.181Z" fill="#D5D5D5"/>
<path d="M241.573 263.692H214.531L215.296 295.836L244.634 304L243.104 283.846L241.573 263.692Z" fill="#DCDCDC"/>
<path fill-rule="evenodd" clip-rule="evenodd" d="M274.738 151.186L227.542 117L213 133.072L219.888 263.692H242.849L300.76 262.671L274.738 151.186ZM261.472 148.379L266.829 173.381L272.187 176.442L289.535 262.671L262.237 263.181L247.441 162.666L254.584 166.492L249.992 140.726L261.472 148.379Z" fill="#D9D9D9"/>
</g>
</g>
<defs>
<filter id="filter0_d_148_1375" x="-4" y="10" width="383" height="722.729" filterUnits="userSpaceOnUse" color-interpolation-filters="sRGB">
<feFlood flood-opacity="0" result="BackgroundImageFix"/>
<feColorMatrix in="SourceAlpha" type="matrix" values="0 0 0 0 0 0 0 0 0 0 0 0 0 0 0 0 0 0 127 0" result="hardAlpha"/>
<feOffset dy="8"/>
<feGaussianBlur stdDeviation="12"/>
<feComposite in2="hardAlpha" operator="out"/>
<feColorMatrix type="matrix" values="0 0 0 0 0 0 0 0 0 0 0 0 0 0 0 0 0 0 0.12 0"/>
<feBlend mode="normal" in2="BackgroundImageFix" result="effect1_dropShadow_148_1375"/>
<feBlend mode="normal" in="SourceGraphic" in2="effect1_dropShadow_148_1375" result="shape"/>
</filter>
<filter id="filter1_i_148_1375" x="19" y="26" width="336" height="674.729" filterUnits="userSpaceOnUse" color-interpolation-filters="sRGB">
<feFlood flood-opacity="0" result="BackgroundImageFix"/>
<feBlend mode="normal" in="SourceGraphic" in2="BackgroundImageFix" result="shape"/>
<feColorMatrix in="SourceAlpha" type="matrix" values="0 0 0 0 0 0 0 0 0 0 0 0 0 0 0 0 0 0 127 0" result="hardAlpha"/>
<feOffset dx="-1"/>
<feGaussianBlur stdDeviation="1"/>
<feComposite in2="hardAlpha" operator="arithmetic" k2="-1" k3="1"/>
<feColorMatrix type="matrix" values="0 0 0 0 1 0 0 0 0 1 0 0 0 0 1 0 0 0 1 0"/>
<feBlend mode="normal" in2="shape" result="effect1_innerShadow_148_1375"/>
</filter>
<linearGradient id="paint0_linear_148_1375" x1="187.5" y1="43.3411" x2="187.5" y2="683.388" gradientUnits="userSpaceOnUse">
<stop stop-color="#1F3E75"/>
<stop offset="1" stop-color="#FFE05D"/>
</linearGradient>
<clipPath id="clip0_148_1375">
<rect width="375" height="296" fill="white"/>
</clipPath>
<clipPath id="clip1_148_1375">
<rect width="89" height="89" fill="white" transform="translate(261 199)"/>
</clipPath>
</defs>
</svg>
