<svg width="94" height="27" viewBox="0 0 94 27" fill="none" xmlns="http://www.w3.org/2000/svg">
<path d="M27.38 10.46C27.34 10.3933 27.2 10.2933 26.96 10.16C26.72 10.0133 26.42 9.86 26.06 9.7C25.7 9.54 25.3067 9.4 24.88 9.28C24.4533 9.16 24.0267 9.1 23.6 9.1C23.04 9.1 22.6067 9.2 22.3 9.4C21.9933 9.58667 21.84 9.88 21.84 10.28C21.84 10.6 21.9533 10.8533 22.18 11.04C22.42 11.2267 22.76 11.3933 23.2 11.54C23.64 11.6733 24.18 11.8333 24.82 12.02C25.7267 12.26 26.5133 12.5533 27.18 12.9C27.8467 13.2333 28.3533 13.6667 28.7 14.2C29.06 14.7333 29.24 15.44 29.24 16.32C29.24 17.12 29.0933 17.8 28.8 18.36C28.5067 18.9067 28.1067 19.3533 27.6 19.7C27.1067 20.0333 26.54 20.28 25.9 20.44C25.26 20.5867 24.6 20.66 23.92 20.66C23.2267 20.66 22.5133 20.5933 21.78 20.46C21.06 20.3133 20.3667 20.1133 19.7 19.86C19.0333 19.5933 18.42 19.2733 17.86 18.9L19.3 16.04C19.3533 16.1067 19.5267 16.2333 19.82 16.42C20.1133 16.5933 20.4733 16.78 20.9 16.98C21.34 17.1667 21.8267 17.3333 22.36 17.48C22.8933 17.6267 23.4333 17.7 23.98 17.7C24.5667 17.7 25 17.6067 25.28 17.42C25.5733 17.2333 25.72 16.9733 25.72 16.64C25.72 16.28 25.5667 16 25.26 15.8C24.9667 15.6 24.56 15.42 24.04 15.26C23.5333 15.1 22.9467 14.92 22.28 14.72C21.4133 14.4533 20.6933 14.1533 20.12 13.82C19.56 13.4867 19.14 13.08 18.86 12.6C18.5933 12.12 18.46 11.52 18.46 10.8C18.46 9.8 18.6933 8.96 19.16 8.28C19.64 7.58667 20.28 7.06667 21.08 6.72C21.88 6.36 22.7533 6.18 23.7 6.18C24.3667 6.18 25.0067 6.26 25.62 6.42C26.2467 6.58 26.8267 6.78 27.36 7.02C27.9067 7.26 28.3933 7.5 28.82 7.74L27.38 10.46ZM30.9647 20.5V6.3H37.0247C37.7047 6.3 38.3247 6.44 38.8847 6.72C39.458 6.98667 39.9514 7.35333 40.3647 7.82C40.778 8.27333 41.098 8.78667 41.3247 9.36C41.5514 9.93333 41.6647 10.52 41.6647 11.12C41.6647 11.9333 41.4714 12.7067 41.0847 13.44C40.7114 14.1733 40.1847 14.7733 39.5047 15.24C38.838 15.6933 38.0447 15.92 37.1247 15.92H34.2447V20.5H30.9647ZM34.2447 13.06H36.9247C37.178 13.06 37.4114 12.9867 37.6247 12.84C37.838 12.6933 38.0114 12.4733 38.1447 12.18C38.278 11.8867 38.3447 11.5267 38.3447 11.1C38.3447 10.66 38.2647 10.3 38.1047 10.02C37.958 9.72667 37.7647 9.51333 37.5247 9.38C37.298 9.24667 37.058 9.18 36.8047 9.18H34.2447V13.06ZM45.7705 6.3H49.3105L54.1905 20.5H50.8305L49.7305 17.32H45.3105L44.2305 20.5H40.8705L45.7705 6.3ZM49.1905 15.06L47.5305 9.6L45.8305 15.06H49.1905ZM55.3889 20.5V6.3H61.7889C62.4556 6.3 63.0689 6.44 63.6289 6.72C64.2022 6.98667 64.6956 7.35333 65.1089 7.82C65.5222 8.27333 65.8422 8.78667 66.0689 9.36C66.3089 9.93333 66.4289 10.5133 66.4289 11.1C66.4289 11.6867 66.3356 12.2467 66.1489 12.78C65.9622 13.3 65.6956 13.7733 65.3489 14.2C65.0022 14.6133 64.5889 14.9533 64.1089 15.22L67.2289 20.5H63.6089L60.8889 15.92H58.6689V20.5H55.3889ZM58.6689 13.06H61.6689C61.9356 13.06 62.1689 12.98 62.3689 12.82C62.5822 12.6467 62.7556 12.4133 62.8889 12.12C63.0222 11.8267 63.0889 11.4867 63.0889 11.1C63.0889 10.7133 63.0089 10.38 62.8489 10.1C62.7022 9.80667 62.5156 9.58 62.2889 9.42C62.0622 9.26 61.8222 9.18 61.5689 9.18H58.6689V13.06ZM67.6306 13.28C67.6306 12.4133 67.7906 11.5667 68.1106 10.74C68.4306 9.9 68.8973 9.14 69.5106 8.46C70.124 7.78 70.8706 7.24 71.7506 6.84C72.6306 6.42667 73.6306 6.22 74.7506 6.22C76.084 6.22 77.2373 6.50667 78.2106 7.08C79.1973 7.65333 79.9306 8.4 80.4106 9.32L77.8906 11.08C77.6773 10.5733 77.3906 10.18 77.0306 9.9C76.684 9.62 76.2973 9.42667 75.8706 9.32C75.4573 9.2 75.0573 9.14 74.6706 9.14C74.044 9.14 73.4973 9.26667 73.0306 9.52C72.564 9.76 72.1773 10.0867 71.8706 10.5C71.564 10.9133 71.3373 11.3733 71.1906 11.88C71.044 12.3867 70.9706 12.8933 70.9706 13.4C70.9706 13.96 71.0573 14.5 71.2306 15.02C71.404 15.54 71.6506 16 71.9706 16.4C72.304 16.8 72.704 17.12 73.1706 17.36C73.6373 17.5867 74.1506 17.7 74.7106 17.7C75.1106 17.7 75.5173 17.6333 75.9306 17.5C76.344 17.3667 76.724 17.16 77.0706 16.88C77.4306 16.5867 77.704 16.2067 77.8906 15.74L80.5706 17.32C80.2906 18.0133 79.8306 18.6067 79.1906 19.1C78.5506 19.5933 77.824 19.9733 77.0106 20.24C76.2106 20.4933 75.4173 20.62 74.6306 20.62C73.604 20.62 72.6573 20.4133 71.7906 20C70.9373 19.5733 70.1973 19.0133 69.5706 18.32C68.9573 17.6133 68.4773 16.8267 68.1306 15.96C67.7973 15.08 67.6306 14.1867 67.6306 13.28ZM90.5402 10.46C90.5002 10.3933 90.3602 10.2933 90.1202 10.16C89.8802 10.0133 89.5802 9.86 89.2202 9.7C88.8602 9.54 88.4668 9.4 88.0402 9.28C87.6135 9.16 87.1868 9.1 86.7602 9.1C86.2002 9.1 85.7668 9.2 85.4602 9.4C85.1535 9.58667 85.0002 9.88 85.0002 10.28C85.0002 10.6 85.1135 10.8533 85.3402 11.04C85.5802 11.2267 85.9202 11.3933 86.3602 11.54C86.8002 11.6733 87.3402 11.8333 87.9802 12.02C88.8868 12.26 89.6735 12.5533 90.3402 12.9C91.0068 13.2333 91.5135 13.6667 91.8602 14.2C92.2202 14.7333 92.4002 15.44 92.4002 16.32C92.4002 17.12 92.2535 17.8 91.9602 18.36C91.6668 18.9067 91.2668 19.3533 90.7602 19.7C90.2668 20.0333 89.7002 20.28 89.0602 20.44C88.4202 20.5867 87.7602 20.66 87.0802 20.66C86.3868 20.66 85.6735 20.5933 84.9402 20.46C84.2202 20.3133 83.5268 20.1133 82.8602 19.86C82.1935 19.5933 81.5802 19.2733 81.0202 18.9L82.4602 16.04C82.5135 16.1067 82.6868 16.2333 82.9802 16.42C83.2735 16.5933 83.6335 16.78 84.0602 16.98C84.5002 17.1667 84.9868 17.3333 85.5202 17.48C86.0535 17.6267 86.5935 17.7 87.1402 17.7C87.7268 17.7 88.1602 17.6067 88.4402 17.42C88.7335 17.2333 88.8802 16.9733 88.8802 16.64C88.8802 16.28 88.7268 16 88.4202 15.8C88.1268 15.6 87.7202 15.42 87.2002 15.26C86.6935 15.1 86.1068 14.92 85.4402 14.72C84.5735 14.4533 83.8535 14.1533 83.2802 13.82C82.7202 13.4867 82.3002 13.08 82.0202 12.6C81.7535 12.12 81.6202 11.52 81.6202 10.8C81.6202 9.8 81.8535 8.96 82.3202 8.28C82.8002 7.58667 83.4402 7.06667 84.2402 6.72C85.0402 6.36 85.9135 6.18 86.8602 6.18C87.5268 6.18 88.1668 6.26 88.7802 6.42C89.4068 6.58 89.9868 6.78 90.5202 7.02C91.0668 7.26 91.5535 7.5 91.9802 7.74L90.5402 10.46Z" fill="#333333"/>
<g clip-path="url(#clip0_1407_1430)">
<path d="M0 18.6824L4.26 10.2487L0 3.43994V18.6824Z" fill="black"/>
<path d="M1.93335 27L12.4996 17.2812L5.7446 20.1925L1.93335 27Z" fill="#333333"/>
<path d="M10.2511 0L0.088623 19.6625L6.70238 16.31L12.4224 9.39125L10.2511 0Z" fill="#333333"/>
<path d="M6.70237 16.3099L0.088623 19.6624L5.74487 20.1924L12.4999 17.2812L6.70237 16.3099Z" fill="black"/>
</g>
<defs>
<clipPath id="clip0_1407_1430">
<rect width="12.5" height="27" fill="white"/>
</clipPath>
</defs>
</svg>
