<svg width="500" height="500" viewBox="0 0 500 500" fill="none" xmlns="http://www.w3.org/2000/svg">
<g clip-path="url(#clip0_336_2017)">
<rect width="500" height="500" fill="#63266F"/>
<g filter="url(#filter0_dd_336_2017)">
<path fill-rule="evenodd" clip-rule="evenodd" d="M0 500H500V0H2.18557e-05L0 500ZM440 30H60V60H30L30 440H60V470H440V440H470L470 67H440V30Z" fill="#FFE279"/>
<path d="M-1.5 500L-1.5 501.5H0H500H501.5V500V0V-1.5H500H2.18557e-05H-1.49998L-1.49998 0L-1.5 500ZM60 61.5H61.5V60V31.5H438.5V67V68.5H440H468.5L468.5 438.5H440H438.5V440V468.5H61.5V440V438.5H60H31.5L31.5 61.5H60Z" stroke="#D7AC4B" stroke-width="3"/>
</g>
<g filter="url(#filter1_d_336_2017)">
<path d="M229.273 361V319.375H284.545V361H229.273ZM243.091 291.625V277.75H229.273V250H243.091V236.125H270.727V180.625H215.455V208.375H174V152.875H201.636V139H312.182V152.875H326V236.125H312.182V250H298.364V263.875H284.545V277.75H270.727V291.625H243.091Z" fill="url(#paint0_linear_336_2017)"/>
<path d="M226.773 361C226.773 362.381 227.892 363.5 229.273 363.5H284.545C285.926 363.5 287.045 362.381 287.045 361V319.375C287.045 317.994 285.926 316.875 284.545 316.875H229.273C227.892 316.875 226.773 317.994 226.773 319.375V361ZM240.591 291.625C240.591 293.006 241.71 294.125 243.091 294.125H270.727C272.108 294.125 273.227 293.006 273.227 291.625V280.25H284.545C285.926 280.25 287.045 279.131 287.045 277.75V266.375H298.364C299.744 266.375 300.864 265.256 300.864 263.875V252.5H312.182C313.563 252.5 314.682 251.381 314.682 250V238.625H326C327.381 238.625 328.5 237.506 328.5 236.125V152.875C328.5 151.494 327.381 150.375 326 150.375H314.682V139C314.682 137.619 313.563 136.5 312.182 136.5H201.636C200.256 136.5 199.136 137.619 199.136 139V150.375H174C172.619 150.375 171.5 151.494 171.5 152.875V208.375C171.5 209.756 172.619 210.875 174 210.875H215.455C216.835 210.875 217.955 209.756 217.955 208.375V183.125H268.227V233.625H243.091C241.71 233.625 240.591 234.744 240.591 236.125V247.5H229.273C227.892 247.5 226.773 248.619 226.773 250V277.75C226.773 279.131 227.892 280.25 229.273 280.25H240.591V291.625Z" stroke="url(#paint1_linear_336_2017)" stroke-width="5" stroke-linejoin="round"/>
</g>
<circle cx="95" cy="95" r="20" fill="black" fill-opacity="0.3"/>
<circle cx="95" cy="405" r="20" fill="black" fill-opacity="0.3"/>
<circle cx="405" cy="95" r="20" fill="black" fill-opacity="0.3"/>
<circle cx="405" cy="405" r="20" fill="black" fill-opacity="0.3"/>
<rect width="500" height="3" fill="#E9BC58"/>
</g>
<defs>
<filter id="filter0_dd_336_2017" x="-11" y="-31" width="546" height="546" filterUnits="userSpaceOnUse" color-interpolation-filters="sRGB">
<feFlood flood-opacity="0" result="BackgroundImageFix"/>
<feColorMatrix in="SourceAlpha" type="matrix" values="0 0 0 0 0 0 0 0 0 0 0 0 0 0 0 0 0 0 127 0" result="hardAlpha"/>
<feOffset dx="12" dy="-8"/>
<feGaussianBlur stdDeviation="10"/>
<feComposite in2="hardAlpha" operator="out"/>
<feColorMatrix type="matrix" values="0 0 0 0 1 0 0 0 0 0.772549 0 0 0 0 0.27451 0 0 0 1 0"/>
<feBlend mode="normal" in2="BackgroundImageFix" result="effect1_dropShadow_336_2017"/>
<feColorMatrix in="SourceAlpha" type="matrix" values="0 0 0 0 0 0 0 0 0 0 0 0 0 0 0 0 0 0 127 0" result="hardAlpha"/>
<feOffset dx="12" dy="-8"/>
<feComposite in2="hardAlpha" operator="out"/>
<feColorMatrix type="matrix" values="0 0 0 0 0 0 0 0 0 0 0 0 0 0 0 0 0 0 0.25 0"/>
<feBlend mode="normal" in2="effect1_dropShadow_336_2017" result="effect2_dropShadow_336_2017"/>
<feBlend mode="normal" in="SourceGraphic" in2="effect2_dropShadow_336_2017" result="shape"/>
</filter>
<filter id="filter1_d_336_2017" x="151" y="96" width="222" height="292" filterUnits="userSpaceOnUse" color-interpolation-filters="sRGB">
<feFlood flood-opacity="0" result="BackgroundImageFix"/>
<feColorMatrix in="SourceAlpha" type="matrix" values="0 0 0 0 0 0 0 0 0 0 0 0 0 0 0 0 0 0 127 0" result="hardAlpha"/>
<feOffset dx="12" dy="-8"/>
<feGaussianBlur stdDeviation="15"/>
<feComposite in2="hardAlpha" operator="out"/>
<feColorMatrix type="matrix" values="0 0 0 0 1 0 0 0 0 0.747396 0 0 0 0 0.191667 0 0 0 1 0"/>
<feBlend mode="normal" in2="BackgroundImageFix" result="effect1_dropShadow_336_2017"/>
<feBlend mode="normal" in="SourceGraphic" in2="effect1_dropShadow_336_2017" result="shape"/>
</filter>
<linearGradient id="paint0_linear_336_2017" x1="250" y1="139" x2="250" y2="361" gradientUnits="userSpaceOnUse">
<stop stop-color="white"/>
<stop offset="1" stop-color="#FFEFCB"/>
</linearGradient>
<linearGradient id="paint1_linear_336_2017" x1="250" y1="139" x2="250" y2="361" gradientUnits="userSpaceOnUse">
<stop stop-color="#FFD77E"/>
<stop offset="1" stop-color="#FFAF00"/>
</linearGradient>
<clipPath id="clip0_336_2017">
<rect width="500" height="500" fill="white"/>
</clipPath>
</defs>
</svg>
