<svg width="25" height="20" viewBox="0 0 25 20" fill="none" xmlns="http://www.w3.org/2000/svg">
<path fill-rule="evenodd" clip-rule="evenodd" d="M2.5 0H22.7375C23.9875 0 25 1.125 25 2.5V17.5C25 18.875 23.875 20 22.5 20H2.5C1.125 20 0 18.875 0 17.5V12.5C1.3875 12.5 2.5 11.375 2.5 10C2.5 8.625 1.3875 7.5 0.0125 7.5V2.5C0.0125 1.125 1.125 0 2.5 0ZM17.5694 5.13889C18.0278 5.13889 18.4167 5.43056 18.5556 5.84028L19.9236 9.77778C19.9722 9.92361 20 10.0833 20 10.2361V15.2083C20 15.7847 19.5278 16.25 18.9583 16.25C18.3819 16.25 17.9167 15.7778 17.9167 15.2083V14.8611H9.58333V15.2083C9.58333 15.7847 9.11806 16.25 8.54167 16.25C7.96528 16.25 7.5 15.7847 7.5 15.2083V10.2361C7.5 10.0764 7.52778 9.92361 7.57639 9.77778L8.94444 5.84028C9.09028 5.43056 9.47222 5.13889 9.93056 5.13889H11.6667V4.44444C11.6667 4.0625 11.9792 3.75 12.3611 3.75H15.1389C15.5208 3.75 15.8333 4.0625 15.8333 4.44444V5.13889H17.5694ZM8.88889 11.7361C8.88889 12.3125 9.35417 12.7778 9.93056 12.7778C10.5069 12.7778 10.9722 12.3125 10.9722 11.7361C10.9722 11.1597 10.5069 10.6944 9.93056 10.6944C9.35417 10.6944 8.88889 11.1597 8.88889 11.7361ZM16.5278 11.7361C16.5278 12.3125 16.9931 12.7778 17.5694 12.7778C18.1458 12.7778 18.6111 12.3125 18.6111 11.7361C18.6111 11.1597 18.1458 10.6944 17.5694 10.6944C16.9931 10.6944 16.5278 11.1597 16.5278 11.7361ZM9.93056 6.18056L8.88889 9.30556H18.6111L17.5694 6.18056H9.93056Z" fill="current"/>
</svg>
