<svg width="12" height="13" viewBox="0 0 12 13" fill="none" xmlns="http://www.w3.org/2000/svg">
<path d="M10.0833 1.74999H7.645C7.3125 0.839991 6.30917 0.373325 5.41667 0.699991C4.915 0.874991 4.54167 1.25999 4.355 1.74999H1.91667C1.60725 1.74999 1.3105 1.87291 1.09171 2.0917C0.872916 2.31049 0.75 2.60724 0.75 2.91666V11.0833C0.75 11.3927 0.872916 11.6895 1.09171 11.9083C1.3105 12.1271 1.60725 12.25 1.91667 12.25H10.0833C10.3928 12.25 10.6895 12.1271 10.9083 11.9083C11.1271 11.6895 11.25 11.3927 11.25 11.0833V2.91666C11.25 2.60724 11.1271 2.31049 10.9083 2.0917C10.6895 1.87291 10.3928 1.74999 10.0833 1.74999ZM6 1.74999C6.15471 1.74999 6.30308 1.81145 6.41248 1.92085C6.52187 2.03024 6.58333 2.17861 6.58333 2.33332C6.58333 2.48803 6.52187 2.63641 6.41248 2.7458C6.30308 2.8552 6.15471 2.91666 6 2.91666C5.84529 2.91666 5.69692 2.8552 5.58752 2.7458C5.47812 2.63641 5.41667 2.48803 5.41667 2.33332C5.41667 2.17861 5.47812 2.03024 5.58752 1.92085C5.69692 1.81145 5.84529 1.74999 6 1.74999ZM3.08333 4.08332H8.91667V2.91666H10.0833V11.0833H1.91667V2.91666H3.08333V4.08332ZM8.91667 6.41666H3.08333V5.24999H8.91667V6.41666ZM7.75 8.74999H3.08333V7.58332H7.75V8.74999Z" fill="#323232"/>
</svg>
