<svg width="12" height="12" viewBox="0 0 12 12" fill="none" xmlns="http://www.w3.org/2000/svg">
<path d="M7.21333 8.09417L8.72417 6.58333H3.08333V5.41667H8.72417L7.21333 3.90583L8.04167 3.08333L10.9583 6L8.04167 8.91667L7.21333 8.09417ZM10.0833 0.75C10.3928 0.75 10.6895 0.872916 10.9083 1.09171C11.1271 1.3105 11.25 1.60725 11.25 1.91667V4.64083L10.0833 3.47417V1.91667H1.91667V10.0833H10.0833V8.52583L11.25 7.35917V10.0833C11.25 10.3928 11.1271 10.6895 10.9083 10.9083C10.6895 11.1271 10.3928 11.25 10.0833 11.25H1.91667C1.60725 11.25 1.3105 11.1271 1.09171 10.9083C0.872916 10.6895 0.75 10.3928 0.75 10.0833V1.91667C0.75 1.26917 1.26917 0.75 1.91667 0.75H10.0833Z" fill="#323232"/>
</svg>
