<?xml version="1.0" encoding="utf-8"?>
<!-- Generator: Adobe Illustrator 25.4.1, SVG Export Plug-In . SVG Version: 6.00 Build 0)  -->
<svg version="1.1" id="레이어_1" xmlns="http://www.w3.org/2000/svg" xmlns:xlink="http://www.w3.org/1999/xlink" x="0px"
	 y="0px" viewBox="0 0 143.6 44.2" style="enable-background:new 0 0 143.6 44.2;" xml:space="preserve">
<style type="text/css">
	.st-pay0{fill-rule:evenodd;clip-rule:evenodd;}
</style>
<g>
	<g>
		<g>
			<path class="st-pay0" d="M21.9,0C9.8,0,0,7.8,0,17.3C0,23.5,4.1,28.9,10.2,32l-2.1,7.7c-0.1,0.2,0,0.5,0.2,0.7
				c0.1,0.1,0.3,0.2,0.4,0.2c0.1,0,0.3-0.1,0.4-0.1l8.9-6c1.3,0.2,2.6,0.3,4,0.3c12.1,0,21.9-7.8,21.9-17.3C43.9,7.8,34.1,0,21.9,0z
				"/>
		</g>
	</g>
	<path d="M62.4,31.7v11.2h-8V1.6H60l1,2.6c1.7-1.7,4.3-3.5,8.4-3.5c7.8,0,11.5,5.8,11.5,15.3c0,9.9-5.7,16.2-13.9,16.2
		C65.4,32.3,64.2,32.2,62.4,31.7z M62.4,8.3v17.8c0.4,0.1,1.5,0.2,2.6,0.2c5.7,0,7.9-4,7.9-10.3c0-5.5-1.5-8.8-6-8.8
		C65.3,7.2,63.7,7.7,62.4,8.3z"/>
	<path d="M98.2,13.3h4.5v-1c0-3.3-1.9-4.8-5.1-4.8c-2.5,0-5.6,0.7-8.2,2l-2.2-5.3c2.8-2,7.2-3.3,11.1-3.3c7.6,0,11.8,4,11.8,11.7
		v18.9h-5.6l-0.8-2.5c-3.2,2.3-6.2,3.3-8.8,3.3c-5.8,0-9.1-3.5-9.1-9.4C85.8,16.6,90.1,13.3,98.2,13.3z M102.7,23.8v-5.5h-3.7
		c-4.1,0-6.2,1.5-6.2,4.4c0,2.2,1.1,3.3,3.5,3.3C98.6,26.1,101.4,25,102.7,23.8z"/>
	<path d="M134.3,28.4c-2.8,7.4-6.1,12.8-11,15.8l-4.9-4.5c2.8-2.5,4.9-4.9,6.6-8.1L114.4,2.7l7.9-2.1l6.8,23.4l6.7-23.5l7.8,2.2
		L134.3,28.4z"/>
</g>
</svg>
