<svg xmlns="http://www.w3.org/2000/svg" viewBox="0 0 870.66 870.66"><defs><style>.a{fill:rgb(120,120,120);}</style></defs><path class="a" d="M1372.42,564.67H827.58c-89.83,0-162.91,73.08-162.91,162.91v544.84c0,89.83,73.08,162.91,162.91,162.91h544.84c89.83,0,162.91-73.08,162.91-162.91V727.58C1535.33,637.75,1462.25,564.67,1372.42,564.67Zm106.78,707.75a106.9,106.9,0,0,1-106.78,106.78H827.58A106.9,106.9,0,0,1,720.8,1272.42V727.58A106.9,106.9,0,0,1,827.58,620.8h544.84A106.9,106.9,0,0,1,1479.2,727.58Z" transform="translate(-664.67 -564.67)"/><path class="a" d="M1286.17,971.93h-158.1V813.83a28.07,28.07,0,1,0-56.14,0v158.1H913.83a28.07,28.07,0,0,0,0,56.14h158.1v158.1a28.07,28.07,0,0,0,56.14,0v-158.1h158.1a28.07,28.07,0,0,0,0-56.14Z" transform="translate(-664.67 -564.67)"/></svg>