<svg xmlns="http://www.w3.org/2000/svg" viewBox="0 0 841.8 806.75"><defs><style>.a{fill:rgb(120,120,120);}</style></defs><path class="a" d="M841.8,465.14V150.8C841.8,67.65,774.15,0,691,0H150.8C67.65,0,0,67.65,0,150.8V465.14c0,83.15,67.65,150.79,150.8,150.79h40V785a21.74,21.74,0,0,0,37.11,15.37L412.38,615.93H691C774.15,615.93,841.8,548.29,841.8,465.14ZM403.38,572.46A21.74,21.74,0,0,0,388,578.82L234.3,732.53V594.2a21.74,21.74,0,0,0-21.74-21.74H150.8A107.44,107.44,0,0,1,43.48,465.14V150.8A107.44,107.44,0,0,1,150.8,43.48H691A107.44,107.44,0,0,1,798.32,150.8V465.14A107.44,107.44,0,0,1,691,572.46Z"/></svg>