<?xml version="1.0" encoding="utf-8"?>
<!-- Generator: Adobe Illustrator 25.2.0, SVG Export Plug-In . SVG Version: 6.00 Build 0)  -->
<svg version="1.1" id="레이어_1" xmlns="http://www.w3.org/2000/svg" xmlns:xlink="http://www.w3.org/1999/xlink" x="0px"
	 y="0px" viewBox="0 0 480 480" style="enable-background:new 0 0 480 480;" xml:space="preserve">
<style type="text/css">
	.st0{fill:rgb(120,120,120);}
</style>
<path class="st0" d="M414.2,207.1C414.2,92.7,321.4,0,207.1,0S0,92.7,0,207.1s92.7,207.1,207.1,207.1S414.2,321.4,414.2,207.1z
	 M379.7,207.1c0,95.3-77.3,172.6-172.6,172.6S34.5,302.4,34.5,207.1S111.7,34.5,207.1,34.5S379.7,111.7,379.7,207.1z M470.7,471.3
	L470.7,471.3c-11.6,11.6-30.3,11.6-41.8,0l-98.2-98.2c-11.6-11.6-11.6-30.3,0-41.8l0,0c11.6-11.6,30.3-11.6,41.8,0l98.2,98.2
	C482.2,441.1,482.2,459.8,470.7,471.3z M381,352.1c0,16.3-13.2,29.6-29.6,29.6c-16.3,0-29.6-13.2-29.6-29.6
	c0-16.3,13.2-29.6,29.6-29.6C367.7,322.5,381,335.8,381,352.1z"/>
</svg>
