<svg xmlns="http://www.w3.org/2000/svg" viewBox="0 0 470.69 470.69"><defs><style>.a{fill:rgb(120,120,120);}</style></defs><path class="a" d="M711.25,450.59l-8.26-1.4-8.26-1.4-8.26-1.4L678.21,445c-.86-2.77-1.78-5.53-2.76-8.25s-2-5.43-3.14-8.1-2.27-5.32-3.5-7.94-2.52-5.2-3.87-7.76l4.87-6.81,4.86-6.81,4.87-6.81,4.87-6.81a29.21,29.21,0,0,0,4.41-9.33,28.87,28.87,0,0,0-7.56-28.13l-7.32-7.32-7.33-7.33-7.32-7.32L652,318.93a29.08,29.08,0,0,0-4.44-3.66,28.57,28.57,0,0,0-5-2.68,28.18,28.18,0,0,0-5.41-1.65,29,29,0,0,0-14.56.81,28.74,28.74,0,0,0-8,4l-6.84,4.86-6.83,4.87-6.83,4.87-6.84,4.86q-4-2.1-8-4T571,327.61c-2.77-1.14-5.57-2.22-8.4-3.22s-5.67-1.94-8.55-2.8l-1.38-8.16-1.37-8.16-1.38-8.17-1.38-8.16a29.29,29.29,0,0,0-3.47-9.72,29,29,0,0,0-25.24-14.56H478.42a29.06,29.06,0,0,0-28.72,24.28l-1.42,8.36-1.43,8.36L445.43,314,444,322.37q-4.12,1.29-8.2,2.79t-8.07,3.18q-4,1.68-7.93,3.56c-2.61,1.25-5.2,2.57-7.75,4L405.29,331l-6.76-4.87-6.76-4.87L385,316.37a28.68,28.68,0,0,0-3.86-2.33,28.37,28.37,0,0,0-4.16-1.7,29.55,29.55,0,0,0-14.62-.81,28.65,28.65,0,0,0-10.43,4.33,29.37,29.37,0,0,0-4.4,3.66l-7.35,7.33-7.35,7.32-7.35,7.33-7.35,7.32A29.07,29.07,0,0,0,315,386.29l4.91,6.9,4.92,6.91,4.92,6.91,4.91,6.91q-2,3.87-3.85,7.81t-3.46,8q-1.64,4-3.07,8.11t-2.7,8.26l-8.16,1.38-8.16,1.37-8.16,1.38-8.16,1.37a29.07,29.07,0,0,0-24.29,28.72v41.39a29.07,29.07,0,0,0,24.29,28.71l8.36,1.43,8.36,1.42,8.36,1.43,8.35,1.43q1.29,4.13,2.79,8.2t3.17,8.07c1.13,2.66,2.32,5.31,3.57,7.92s2.57,5.21,3.94,7.76L331,594.79l-4.84,6.73-4.84,6.74L316.47,615a29.25,29.25,0,0,0-4.41,9.34,28.82,28.82,0,0,0-.91,10,29.14,29.14,0,0,0,2.54,9.69,28.84,28.84,0,0,0,5.93,8.45l7.32,7.33,7.33,7.32,7.32,7.33,7.33,7.32a29.34,29.34,0,0,0,9.43,6.35,28.91,28.91,0,0,0,5.41,1.65A29.32,29.32,0,0,0,374,690a28,28,0,0,0,4.34-1,28.3,28.3,0,0,0,4.12-1.69,27.55,27.55,0,0,0,3.84-2.34l6.91-4.91,6.91-4.92,6.91-4.91,6.9-4.92q3.73,1.95,7.54,3.72t7.7,3.37c2.6,1.06,5.21,2.07,7.85,3s5.3,1.83,8,2.67l1.38,8.26,1.38,8.26,1.37,8.26,1.38,8.26a29,29,0,0,0,28.71,24.28h41.5a28.91,28.91,0,0,0,18.81-6.87,28.71,28.71,0,0,0,6.42-7.69,29.09,29.09,0,0,0,3.48-9.72l1.4-8.26,1.4-8.26,1.4-8.26L555,678q4.17-1.29,8.26-2.77t8.1-3.13c2.67-1.11,5.32-2.27,7.94-3.5s5.2-2.52,7.76-3.87l6.81,4.86,6.8,4.87,6.81,4.87,6.81,4.86a27.75,27.75,0,0,0,3.86,2.34,29.34,29.34,0,0,0,18.77,2.51,28.66,28.66,0,0,0,10.39-4.33,29.64,29.64,0,0,0,4.45-3.66l7.32-7.33,7.33-7.32,7.32-7.33,7.33-7.32a29.11,29.11,0,0,0,7.54-28.13,28.81,28.81,0,0,0-4.4-9.34l-4.87-6.83-4.86-6.83-4.87-6.84L664.74,587c1.36-2.58,2.65-5.19,3.89-7.82s2.41-5.28,3.53-7.95,2.16-5.37,3.14-8.08,1.88-5.45,2.72-8.21l8.26-1.37,8.26-1.38,8.26-1.38,8.25-1.37a29.06,29.06,0,0,0,22.48-18.54,29.41,29.41,0,0,0,1.81-10.17V479.3A28.62,28.62,0,0,0,721,454.07,29.14,29.14,0,0,0,711.25,450.59Zm-2.16,70.11H709a2.53,2.53,0,0,1-.16.91,2.57,2.57,0,0,1-.44.77,2.49,2.49,0,0,1-.68.57,2.62,2.62,0,0,1-.88.3L696.5,525l-10.32,1.72-10.32,1.73-10.33,1.72a13.11,13.11,0,0,0-3.68,1.19,13.3,13.3,0,0,0-3.1,2.12,13.22,13.22,0,0,0-3.84,6.42q-1.39,5.43-3.17,10.73t-3.91,10.46q-2.13,5.16-4.64,10.17t-5.39,9.84a13.68,13.68,0,0,0-1.45,3.56,13.15,13.15,0,0,0-.39,3.74,13.23,13.23,0,0,0,2.43,7.15l6.07,8.56,6.07,8.55,6.08,8.56,6.07,8.55a2.73,2.73,0,0,1,.22,2.59,2.54,2.54,0,0,1-.51.76l-7.33,7.32-7.32,7.33-7.33,7.32-7.32,7.33a3.57,3.57,0,0,1-.52.41,3.23,3.23,0,0,1-.5.24,2.84,2.84,0,0,1-.45.1l-.41,0a2,2,0,0,1-.42,0,1.86,1.86,0,0,1-.39-.1,2.17,2.17,0,0,1-.35-.15,3.28,3.28,0,0,1-.31-.2l-8.53-6.07-8.53-6.07-8.53-6.08-8.53-6.07a13.12,13.12,0,0,0-3.41-1.75,13.42,13.42,0,0,0-3.71-.68,13.45,13.45,0,0,0-7.33,1.85c-3.22,1.91-6.51,3.71-9.84,5.38s-6.73,3.22-10.17,4.64-6.93,2.73-10.47,3.91S543.58,654,540,654.91a13.25,13.25,0,0,0-3.57,1.48,13.5,13.5,0,0,0-2.92,2.39,13,13,0,0,0-2.11,3.12,12.81,12.81,0,0,0-1.14,3.63l-1.74,10.33-1.75,10.32L525,696.51l-1.75,10.32a2.55,2.55,0,0,1-.3.88,2.68,2.68,0,0,1-.57.68,2.64,2.64,0,0,1-1.68.6H479.3a2.53,2.53,0,0,1-.91-.16,2.45,2.45,0,0,1-.77-.44,2.49,2.49,0,0,1-.57-.68,2.56,2.56,0,0,1-.31-.88L475,696.51l-1.72-10.33-1.72-10.32-1.72-10.33a13.45,13.45,0,0,0-1.19-3.68,13,13,0,0,0-2.13-3.1,13.25,13.25,0,0,0-2.9-2.37,13.11,13.11,0,0,0-3.51-1.47q-5.28-1.36-10.45-3.09T439.45,648q-5-2.09-10-4.49t-9.67-5.14a13.83,13.83,0,0,0-1.6-.77,12.09,12.09,0,0,0-1.67-.55,14.17,14.17,0,0,0-3.41-.45,13.36,13.36,0,0,0-2,.15,12.73,12.73,0,0,0-2,.46,13,13,0,0,0-1.9.76,12.47,12.47,0,0,0-1.78,1.09l-8.61,6.12-8.6,6.12-8.6,6.12L371,663.56a2.71,2.71,0,0,1-.37.21,2.75,2.75,0,0,1-.36.15,1.86,1.86,0,0,1-.37.1,1.61,1.61,0,0,1-.37,0l-.36,0a2.42,2.42,0,0,1-.47-.11,2.12,2.12,0,0,1-.51-.24,2.44,2.44,0,0,1-.53-.41l-7.33-7.33-7.32-7.32-7.33-7.33L338.4,634a2.68,2.68,0,0,1-.52-.74,2.79,2.79,0,0,1-.22-.86,2.71,2.71,0,0,1,.08-.89,2.65,2.65,0,0,1,.37-.85l6-8.48,6.05-8.48,6.05-8.49,6-8.48a13,13,0,0,0,1.75-3.46,13.28,13.28,0,0,0,.69-3.74,13.81,13.81,0,0,0-.39-3.78,13.43,13.43,0,0,0-1.46-3.57c-1.91-3.19-3.72-6.46-5.41-9.78s-3.27-6.71-4.72-10.14-2.77-6.92-4-10.46-2.27-7.11-3.2-10.72a13.59,13.59,0,0,0-1.53-3.51,13.35,13.35,0,0,0-2.38-2.9,13.18,13.18,0,0,0-3.09-2.13,12.94,12.94,0,0,0-3.62-1.19l-10.4-1.77-10.4-1.77L303.76,526l-10.4-1.77a2.56,2.56,0,0,1-1.55-.88,2.56,2.56,0,0,1-.45-.77,2.72,2.72,0,0,1-.16-.91V480.29a2.57,2.57,0,0,1,.61-1.69,2.49,2.49,0,0,1,1.55-.87L303.61,476l10.26-1.72,10.25-1.72,10.25-1.72a13.46,13.46,0,0,0,6.83-3.33,13.32,13.32,0,0,0,3.89-6.5c.9-3.62,1.94-7.2,3.09-10.74s2.44-7,3.84-10.5,2.92-6.86,4.57-10.21,3.42-6.63,5.31-9.85a13.31,13.31,0,0,0,1.44-3.56,13.05,13.05,0,0,0,.35-3.73,13.25,13.25,0,0,0-.71-3.68,13.55,13.55,0,0,0-1.77-3.39l-6.12-8.6L349,388.15l-6.12-8.6-6.12-8.6a2.53,2.53,0,0,1-.37-.82,2.67,2.67,0,0,1-.08-.89,2.73,2.73,0,0,1,.23-.88,2.38,2.38,0,0,1,.51-.75l7.33-7.33,7.32-7.33,7.33-7.32,7.32-7.33a3.11,3.11,0,0,1,.52-.41,2.45,2.45,0,0,1,.49-.24,2.78,2.78,0,0,1,.46-.11,2.82,2.82,0,0,1,.4,0,2.77,2.77,0,0,1,.42,0,2.22,2.22,0,0,1,.39.1,1.87,1.87,0,0,1,.35.16,2.14,2.14,0,0,1,.32.2l8.48,6,8.48,6.05,8.48,6,8.48,6a13.3,13.3,0,0,0,3.46,1.76,13.63,13.63,0,0,0,3.74.68,13.39,13.39,0,0,0,3.78-.39,13.74,13.74,0,0,0,3.57-1.45q4.8-2.88,9.78-5.42t10.14-4.71q5.16-2.18,10.46-4t10.72-3.2a13.65,13.65,0,0,0,6.42-3.91,13.81,13.81,0,0,0,2.13-3.09,13,13,0,0,0,1.18-3.62l1.77-10.4,1.77-10.39,1.77-10.4,1.78-10.4a2.36,2.36,0,0,1,.3-.88,2.49,2.49,0,0,1,.57-.68,2.69,2.69,0,0,1,.77-.45,2.71,2.71,0,0,1,.91-.15H520a2.71,2.71,0,0,1,.91.15,2.83,2.83,0,0,1,.77.45,2.49,2.49,0,0,1,.57.68,2.55,2.55,0,0,1,.3.88l1.72,10.25L526,313.77,527.73,324l1.72,10.25a13.29,13.29,0,0,0,1.19,3.69,13.4,13.4,0,0,0,5.07,5.55,13.25,13.25,0,0,0,3.57,1.48q5.57,1.39,11,3.18c3.62,1.2,7.2,2.51,10.72,4s7,3,10.4,4.71,6.77,3.51,10.06,5.45a13.37,13.37,0,0,0,3.56,1.46,13.15,13.15,0,0,0,3.74.39,13.21,13.21,0,0,0,7.16-2.44l8.48-6.09,8.48-6.1,8.48-6.09,8.48-6.1c.12-.07.24-.14.37-.2a2.43,2.43,0,0,1,.37-.16,2.24,2.24,0,0,1,.37-.1,2.19,2.19,0,0,1,.36,0,2.43,2.43,0,0,1,.36,0,3.46,3.46,0,0,1,.47.11,2.59,2.59,0,0,1,.51.24,2.8,2.8,0,0,1,.53.41l7.33,7.33,7.32,7.32,7.33,7.33,7.32,7.32a2.89,2.89,0,0,1,.52.75,2.81,2.81,0,0,1,.22.85,3,3,0,0,1-.07.89,3.11,3.11,0,0,1-.37.86l-6.07,8.53-6.07,8.53-6.08,8.53-6.07,8.53a12.61,12.61,0,0,0-1.75,3.4,13.06,13.06,0,0,0-.68,3.71,13.33,13.33,0,0,0,1.84,7.34q2.88,4.83,5.38,9.84t4.65,10.17q2.15,5.16,3.91,10.47T655,460a12.94,12.94,0,0,0,1.48,3.57,13.09,13.09,0,0,0,5.5,5,12.64,12.64,0,0,0,3.64,1.13L676,471.51l10.33,1.74L696.6,475l10.33,1.74a2.58,2.58,0,0,1,.87.31,2.39,2.39,0,0,1,.69.57,2.57,2.57,0,0,1,.44.77,2.53,2.53,0,0,1,.16.91v41.4Z" transform="translate(-264.65 -264.66)"/><path class="a" d="M500.05,398.38a101.27,101.27,0,1,0,39.51,8A101.22,101.22,0,0,0,500.05,398.38Zm0,176.59a74.82,74.82,0,1,1,29.18-5.9A74.71,74.71,0,0,1,500.05,575Z" transform="translate(-264.65 -264.66)"/></svg>