<svg width="76" height="36" viewBox="0 0 76 36" fill="none" xmlns="http://www.w3.org/2000/svg">
<path d="M4 24.91L9.68 13.665L4 4.58667V24.91Z" fill="#DDDDDD"/>
<path d="M6.57833 36L20.6667 23.0417L11.66 26.9233L6.57833 36Z" fill="white"/>
<path d="M17.6683 0L4.11834 26.2167L12.9367 21.7467L20.5633 12.5217L17.6683 0Z" fill="white"/>
<path d="M12.9367 21.7467L4.11834 26.2167L11.66 26.9233L20.6667 23.0417L12.9367 21.7467Z" fill="#DDDDDD"/>
<path d="M42.7613 12.6613H37.2893V27H33.1347V12.6613H27.6373V9.01333H42.7613V12.6613Z" fill="white"/>
<path d="M41.7466 23.0227C41.7466 22.1444 41.9915 21.376 42.4813 20.7173C42.9711 20.0587 43.6466 19.5436 44.5079 19.172C45.3693 18.7836 46.3573 18.5893 47.472 18.5893C48.0124 18.5893 48.5444 18.64 49.0679 18.7413C49.5915 18.8258 50.0475 18.9524 50.436 19.1213V18.5387C50.436 17.8124 50.2164 17.2551 49.7773 16.8667C49.3382 16.4782 48.6711 16.284 47.776 16.284C47.0328 16.284 46.332 16.4107 45.6733 16.664C45.0315 16.9173 44.3475 17.2804 43.6213 17.7533L42.4053 15.1693C43.2835 14.5951 44.1955 14.1644 45.1413 13.8773C46.104 13.5902 47.1173 13.4467 48.1813 13.4467C50.1742 13.4467 51.7195 13.928 52.8173 14.8907C53.9319 15.8364 54.4893 17.2129 54.4893 19.02V22.4907C54.4893 22.896 54.5484 23.1831 54.6666 23.352C54.8017 23.504 55.0297 23.5969 55.3506 23.6307V27C55.0128 27.0676 54.692 27.1182 54.388 27.152C54.1008 27.1858 53.8475 27.2027 53.628 27.2027C52.868 27.2027 52.2853 27.0507 51.88 26.7467C51.4915 26.4427 51.2466 26.0289 51.1453 25.5053L51.0693 24.9227C50.4782 25.6827 49.7688 26.2653 48.9413 26.6707C48.1306 27.0591 47.2777 27.2533 46.3826 27.2533C45.5044 27.2533 44.7106 27.0676 44.0013 26.696C43.3088 26.3244 42.7599 25.8178 42.3546 25.176C41.9493 24.5342 41.7466 23.8164 41.7466 23.0227ZM49.8026 23.5293C49.9884 23.3773 50.1404 23.2084 50.2586 23.0227C50.3768 22.8369 50.436 22.6596 50.436 22.4907V21.3C50.0982 21.1649 49.7182 21.0636 49.296 20.996C48.8906 20.9116 48.5106 20.8693 48.156 20.8693C47.4128 20.8693 46.7964 21.0382 46.3066 21.376C45.8168 21.6969 45.5719 22.1276 45.5719 22.668C45.5719 22.972 45.6564 23.2507 45.8253 23.504C45.9942 23.7573 46.2222 23.96 46.5093 24.112C46.8133 24.264 47.1679 24.34 47.5733 24.34C47.9786 24.34 48.3839 24.264 48.7893 24.112C49.1946 23.96 49.5324 23.7658 49.8026 23.5293Z" fill="white"/>
<path d="M60.365 13.7L62.721 17.4493L62.9744 17.9307L63.2277 17.4493L65.5837 13.7H69.7637L65.305 20.312L69.865 27H65.685L63.2024 23.276L62.9744 22.7947L62.7464 23.276L60.2637 27H56.0837L60.6437 20.388L56.185 13.7H60.365Z" fill="white"/>
<path d="M71.3088 27V13.7H75.3622V27H71.3088ZM71.3088 12.18V8.50667H75.3622V12.18H71.3088Z" fill="white"/>
</svg>
