<svg width="95" height="27" viewBox="0 0 95 27" fill="none" xmlns="http://www.w3.org/2000/svg">
<g clip-path="url(#clip0_324_22266)">
<path d="M0.5 18.6825L4.76 10.2488L0.5 3.44V18.6825Z" fill="#DDDDDD"/>
<path d="M2.43372 27L13 17.2812L6.24497 20.1925L2.43372 27Z" fill="white"/>
<path d="M10.7512 0L0.588745 19.6625L7.2025 16.31L12.9225 9.39125L10.7512 0Z" fill="white"/>
<path d="M7.2025 16.31L0.588745 19.6625L6.245 20.1925L13 17.2812L7.2025 16.31Z" fill="#DDDDDD"/>
<path d="M27.3863 10.7125C27.2664 10.6005 27.1323 10.5047 26.9875 10.4275C26.712 10.2638 26.4264 10.1177 26.1325 9.99C25.7677 9.83 25.3917 9.69673 25.0075 9.59125C24.6119 9.47875 24.2026 9.42113 23.7913 9.42C22.6763 9.42 22.1188 9.795 22.1188 10.545C22.1113 10.7503 22.1754 10.9517 22.3 11.115C22.4466 11.2869 22.6276 11.4262 22.8313 11.5238C23.1146 11.6625 23.4105 11.7739 23.715 11.8563C24.0717 11.9521 24.4846 12.0646 24.9538 12.1938C25.5476 12.3539 26.1319 12.5475 26.7038 12.7738C27.1834 12.9594 27.6293 13.2225 28.0238 13.5525C28.3834 13.86 28.6692 14.2445 28.86 14.6775C29.0679 15.1834 29.168 15.727 29.1538 16.2738C29.1538 17.0338 29.0113 17.6767 28.7263 18.2025C28.4584 18.7105 28.0726 19.1469 27.6013 19.475C27.1112 19.8076 26.5636 20.0463 25.9863 20.1788C25.3699 20.3252 24.7385 20.3986 24.105 20.3975C23.5962 20.3961 23.0882 20.3577 22.585 20.2825C22.071 20.2084 21.563 20.0973 21.065 19.95C20.5743 19.8091 20.0932 19.6362 19.625 19.4325C19.1769 19.2381 18.7476 19.0029 18.3425 18.73L19.71 16.0125C19.86 16.1518 20.0257 16.273 20.2038 16.3738C20.5346 16.5783 20.8811 16.7564 21.24 16.9063C21.6869 17.0959 22.1463 17.2546 22.615 17.3813C23.1163 17.5196 23.6338 17.5898 24.1538 17.59C25.2554 17.59 25.8063 17.2542 25.8063 16.5825C25.8092 16.4668 25.7886 16.3517 25.7456 16.2443C25.7026 16.1368 25.6382 16.0393 25.5563 15.9575C25.3562 15.7694 25.1242 15.6183 24.8713 15.5113C24.5362 15.3603 24.1902 15.235 23.8363 15.1363C23.4379 15.0229 23.0042 14.8979 22.535 14.7613C21.9815 14.5976 21.4415 14.3911 20.92 14.1438C20.5061 13.9497 20.1262 13.6901 19.795 13.375C19.5008 13.0912 19.2721 12.7465 19.125 12.365C18.9722 11.9386 18.8985 11.4879 18.9075 11.035C18.8954 10.3877 19.0318 9.74631 19.3063 9.16C19.5631 8.62858 19.9325 8.15939 20.3888 7.785C20.8585 7.40426 21.397 7.11738 21.975 6.94C22.5933 6.7476 23.2375 6.65148 23.885 6.655C24.3507 6.6545 24.8154 6.69888 25.2725 6.7875C25.7178 6.87111 26.157 6.98386 26.5875 7.125C26.9875 7.25648 27.378 7.41518 27.7563 7.6C28.1171 7.7775 28.4504 7.95458 28.7563 8.13125L27.3863 10.7125Z" fill="white"/>
<path d="M30.9763 20.25V6.75997H36.7338C37.3489 6.75282 37.9571 6.88936 38.5101 7.15872C39.0353 7.41494 39.5063 7.7697 39.8976 8.20372C40.284 8.63503 40.5924 9.13035 40.8088 9.66747C41.0269 10.1912 41.1398 10.7527 41.1413 11.32C41.1435 11.9044 41.0375 12.4841 40.8288 13.03C40.625 13.5649 40.3289 14.06 39.9538 14.4925C39.5779 14.9256 39.1155 15.2752 38.5963 15.5187C38.0429 15.7751 37.4387 15.9033 36.8288 15.8937H34.0926V20.25H30.9763ZM34.0926 13.1825H36.6388C36.8229 13.181 37.0042 13.1375 37.1689 13.0552C37.3336 12.9728 37.4772 12.8539 37.5888 12.7075C37.8547 12.39 37.9876 11.9275 37.9876 11.32C37.9932 11.0423 37.951 10.7658 37.8626 10.5025C37.7907 10.2923 37.6776 10.0985 37.5301 9.93247C37.3993 9.78673 37.2368 9.67297 37.0551 9.59997C36.8861 9.53401 36.7064 9.5001 36.5251 9.49997H34.0926V13.1825Z" fill="white"/>
<path d="M45.6251 6.76001H48.4376L53.3588 20.25H50.1663L49.1251 17.2288H44.9226L43.8963 20.25H40.7051L45.6251 6.76001ZM48.6088 15.0825L47.0313 10.3125L45.4163 15.0825H48.6088Z" fill="white"/>
<path d="M54.6887 20.25V6.76H60.7687C61.3776 6.75434 61.9794 6.89088 62.5262 7.15875C63.0529 7.41675 63.5265 7.7712 63.9225 8.20374C64.3141 8.63305 64.626 9.12872 64.8437 9.66749C65.0612 10.1914 65.1741 10.7528 65.1762 11.32C65.1817 12.1262 64.9789 12.9202 64.5875 13.625C64.2115 14.3043 63.6518 14.864 62.9725 15.24L65.9362 20.25H62.4212L59.8375 15.8987H57.805V20.25H54.6887ZM57.805 13.1825H60.655C61.0212 13.1825 61.3387 13.0075 61.605 12.66C61.882 12.2697 62.0209 11.7982 62 11.32C62 10.7625 61.8479 10.3192 61.5437 9.99C61.24 9.66124 60.91 9.49 60.5562 9.49H57.8062L57.805 13.1825Z" fill="white"/>
<path d="M66.6399 13.3913C66.6429 12.5628 66.7971 11.7419 67.0949 10.9688C67.395 10.171 67.8467 9.43878 68.4249 8.81253C69.026 8.16546 69.7479 7.64229 70.5499 7.27253C71.4445 6.86747 72.418 6.66637 73.3999 6.68378C74.6657 6.68378 75.7645 6.95628 76.6961 7.50128C77.5788 7.99561 78.3008 8.73323 78.7761 9.62628L76.3861 11.3013C76.2515 10.9724 76.055 10.6724 75.8074 10.4175C75.5809 10.1899 75.3213 9.99772 75.0374 9.84753C74.7686 9.70544 74.4806 9.60312 74.1824 9.54378C73.9009 9.48726 73.6145 9.45837 73.3274 9.45753C72.7861 9.44514 72.2504 9.56939 71.7699 9.81878C71.3406 10.0476 70.9648 10.365 70.6674 10.75C70.3731 11.1367 70.1539 11.5751 70.0211 12.0425C69.8834 12.5161 69.8132 13.0068 69.8124 13.5C69.8117 14.0231 69.8961 14.5428 70.0624 15.0388C70.217 15.516 70.4586 15.9606 70.7749 16.35C71.0819 16.727 71.4653 17.0346 71.8999 17.2525C72.3574 17.4786 72.8621 17.5925 73.3724 17.585C73.6638 17.5835 73.9541 17.5483 74.2374 17.48C74.5355 17.4111 74.823 17.3026 75.0924 17.1575C75.3708 17.0081 75.6239 16.8157 75.8424 16.5875C76.0811 16.3381 76.2684 16.0442 76.3936 15.7225L78.9399 17.2225C78.7329 17.7228 78.4258 18.1754 78.0374 18.5525C77.632 18.9501 77.1683 19.2835 76.6624 19.5413C75.6197 20.0696 74.4687 20.349 73.2999 20.3575C72.3694 20.3682 71.4491 20.1633 70.6111 19.7588C69.8112 19.3731 69.0948 18.8342 68.5024 18.1725C67.9115 17.5153 67.4456 16.7558 67.1274 15.9313C66.8091 15.1221 66.6438 14.2608 66.6399 13.3913Z" fill="white"/>
<path d="M88.5837 10.7125C88.4644 10.5999 88.3302 10.504 88.185 10.4275C87.9098 10.2633 87.6242 10.1172 87.33 9.99001C86.9653 9.82962 86.5893 9.69634 86.205 9.59126C85.813 9.47958 85.4076 9.42197 85 9.42001C83.885 9.42001 83.3275 9.79501 83.3275 10.545C83.319 10.7479 83.3798 10.9476 83.5 11.1113C83.6471 11.2831 83.8285 11.4223 84.0325 11.52C84.3157 11.659 84.6117 11.7703 84.9162 11.8525C85.2696 11.9542 85.6812 12.0679 86.1512 12.1938C86.7451 12.3536 87.3294 12.5473 87.9012 12.7738C88.3814 12.9592 88.8277 13.2223 89.2225 13.5525C89.5813 13.8605 89.8667 14.2449 90.0575 14.6775C90.2658 15.1833 90.3663 15.7269 90.3525 16.2738C90.3525 17.0338 90.21 17.6767 89.925 18.2025C89.6568 18.7103 89.2711 19.1466 88.8 19.475C88.3099 19.8076 87.7623 20.0463 87.185 20.1788C86.5707 20.3246 85.9414 20.398 85.31 20.3975C84.8012 20.3962 84.2932 20.3578 83.79 20.2825C83.276 20.2086 82.768 20.0974 82.27 19.95C81.7809 19.807 81.3016 19.6325 80.835 19.4275C80.3869 19.2331 79.9576 18.998 79.5525 18.725L80.9212 16.0075C81.0731 16.1472 81.241 16.2684 81.4212 16.3688C81.7518 16.5731 82.0978 16.7511 82.4562 16.9013C82.9032 17.0907 83.3626 17.2495 83.8312 17.3763C84.3325 17.5145 84.85 17.5847 85.37 17.585C86.4725 17.585 87.0237 17.2492 87.0237 16.5775C87.0269 16.4618 87.0063 16.3467 86.9633 16.2392C86.9204 16.1317 86.8558 16.0341 86.7737 15.9525C86.5741 15.7644 86.3426 15.6133 86.09 15.5063C85.7549 15.3554 85.4089 15.23 85.055 15.1313C84.655 15.0179 84.2208 14.8929 83.7525 14.7563C83.1949 14.5938 82.6507 14.3882 82.125 14.1413C81.7112 13.9469 81.3314 13.6874 81 13.3725C80.7075 13.0892 80.4805 12.7453 80.335 12.365C80.1811 11.9388 80.107 11.488 80.1162 11.035C80.1046 10.3878 80.241 9.74649 80.515 9.16001C80.7723 8.62853 81.1421 8.15936 81.5987 7.78501C82.0684 7.40427 82.607 7.11739 83.185 6.94001C83.8032 6.74742 84.4475 6.65129 85.095 6.65501C85.5603 6.65459 86.0245 6.69897 86.4812 6.78751C86.9231 6.87145 87.3591 6.98419 87.7862 7.12501C88.1861 7.25671 88.5766 7.41541 88.955 7.60001C89.3158 7.77751 89.6492 7.95459 89.955 8.13126L88.5837 10.7125Z" fill="white"/>
</g>
<defs>
<clipPath id="clip0_324_22266">
<rect width="94" height="27" fill="white" transform="translate(0.5)"/>
</clipPath>
</defs>
</svg>
